<?xml version="1.0" encoding="UTF-8" standalone="no"?>
<!-- Created with Inkscape (http://www.inkscape.org/) -->
<svg
   xmlns:dc="http://purl.org/dc/elements/1.1/"
   xmlns:cc="http://web.resource.org/cc/"
   xmlns:rdf="http://www.w3.org/1999/02/22-rdf-syntax-ns#"
   xmlns:svg="http://www.w3.org/2000/svg"
   xmlns="http://www.w3.org/2000/svg"
   xmlns:xlink="http://www.w3.org/1999/xlink"
   xmlns:sodipodi="http://inkscape.sourceforge.net/DTD/sodipodi-0.dtd"
   xmlns:inkscape="http://www.inkscape.org/namespaces/inkscape"
   inkscape:export-ydpi="41.25"
   inkscape:export-xdpi="41.25"
   inkscape:export-filename="/home/josue/Desktop/package-purge.png"
   width="48px"
   height="48px"
   id="svg11300"
   sodipodi:version="0.32"
   inkscape:version="0.43"
   sodipodi:docbase="/home/josue/Desktop/synaptic-icons/scalable"
   sodipodi:docname="package-purge.svg">
  <defs
     id="defs3">
    <linearGradient
       id="linearGradient11520">
      <stop
         id="stop11522"
         offset="0"
         style="stop-color:#73e404;stop-opacity:1;" />
      <stop
         id="stop11524"
         offset="1.0000000"
         style="stop-color:#dcdcdc;stop-opacity:1.0000000;" />
    </linearGradient>
    <linearGradient
       id="linearGradient11508"
       inkscape:collect="always">
      <stop
         id="stop11510"
         offset="0"
         style="stop-color:#000000;stop-opacity:1;" />
      <stop
         id="stop11512"
         offset="1"
         style="stop-color:#000000;stop-opacity:0;" />
    </linearGradient>
    <linearGradient
       id="linearGradient11494"
       inkscape:collect="always">
      <stop
         id="stop11496"
         offset="0"
         style="stop-color:#ef2929;stop-opacity:1;" />
      <stop
         id="stop11498"
         offset="1"
         style="stop-color:#ef2929;stop-opacity:0;" />
    </linearGradient>
    <radialGradient
       inkscape:collect="always"
       xlink:href="#linearGradient11508"
       id="radialGradient1348"
       gradientUnits="userSpaceOnUse"
       gradientTransform="matrix(1.000000,0.000000,0.000000,0.338462,-1.435476e-15,29.48178)"
       cx="30.203562"
       cy="44.565483"
       fx="30.203562"
       fy="44.565483"
       r="6.5659914" />
    <radialGradient
       inkscape:collect="always"
       xlink:href="#linearGradient11494"
       id="radialGradient1352"
       gradientUnits="userSpaceOnUse"
       gradientTransform="matrix(1.243453,2.106784e-16,-2.106784e-16,1.243453,-6.713754,-3.742847)"
       cx="27.577173"
       cy="16.049133"
       fx="27.577173"
       fy="16.049133"
       r="3.8335034" />
    <radialGradient
       inkscape:collect="always"
       xlink:href="#linearGradient11494"
       id="radialGradient1354"
       gradientUnits="userSpaceOnUse"
       gradientTransform="matrix(1.243453,2.106784e-16,-2.106784e-16,1.243453,-6.713754,-3.742847)"
       cx="27.577173"
       cy="15.048258"
       fx="27.577173"
       fy="15.048258"
       r="3.8335034" />
    <radialGradient
       inkscape:collect="always"
       xlink:href="#linearGradient11508"
       id="radialGradient1356"
       gradientUnits="userSpaceOnUse"
       gradientTransform="matrix(1.000000,0.000000,0.000000,0.338462,2.220359e-14,29.48178)"
       cx="30.203562"
       cy="44.565483"
       fx="30.203562"
       fy="44.565483"
       r="6.5659914" />
    <radialGradient
       inkscape:collect="always"
       xlink:href="#linearGradient11520"
       id="radialGradient1366"
       gradientUnits="userSpaceOnUse"
       gradientTransform="matrix(1.995058,-1.651527e-32,0.000000,1.995058,-24.32488,-35.70087)"
       cx="24.445690"
       cy="35.878170"
       fx="24.445690"
       fy="35.878170"
       r="20.530962" />
    <radialGradient
       r="6.5659914"
       fy="44.565483"
       fx="30.203562"
       cy="44.565483"
       cx="30.203562"
       gradientTransform="matrix(1,0,0,0.338462,-1.379714e-14,29.48178)"
       gradientUnits="userSpaceOnUse"
       id="radialGradient2855"
       xlink:href="#linearGradient11508"
       inkscape:collect="always" />
    <radialGradient
       r="20.530962"
       fy="35.878170"
       fx="24.445690"
       cy="35.878170"
       cx="24.445690"
       gradientTransform="matrix(1.995058,-1.651527e-32,0,1.995058,-24.32488,-35.70087)"
       gradientUnits="userSpaceOnUse"
       id="radialGradient2848"
       xlink:href="#linearGradient11520"
       inkscape:collect="always" />
    <radialGradient
       r="6.5659914"
       fy="44.565483"
       fx="30.203562"
       cy="44.565483"
       cx="30.203562"
       gradientTransform="matrix(1,0,0,0.338462,-8.367432e-15,29.48178)"
       gradientUnits="userSpaceOnUse"
       id="radialGradient2846"
       xlink:href="#linearGradient11508"
       inkscape:collect="always" />
    <linearGradient
       y2="14.259961"
       x2="11.779029"
       y1="20.579729"
       x1="11.500000"
       gradientTransform="matrix(0.980472,0,0,0.490236,34.67523,22.83397)"
       gradientUnits="userSpaceOnUse"
       id="linearGradient1898"
       xlink:href="#linearGradient12071"
       inkscape:collect="always" />
    <linearGradient
       id="linearGradient12071"
       inkscape:collect="always">
      <stop
         id="stop12073"
         offset="0"
         style="stop-color:#ffffff;stop-opacity:1;" />
      <stop
         id="stop12075"
         offset="1"
         style="stop-color:#ffffff;stop-opacity:0;" />
    </linearGradient>
    <linearGradient
       y2="3.9566603"
       x2="17.859085"
       y1="6.8795347"
       x1="14.217941"
       gradientTransform="matrix(0.980472,0,0,0.461806,23.89003,23.47875)"
       gradientUnits="userSpaceOnUse"
       id="linearGradient1896"
       xlink:href="#linearGradient12071"
       inkscape:collect="always" />
    <linearGradient
       id="linearGradient9845">
      <stop
         id="stop9847"
         offset="0"
         style="stop-color:#ffffff;stop-opacity:1;" />
      <stop
         id="stop9849"
         offset="1.0000000"
         style="stop-color:#ffffff;stop-opacity:0.49484536;" />
    </linearGradient>
    <linearGradient
       y2="36.127281"
       x2="30.875446"
       y1="25.002281"
       x1="10.907269"
       gradientTransform="matrix(0.453445,0,0,0.470026,30.17248,24.3894)"
       gradientUnits="userSpaceOnUse"
       id="linearGradient1894"
       xlink:href="#linearGradient9845"
       inkscape:collect="always" />
    <linearGradient
       id="linearGradient2769">
      <stop
         id="stop2771"
         offset="0"
         style="stop-color:#7d6400;stop-opacity:1;" />
      <stop
         id="stop2773"
         offset="1.0000000"
         style="stop-color:#be9700;stop-opacity:1.0000000;" />
    </linearGradient>
    <linearGradient
       y2="25.793524"
       x2="8.6713638"
       y1="41.791817"
       x1="31.630468"
       gradientTransform="matrix(0.490236,0,0,0.534297,29.28263,22.22637)"
       gradientUnits="userSpaceOnUse"
       id="linearGradient1892"
       xlink:href="#linearGradient11327"
       inkscape:collect="always" />
    <linearGradient
       id="linearGradient2776">
      <stop
         style="stop-color:#fff7b0;stop-opacity:1;"
         offset="0"
         id="stop2778" />
      <stop
         id="stop2780"
         offset="0.20999999"
         style="stop-color:#ffec41;stop-opacity:1.0000000;" />
      <stop
         style="stop-color:#e2cc00;stop-opacity:1;"
         offset="0.83999997"
         id="stop2782" />
      <stop
         style="stop-color:#c3af00;stop-opacity:1;"
         offset="1"
         id="stop2784" />
    </linearGradient>
    <linearGradient
       y2="32.161697"
       x2="40.938126"
       y1="32.161697"
       x1="6.7268200"
       gradientTransform="matrix(0.490236,0,0,0.534297,29.28263,21.67589)"
       gradientUnits="userSpaceOnUse"
       id="linearGradient1890"
       xlink:href="#linearGradient2092"
       inkscape:collect="always" />
    <linearGradient
       id="linearGradient2787">
      <stop
         id="stop2789"
         offset="0"
         style="stop-color:#6f716d;stop-opacity:1;" />
      <stop
         id="stop2791"
         offset="1.0000000"
         style="stop-color:#9ea09c;stop-opacity:1.0000000;" />
    </linearGradient>
    <linearGradient
       y2="6.0396547"
       x2="16.198252"
       y1="9.6635771"
       x1="19.250618"
       gradientTransform="matrix(0.480246,0,0,0.497322,29.22711,23.01153)"
       gradientUnits="userSpaceOnUse"
       id="linearGradient1888"
       xlink:href="#linearGradient11335"
       inkscape:collect="always" />
    <linearGradient
       id="linearGradient2794">
      <stop
         id="stop2796"
         offset="0.0000000"
         style="stop-color:#cad0c6;stop-opacity:1.0000000;" />
      <stop
         style="stop-color:#eaece9;stop-opacity:1.0000000;"
         offset="0.50000000"
         id="stop2798" />
      <stop
         id="stop2800"
         offset="1.0000000"
         style="stop-color:#c5cbc0;stop-opacity:1.0000000;" />
    </linearGradient>
    <linearGradient
       y2="18.414022"
       x2="20.087339"
       y1="4.3602757"
       x1="12.886660"
       gradientTransform="matrix(0.480246,0,0,0.497322,29.22711,23.01153)"
       gradientUnits="userSpaceOnUse"
       id="linearGradient1886"
       xlink:href="#linearGradient10591"
       inkscape:collect="always" />
    <linearGradient
       id="linearGradient2803">
      <stop
         id="stop2805"
         offset="0.0000000"
         style="stop-color:#ffffff;stop-opacity:1.0000000;" />
      <stop
         id="stop2807"
         offset="1.0000000"
         style="stop-color:#dcdcdc;stop-opacity:1.0000000;" />
    </linearGradient>
    <radialGradient
       inkscape:collect="always"
       xlink:href="#linearGradient11508"
       id="radialGradient2821"
       gradientUnits="userSpaceOnUse"
       gradientTransform="matrix(1.000000,0.000000,0.000000,0.338462,-1.435476e-15,29.48178)"
       cx="30.203562"
       cy="44.565483"
       fx="30.203562"
       fy="44.565483"
       r="6.5659914" />
    <radialGradient
       inkscape:collect="always"
       xlink:href="#linearGradient11494"
       id="radialGradient2823"
       gradientUnits="userSpaceOnUse"
       gradientTransform="matrix(1.243453,2.106784e-16,-2.106784e-16,1.243453,-6.713754,-3.742847)"
       cx="27.577173"
       cy="16.049133"
       fx="27.577173"
       fy="16.049133"
       r="3.8335034" />
    <radialGradient
       inkscape:collect="always"
       xlink:href="#linearGradient11494"
       id="radialGradient2825"
       gradientUnits="userSpaceOnUse"
       gradientTransform="matrix(1.243453,2.106784e-16,-2.106784e-16,1.243453,-6.713754,-3.742847)"
       cx="27.577173"
       cy="15.048258"
       fx="27.577173"
       fy="15.048258"
       r="3.8335034" />
    <radialGradient
       inkscape:collect="always"
       xlink:href="#linearGradient11508"
       id="radialGradient2827"
       gradientUnits="userSpaceOnUse"
       gradientTransform="matrix(1,0,0,0.338462,2.247247e-14,29.48178)"
       cx="30.203562"
       cy="44.565483"
       fx="30.203562"
       fy="44.565483"
       r="6.5659914" />
    <radialGradient
       inkscape:collect="always"
       xlink:href="#linearGradient11520"
       id="radialGradient2829"
       gradientUnits="userSpaceOnUse"
       gradientTransform="matrix(1.995058,-1.651527e-32,0.000000,1.995058,-24.32488,-35.70087)"
       cx="24.445690"
       cy="35.878170"
       fx="24.445690"
       fy="35.878170"
       r="20.530962" />
    <radialGradient
       r="20.530962"
       fy="35.878170"
       fx="24.445690"
       cy="35.878170"
       cx="24.445690"
       gradientTransform="matrix(1.995058,-1.651527e-32,0,1.995058,-24.32488,-35.70087)"
       gradientUnits="userSpaceOnUse"
       id="radialGradient2696"
       xlink:href="#linearGradient11520"
       inkscape:collect="always" />
    <radialGradient
       r="6.5659914"
       fy="44.565483"
       fx="30.203562"
       cy="44.565483"
       cx="30.203562"
       gradientTransform="matrix(1,0,0,0.338462,-3.746128e-15,29.48178)"
       gradientUnits="userSpaceOnUse"
       id="radialGradient2694"
       xlink:href="#linearGradient11508"
       inkscape:collect="always" />
    <linearGradient
       inkscape:collect="always"
       id="linearGradient2719">
      <stop
         style="stop-color:#cc0000;stop-opacity:1;"
         offset="0"
         id="stop2721" />
      <stop
         style="stop-color:#cc0000;stop-opacity:0;"
         offset="1"
         id="stop2723" />
    </linearGradient>
    <linearGradient
       id="linearGradient2711">
      <stop
         style="stop-color:#f34e4e;stop-opacity:1;"
         offset="0"
         id="stop2713" />
      <stop
         style="stop-color:#ef2929;stop-opacity:0;"
         offset="1"
         id="stop2715" />
    </linearGradient>
    <linearGradient
       id="linearGradient11327">
      <stop
         style="stop-color:#7d6400;stop-opacity:1;"
         offset="0"
         id="stop11329" />
      <stop
         style="stop-color:#be9700;stop-opacity:1.0000000;"
         offset="1.0000000"
         id="stop11331" />
    </linearGradient>
    <linearGradient
       id="linearGradient2092">
      <stop
         id="stop2094"
         offset="0"
         style="stop-color:#fff7b0;stop-opacity:1;" />
      <stop
         style="stop-color:#ffec41;stop-opacity:1.0000000;"
         offset="0.20999999"
         id="stop2098" />
      <stop
         id="stop2293"
         offset="0.83999997"
         style="stop-color:#e2cc00;stop-opacity:1;" />
      <stop
         id="stop2100"
         offset="1"
         style="stop-color:#c3af00;stop-opacity:1;" />
    </linearGradient>
    <linearGradient
       id="linearGradient11335">
      <stop
         style="stop-color:#6f716d;stop-opacity:1;"
         offset="0"
         id="stop11337" />
      <stop
         style="stop-color:#9ea09c;stop-opacity:1.0000000;"
         offset="1.0000000"
         id="stop11339" />
    </linearGradient>
    <linearGradient
       id="linearGradient10591">
      <stop
         style="stop-color:#cad0c6;stop-opacity:1.0000000;"
         offset="0.0000000"
         id="stop10593" />
      <stop
         id="stop10599"
         offset="0.50000000"
         style="stop-color:#eaece9;stop-opacity:1.0000000;" />
      <stop
         style="stop-color:#c5cbc0;stop-opacity:1.0000000;"
         offset="1.0000000"
         id="stop10595" />
    </linearGradient>
    <linearGradient
       id="linearGradient2665">
      <stop
         id="stop2667"
         offset="0.0000000"
         style="stop-color:#ffffff;stop-opacity:1.0000000;" />
      <stop
         id="stop2669"
         offset="1.0000000"
         style="stop-color:#dcdcdc;stop-opacity:1.0000000;" />
    </linearGradient>
    <radialGradient
       inkscape:collect="always"
       xlink:href="#linearGradient11508"
       id="radialGradient2677"
       gradientUnits="userSpaceOnUse"
       gradientTransform="matrix(1.000000,0.000000,0.000000,0.338462,-1.435476e-15,29.48178)"
       cx="30.203562"
       cy="44.565483"
       fx="30.203562"
       fy="44.565483"
       r="6.5659914" />
    <radialGradient
       inkscape:collect="always"
       xlink:href="#linearGradient11520"
       id="radialGradient2679"
       gradientUnits="userSpaceOnUse"
       gradientTransform="matrix(1.995058,-1.651527e-32,0.000000,1.995058,-24.32488,-35.70087)"
       cx="24.445690"
       cy="35.878170"
       fx="24.445690"
       fy="35.878170"
       r="20.530962" />
    <radialGradient
       inkscape:collect="always"
       xlink:href="#linearGradient2719"
       id="radialGradient2725"
       cx="24.445681"
       cy="46.957848"
       fx="24.445681"
       fy="46.957848"
       r="16.554319"
       gradientTransform="matrix(2.670835,-1.66183e-17,1.650931e-17,2.653312,-40.84471,-77.78951)"
       gradientUnits="userSpaceOnUse" />
    <radialGradient
       r="20.530962"
       fy="35.878170"
       fx="24.445690"
       cy="35.878170"
       cx="24.445690"
       gradientTransform="matrix(1.995058,-1.651527e-32,0.000000,1.995058,-24.32488,-35.70087)"
       gradientUnits="userSpaceOnUse"
       id="radialGradient1516"
       xlink:href="#linearGradient11520"
       inkscape:collect="always" />
    <radialGradient
       r="6.5659914"
       fy="44.565483"
       fx="30.203562"
       cy="44.565483"
       cx="30.203562"
       gradientTransform="matrix(1,0,0,0.338462,2.436851e-14,29.48178)"
       gradientUnits="userSpaceOnUse"
       id="radialGradient1514"
       xlink:href="#linearGradient11508"
       inkscape:collect="always" />
    <radialGradient
       r="3.8335034"
       fy="15.048258"
       fx="27.577173"
       cy="15.048258"
       cx="27.577173"
       gradientTransform="matrix(1.243453,2.106784e-16,-2.106784e-16,1.243453,-6.713754,-3.742847)"
       gradientUnits="userSpaceOnUse"
       id="radialGradient1512"
       xlink:href="#linearGradient11494"
       inkscape:collect="always" />
    <radialGradient
       r="3.8335034"
       fy="16.049133"
       fx="27.577173"
       cy="16.049133"
       cx="27.577173"
       gradientTransform="matrix(1.243453,2.106784e-16,-2.106784e-16,1.243453,-6.713754,-3.742847)"
       gradientUnits="userSpaceOnUse"
       id="radialGradient1510"
       xlink:href="#linearGradient11494"
       inkscape:collect="always" />
    <radialGradient
       r="6.5659914"
       fy="44.565483"
       fx="30.203562"
       cy="44.565483"
       cx="30.203562"
       gradientTransform="matrix(1.000000,0.000000,0.000000,0.338462,-1.435476e-15,29.48178)"
       gradientUnits="userSpaceOnUse"
       id="radialGradient1508"
       xlink:href="#linearGradient11508"
       inkscape:collect="always" />
    <linearGradient
       id="linearGradient1490">
      <stop
         style="stop-color:#e60000;stop-opacity:1;"
         offset="0"
         id="stop1492" />
      <stop
         style="stop-color:#dcdcdc;stop-opacity:1.0000000;"
         offset="1.0000000"
         id="stop1494" />
    </linearGradient>
    <linearGradient
       y2="14.259961"
       x2="11.779029"
       y1="20.579729"
       x1="11.500000"
       gradientTransform="matrix(0.980472,0,0,0.490236,34.67523,22.83397)"
       gradientUnits="userSpaceOnUse"
       id="linearGradient1842"
       xlink:href="#linearGradient12071"
       inkscape:collect="always" />
    <linearGradient
       y2="3.9566603"
       x2="17.859085"
       y1="6.8795347"
       x1="14.217941"
       gradientTransform="matrix(0.980472,0,0,0.461806,23.89003,23.47875)"
       gradientUnits="userSpaceOnUse"
       id="linearGradient1840"
       xlink:href="#linearGradient12071"
       inkscape:collect="always" />
    <linearGradient
       y2="36.127281"
       x2="30.875446"
       y1="25.002281"
       x1="10.907269"
       gradientTransform="matrix(0.453445,0,0,0.470026,30.17248,24.3894)"
       gradientUnits="userSpaceOnUse"
       id="linearGradient1838"
       xlink:href="#linearGradient9845"
       inkscape:collect="always" />
    <linearGradient
       y2="25.793524"
       x2="8.6713638"
       y1="41.791817"
       x1="31.630468"
       gradientTransform="matrix(0.490236,0,0,0.534297,29.28263,22.22637)"
       gradientUnits="userSpaceOnUse"
       id="linearGradient1836"
       xlink:href="#linearGradient11327"
       inkscape:collect="always" />
    <linearGradient
       y2="32.161697"
       x2="40.938126"
       y1="32.161697"
       x1="6.7268200"
       gradientTransform="matrix(0.490236,0,0,0.534297,29.28263,21.67589)"
       gradientUnits="userSpaceOnUse"
       id="linearGradient1834"
       xlink:href="#linearGradient2092"
       inkscape:collect="always" />
    <linearGradient
       y2="6.0396547"
       x2="16.198252"
       y1="9.6635771"
       x1="19.250618"
       gradientTransform="matrix(0.480246,0,0,0.497322,29.22711,23.01153)"
       gradientUnits="userSpaceOnUse"
       id="linearGradient1832"
       xlink:href="#linearGradient11335"
       inkscape:collect="always" />
    <linearGradient
       y2="18.414022"
       x2="20.087339"
       y1="4.3602757"
       x1="12.886660"
       gradientTransform="matrix(0.480246,0,0,0.497322,29.22711,23.01153)"
       gradientUnits="userSpaceOnUse"
       id="linearGradient1830"
       xlink:href="#linearGradient10591"
       inkscape:collect="always" />
    <linearGradient
       inkscape:collect="always"
       xlink:href="#linearGradient2329"
       id="linearGradient2337"
       x1="-35.122688"
       y1="34.242237"
       x2="-35.074745"
       y2="30.962345"
       gradientUnits="userSpaceOnUse" />
    <linearGradient
       inkscape:collect="always"
       xlink:href="#linearGradient2321"
       id="linearGradient2327"
       x1="-35.658386"
       y1="33.416473"
       x2="-35.658386"
       y2="28.205938"
       gradientUnits="userSpaceOnUse" />
    <linearGradient
       inkscape:collect="always"
       xlink:href="#linearGradient2253"
       id="linearGradient1561"
       gradientUnits="userSpaceOnUse"
       gradientTransform="matrix(1.104397,0,0,0.905471,4.5,2.875)"
       x1="10.390738"
       y1="5.3817744"
       x2="32.536823"
       y2="31.246054" />
    <linearGradient
       inkscape:collect="always"
       xlink:href="#linearGradient2711"
       id="linearGradient2733"
       gradientUnits="userSpaceOnUse"
       x1="34.300991"
       y1="3.9384086"
       x2="35.520542"
       y2="3.8451097" />
    <linearGradient
       inkscape:collect="always"
       xlink:href="#linearGradient2711"
       id="linearGradient2729"
       gradientUnits="userSpaceOnUse"
       x1="34.300991"
       y1="3.9384086"
       x2="35.520542"
       y2="3.8451097" />
    <linearGradient
       inkscape:collect="always"
       xlink:href="#linearGradient2711"
       id="linearGradient2725"
       gradientUnits="userSpaceOnUse"
       x1="34.300991"
       y1="3.9384086"
       x2="35.520542"
       y2="3.8451097" />
    <linearGradient
       inkscape:collect="always"
       xlink:href="#linearGradient2711"
       id="linearGradient2721"
       gradientUnits="userSpaceOnUse"
       x1="34.300991"
       y1="3.9384086"
       x2="35.520542"
       y2="3.8451097" />
    <linearGradient
       inkscape:collect="always"
       xlink:href="#linearGradient2711"
       id="linearGradient2717"
       x1="34.300991"
       y1="3.9384086"
       x2="35.520542"
       y2="3.8451097"
       gradientUnits="userSpaceOnUse" />
    <linearGradient
       inkscape:collect="always"
       xlink:href="#linearGradient2701"
       id="linearGradient2707"
       gradientTransform="matrix(1.816345,0,0,1.278927,2.5,-40.24508)"
       x1="12.206709"
       y1="53.535141"
       x2="12.127711"
       y2="64.892525"
       gradientUnits="userSpaceOnUse" />
    <linearGradient
       inkscape:collect="always"
       xlink:href="#linearGradient2683"
       id="linearGradient2689"
       gradientTransform="matrix(5.705159,0,0,0.17528,5.5,2.195627)"
       x1="3.7069976"
       y1="171.29134"
       x2="3.7069974"
       y2="162.45061"
       gradientUnits="userSpaceOnUse" />
    <linearGradient
       inkscape:collect="always"
       xlink:href="#linearGradient2675"
       id="linearGradient2681"
       gradientTransform="matrix(1.174139,0,0,0.945431,5.221825,1.543476)"
       x1="19.150396"
       y1="32.622238"
       x2="16.315819"
       y2="8.8666229"
       gradientUnits="userSpaceOnUse" />
    <linearGradient
       inkscape:collect="always"
       xlink:href="#linearGradient2667"
       id="linearGradient2673"
       gradientTransform="matrix(1.238977,0,0,0.895955,5.090553,1.543476)"
       x1="11.492236"
       y1="1.6537577"
       x2="17.199417"
       y2="26.729263"
       gradientUnits="userSpaceOnUse" />
    <radialGradient
       gradientUnits="userSpaceOnUse"
       r="8.7662794"
       fy="67.501709"
       fx="12.575710"
       cy="67.501709"
       cx="12.575710"
       gradientTransform="scale(1.925808,0.519262)"
       id="radialGradient2460"
       xlink:href="#linearGradient2454"
       inkscape:collect="always" />
    <linearGradient
       gradientUnits="userSpaceOnUse"
       y2="55.200756"
       x2="34.974548"
       y1="13.004725"
       x1="17.698339"
       gradientTransform="matrix(1.108069,0,0,0.902471,5.5,3.875)"
       id="linearGradient2421"
       xlink:href="#linearGradient2415"
       inkscape:collect="always" />
    <linearGradient
       gradientUnits="userSpaceOnUse"
       y2="33.339787"
       x2="34.784473"
       y1="7.2293582"
       x1="8.6116238"
       gradientTransform="matrix(1.129863,0,0,0.885063,2.875,1.570628)"
       id="linearGradient2251"
       xlink:href="#linearGradient2245"
       inkscape:collect="always" />
    <linearGradient
       id="linearGradient2245">
      <stop
         id="stop2247"
         offset="0"
         style="stop-color:#cc0000;stop-opacity:1;" />
      <stop
         id="stop2249"
         offset="1"
         style="stop-color:#ef2929;stop-opacity:1;" />
    </linearGradient>
    <linearGradient
       id="linearGradient2253">
      <stop
         id="stop2255"
         offset="0.0000000"
         style="stop-color:#8f8f8f;stop-opacity:1.0000000;" />
      <stop
         id="stop2257"
         offset="1.0000000"
         style="stop-color:#494949;stop-opacity:1.0000000;" />
    </linearGradient>
    <linearGradient
       id="linearGradient2415"
       inkscape:collect="always">
      <stop
         id="stop2417"
         offset="0"
         style="stop-color:#ffffff;stop-opacity:1;" />
      <stop
         id="stop2419"
         offset="1"
         style="stop-color:#ffffff;stop-opacity:0;" />
    </linearGradient>
    <linearGradient
       id="linearGradient2454"
       inkscape:collect="always">
      <stop
         id="stop2456"
         offset="0"
         style="stop-color:#000000;stop-opacity:1;" />
      <stop
         id="stop2458"
         offset="1"
         style="stop-color:#000000;stop-opacity:0;" />
    </linearGradient>
    <linearGradient
       id="linearGradient2667">
      <stop
         style="stop-color:#ffffff;stop-opacity:1.0000000;"
         offset="0.0000000"
         id="stop1800" />
      <stop
         style="stop-color:#fcfcff;stop-opacity:0.0000000;"
         offset="1.0000000"
         id="stop2671" />
    </linearGradient>
    <linearGradient
       id="linearGradient2675">
      <stop
         style="stop-color:#5b5b97;stop-opacity:1.0000000;"
         offset="0.0000000"
         id="stop2677" />
      <stop
         style="stop-color:#1b1b43;stop-opacity:1.0000000;"
         offset="1.0000000"
         id="stop2679" />
    </linearGradient>
    <linearGradient
       inkscape:collect="always"
       id="linearGradient2683">
      <stop
         style="stop-color:#000000;stop-opacity:1;"
         offset="0"
         id="stop2685" />
      <stop
         style="stop-color:#000000;stop-opacity:0;"
         offset="1"
         id="stop2687" />
    </linearGradient>
    <linearGradient
       id="linearGradient2701">
      <stop
         style="stop-color:#585956;stop-opacity:1.0000000;"
         offset="0.0000000"
         id="stop2703" />
      <stop
         style="stop-color:#bbbeb8;stop-opacity:1.0000000;"
         offset="1.0000000"
         id="stop2705" />
    </linearGradient>
    <linearGradient
       id="linearGradient1784">
      <stop
         style="stop-color:#909090;stop-opacity:1.0000000;"
         offset="0.0000000"
         id="stop1786" />
      <stop
         style="stop-color:#bebebe;stop-opacity:0.0000000;"
         offset="1.0000000"
         id="stop1788" />
    </linearGradient>
    <linearGradient
       inkscape:collect="always"
       id="linearGradient2321">
      <stop
         style="stop-color:#7b7f7a;stop-opacity:1;"
         offset="0"
         id="stop2323" />
      <stop
         style="stop-color:#7b7f7a;stop-opacity:0;"
         offset="1"
         id="stop2325" />
    </linearGradient>
    <linearGradient
       id="linearGradient2329">
      <stop
         style="stop-color:#ffffff;stop-opacity:1.0000000;"
         offset="0.0000000"
         id="stop2331" />
      <stop
         style="stop-color:#ffffff;stop-opacity:0.0000000;"
         offset="1.0000000"
         id="stop2333" />
    </linearGradient>
    <linearGradient
       id="linearGradient1770">
      <stop
         id="stop1772"
         offset="0.0000000"
         style="stop-color:#cad0c6;stop-opacity:1.0000000;" />
      <stop
         style="stop-color:#eaece9;stop-opacity:1.0000000;"
         offset="0.50000000"
         id="stop1774" />
      <stop
         id="stop1776"
         offset="1.0000000"
         style="stop-color:#c5cbc0;stop-opacity:1.0000000;" />
    </linearGradient>
    <linearGradient
       id="linearGradient1764">
      <stop
         id="stop1766"
         offset="0"
         style="stop-color:#6f716d;stop-opacity:1;" />
      <stop
         id="stop1768"
         offset="1.0000000"
         style="stop-color:#9ea09c;stop-opacity:1.0000000;" />
    </linearGradient>
    <linearGradient
       id="linearGradient1754">
      <stop
         style="stop-color:#fff7b0;stop-opacity:1;"
         offset="0"
         id="stop1756" />
      <stop
         id="stop1758"
         offset="0.20999999"
         style="stop-color:#ffec41;stop-opacity:1.0000000;" />
      <stop
         style="stop-color:#e2cc00;stop-opacity:1;"
         offset="0.83999997"
         id="stop1760" />
      <stop
         style="stop-color:#c3af00;stop-opacity:1;"
         offset="1"
         id="stop1762" />
    </linearGradient>
    <linearGradient
       id="linearGradient1748">
      <stop
         id="stop1750"
         offset="0"
         style="stop-color:#7d6400;stop-opacity:1;" />
      <stop
         id="stop1752"
         offset="1.0000000"
         style="stop-color:#be9700;stop-opacity:1.0000000;" />
    </linearGradient>
    <linearGradient
       id="linearGradient1742">
      <stop
         id="stop1744"
         offset="0"
         style="stop-color:#ffffff;stop-opacity:1;" />
      <stop
         id="stop1746"
         offset="1.0000000"
         style="stop-color:#ffffff;stop-opacity:0.49484536;" />
    </linearGradient>
    <linearGradient
       inkscape:collect="always"
       xlink:href="#linearGradient10591"
       id="linearGradient1874"
       gradientUnits="userSpaceOnUse"
       gradientTransform="matrix(0.480246,0,0,0.497322,29.22711,23.01153)"
       x1="12.886660"
       y1="4.3602757"
       x2="20.087339"
       y2="18.414022" />
    <linearGradient
       inkscape:collect="always"
       xlink:href="#linearGradient11335"
       id="linearGradient1876"
       gradientUnits="userSpaceOnUse"
       gradientTransform="matrix(0.480246,0,0,0.497322,29.22711,23.01153)"
       x1="19.250618"
       y1="9.6635771"
       x2="16.198252"
       y2="6.0396547" />
    <linearGradient
       inkscape:collect="always"
       xlink:href="#linearGradient2092"
       id="linearGradient1878"
       gradientUnits="userSpaceOnUse"
       gradientTransform="matrix(0.490236,0,0,0.534297,29.28263,21.67589)"
       x1="6.7268200"
       y1="32.161697"
       x2="40.938126"
       y2="32.161697" />
    <linearGradient
       inkscape:collect="always"
       xlink:href="#linearGradient11327"
       id="linearGradient1880"
       gradientUnits="userSpaceOnUse"
       gradientTransform="matrix(0.490236,0,0,0.534297,29.28263,22.22637)"
       x1="31.630468"
       y1="41.791817"
       x2="8.6713638"
       y2="25.793524" />
    <linearGradient
       inkscape:collect="always"
       xlink:href="#linearGradient9845"
       id="linearGradient1882"
       gradientUnits="userSpaceOnUse"
       gradientTransform="matrix(0.453445,0,0,0.470026,30.17248,24.3894)"
       x1="10.907269"
       y1="25.002281"
       x2="30.875446"
       y2="36.127281" />
    <linearGradient
       inkscape:collect="always"
       xlink:href="#linearGradient12071"
       id="linearGradient1884"
       gradientUnits="userSpaceOnUse"
       gradientTransform="matrix(0.980472,0,0,0.461806,23.89003,23.47875)"
       x1="14.217941"
       y1="6.8795347"
       x2="17.859085"
       y2="3.9566603" />
    <linearGradient
       inkscape:collect="always"
       xlink:href="#linearGradient12071"
       id="linearGradient1887"
       gradientUnits="userSpaceOnUse"
       gradientTransform="matrix(0.980472,0,0,0.490236,34.67523,22.83397)"
       x1="11.500000"
       y1="20.579729"
       x2="11.779029"
       y2="14.259961" />
    <radialGradient
       r="19.967958"
       fy="12.592707"
       fx="20.935379"
       cy="12.592707"
       cx="20.935379"
       gradientTransform="matrix(-0.618549,1.369740e-2,-1.766555e-2,-0.798198,22.46266,17.62692)"
       gradientUnits="userSpaceOnUse"
       id="radialGradient2277"
       xlink:href="#linearGradient2251"
       inkscape:collect="always" />
    <radialGradient
       r="17.142857"
       fy="40.000000"
       fx="23.857143"
       cy="40.000000"
       cx="23.857143"
       gradientTransform="matrix(1.000000,0.000000,0.000000,0.500000,1.713935e-14,20.00000)"
       gradientUnits="userSpaceOnUse"
       id="radialGradient2275"
       xlink:href="#linearGradient4126"
       inkscape:collect="always" />
    <linearGradient
       inkscape:collect="always"
       id="linearGradient4126">
      <stop
         style="stop-color:#000000;stop-opacity:1;"
         offset="0"
         id="stop4128" />
      <stop
         style="stop-color:#000000;stop-opacity:0;"
         offset="1"
         id="stop4130" />
    </linearGradient>
    <radialGradient
       r="19.967958"
       fy="12.592707"
       fx="20.935379"
       cy="12.592707"
       cx="20.935379"
       gradientTransform="matrix(-0.618549,1.369740e-2,-1.766555e-2,-0.798198,22.46266,17.62692)"
       gradientUnits="userSpaceOnUse"
       id="radialGradient1552"
       xlink:href="#linearGradient2251"
       inkscape:collect="always" />
    <radialGradient
       r="17.142857"
       fy="40.000000"
       fx="23.857143"
       cy="40.000000"
       cx="23.857143"
       gradientTransform="matrix(1.000000,0.000000,0.000000,0.500000,1.713935e-14,20.00000)"
       gradientUnits="userSpaceOnUse"
       id="radialGradient1550"
       xlink:href="#linearGradient4126"
       inkscape:collect="always" />
    <radialGradient
       gradientUnits="userSpaceOnUse"
       gradientTransform="matrix(-1.262871,2.796553e-2,-3.606716e-2,-1.629656,47.36662,36.49787)"
       r="19.967958"
       fy="12.592707"
       fx="20.935379"
       cy="12.592707"
       cx="20.935379"
       id="radialGradient1548"
       xlink:href="#linearGradient2251"
       inkscape:collect="always" />
    <radialGradient
       inkscape:collect="always"
       xlink:href="#linearGradient4126"
       id="radialGradient1546"
       gradientUnits="userSpaceOnUse"
       gradientTransform="matrix(1.000000,0.000000,0.000000,0.500000,1.635742e-14,20.00000)"
       cx="23.857143"
       cy="40.000000"
       fx="23.857143"
       fy="40.000000"
       r="17.142857" />
    <radialGradient
       r="19.967958"
       fy="12.592707"
       fx="20.935379"
       cy="12.592707"
       cx="20.935379"
       gradientTransform="matrix(-0.618549,1.369740e-2,-1.766555e-2,-0.798198,22.46266,17.62692)"
       gradientUnits="userSpaceOnUse"
       id="radialGradient2471"
       xlink:href="#linearGradient2251"
       inkscape:collect="always" />
    <radialGradient
       r="17.142857"
       fy="40.000000"
       fx="23.857143"
       cy="40.000000"
       cx="23.857143"
       gradientTransform="matrix(1.000000,0.000000,0.000000,0.500000,1.713935e-14,20.00000)"
       gradientUnits="userSpaceOnUse"
       id="radialGradient2469"
       xlink:href="#linearGradient4126"
       inkscape:collect="always" />
    <radialGradient
       inkscape:collect="always"
       xlink:href="#linearGradient4126"
       id="radialGradient2486"
       gradientUnits="userSpaceOnUse"
       gradientTransform="matrix(1,0,0,0.5,1.800409e-14,20)"
       cx="23.857143"
       cy="40.000000"
       fx="23.857143"
       fy="40.000000"
       r="17.142857" />
    <radialGradient
       inkscape:collect="always"
       xlink:href="#linearGradient2245"
       id="radialGradient2488"
       gradientUnits="userSpaceOnUse"
       gradientTransform="matrix(-1.262871,2.796553e-2,-3.606716e-2,-1.629656,47.36662,36.49787)"
       cx="20.935379"
       cy="12.592707"
       fx="20.935379"
       fy="12.592707"
       r="19.967958" />
    <radialGradient
       r="19.967958"
       fy="12.592707"
       fx="20.935379"
       cy="12.592707"
       cx="20.935379"
       gradientTransform="matrix(-1.262871,2.796553e-2,-3.606716e-2,-1.629656,98.36284,36.48828)"
       gradientUnits="userSpaceOnUse"
       id="radialGradient1321"
       xlink:href="#linearGradient2251"
       inkscape:collect="always" />
    <radialGradient
       r="19.967958"
       fy="12.592707"
       fx="20.935379"
       cy="12.592707"
       cx="20.935379"
       gradientTransform="matrix(-0.618549,1.369740e-2,-1.766555e-2,-0.798198,22.46266,17.62692)"
       gradientUnits="userSpaceOnUse"
       id="radialGradient1532"
       xlink:href="#linearGradient2251"
       inkscape:collect="always" />
    <radialGradient
       r="17.142857"
       fy="40.000000"
       fx="23.857143"
       cy="40.000000"
       cx="23.857143"
       gradientTransform="matrix(1.000000,0.000000,0.000000,0.500000,1.713935e-14,20.00000)"
       gradientUnits="userSpaceOnUse"
       id="radialGradient1530"
       xlink:href="#linearGradient4126"
       inkscape:collect="always" />
    <radialGradient
       gradientUnits="userSpaceOnUse"
       gradientTransform="matrix(-1.262871,2.796553e-2,-3.606716e-2,-1.629656,47.36662,36.49787)"
       r="19.967958"
       fy="12.592707"
       fx="20.935379"
       cy="12.592707"
       cx="20.935379"
       id="radialGradient2257"
       xlink:href="#linearGradient2245"
       inkscape:collect="always" />
    <radialGradient
       inkscape:collect="always"
       xlink:href="#linearGradient4126"
       id="radialGradient7449"
       gradientUnits="userSpaceOnUse"
       gradientTransform="matrix(1,0,0,0.5,1.808433e-14,20)"
       cx="23.857143"
       cy="40.000000"
       fx="23.857143"
       fy="40.000000"
       r="17.142857" />
  </defs>
  <sodipodi:namedview
     stroke="#ef2929"
     fill="#eeeeec"
     id="base"
     pagecolor="#ffffff"
     bordercolor="#666666"
     borderopacity="0.25490196"
     inkscape:pageopacity="0.0"
     inkscape:pageshadow="2"
     inkscape:zoom="4.9497475"
     inkscape:cx="25.188307"
     inkscape:cy="35.917693"
     inkscape:current-layer="layer1"
     showgrid="false"
     inkscape:grid-bbox="true"
     inkscape:document-units="px"
     inkscape:showpageshadow="false"
     inkscape:window-width="907"
     inkscape:window-height="720"
     inkscape:window-x="335"
     inkscape:window-y="25"
     showguides="true"
     inkscape:guide-bbox="true" />
  <metadata
     id="metadata4">
    <rdf:RDF>
      <cc:Work
         rdf:about="">
        <dc:format>image/svg+xml</dc:format>
        <dc:type
           rdf:resource="http://purl.org/dc/dcmitype/StillImage" />
        <dc:creator>
          <cc:Agent>
            <dc:title>Jakub Steiner</dc:title>
          </cc:Agent>
        </dc:creator>
        <dc:source>http://jimmac.musichall.cz</dc:source>
        <cc:license
           rdf:resource="http://creativecommons.org/licenses/by-sa/2.0/" />
        <dc:title>Wi-Fi network</dc:title>
      </cc:Work>
      <cc:License
         rdf:about="http://creativecommons.org/licenses/by-sa/2.0/">
        <cc:permits
           rdf:resource="http://web.resource.org/cc/Reproduction" />
        <cc:permits
           rdf:resource="http://web.resource.org/cc/Distribution" />
        <cc:requires
           rdf:resource="http://web.resource.org/cc/Notice" />
        <cc:requires
           rdf:resource="http://web.resource.org/cc/Attribution" />
        <cc:permits
           rdf:resource="http://web.resource.org/cc/DerivativeWorks" />
        <cc:requires
           rdf:resource="http://web.resource.org/cc/ShareAlike" />
      </cc:License>
    </rdf:RDF>
  </metadata>
  <g
     id="layer1"
     inkscape:label="Layer 1"
     inkscape:groupmode="layer">
    <path
       sodipodi:type="arc"
       style="opacity:0.40641710;color:#000000;fill:url(#radialGradient1348);fill-opacity:1.0000000;fill-rule:evenodd;stroke:none;stroke-width:2.8141584;stroke-linecap:butt;stroke-linejoin:miter;marker:none;marker-start:none;marker-mid:none;marker-end:none;stroke-miterlimit:10.000000;stroke-dasharray:none;stroke-dashoffset:0.0000000;stroke-opacity:1.0000000;visibility:visible;display:inline;overflow:visible"
       id="path11530"
       sodipodi:cx="30.203562"
       sodipodi:cy="44.565483"
       sodipodi:rx="6.5659914"
       sodipodi:ry="2.2223356"
       d="M 36.769553 44.565483 A 6.5659914 2.2223356 0 1 1  23.637570,44.565483 A 6.5659914 2.2223356 0 1 1  36.769553 44.565483 z"
       transform="matrix(2.460049,0.000000,0.000000,2.460049,-49.40946,-67.96374)" />
    <rect
       ry="5.4548240"
       rx="5.4548240"
       y="3.5233452"
       x="4.4147282"
       height="40.061924"
       width="40.061924"
       id="rect11518"
       style="opacity:1.0000000;color:#000000;fill:url(#radialGradient1366);fill-opacity:1.0000000;fill-rule:evenodd;stroke:#4e9a16;stroke-width:1.0000000;stroke-linecap:butt;stroke-linejoin:bevel;marker:none;marker-start:none;marker-mid:none;marker-end:none;stroke-miterlimit:10.000000;stroke-dasharray:none;stroke-dashoffset:0.0000000;stroke-opacity:1;visibility:visible;display:inline;overflow:visible" />
    <rect
       style="opacity:1.0000000;color:#000000;fill:none;fill-opacity:1.0000000;fill-rule:evenodd;stroke:#ffffff;stroke-width:0.99999976;stroke-linecap:butt;stroke-linejoin:bevel;marker:none;marker-start:none;marker-mid:none;marker-end:none;stroke-miterlimit:10.000000;stroke-dasharray:none;stroke-dashoffset:0.0000000;stroke-opacity:1.0000000;visibility:visible;display:inline;overflow:visible"
       id="rect11528"
       width="37.696587"
       height="37.696587"
       x="5.5973887"
       y="4.7060070"
       rx="4.2426391"
       ry="4.2426391" />
    <g
       inkscape:label="Layer 1"
       id="g1535"
       transform="matrix(0.714286,0,0,0.714286,7.854444,6.850283)">
      <path
         id="path1537"
         d="M 23.65625,3.5625 C 22.820444,3.5783981 21.99444,3.6630372 21.1875,3.78125 C 21.106809,3.7930718 21.017867,3.7996902 20.9375,3.8125 C 20.897317,3.8189049 20.883851,3.8370993 20.84375,3.84375 C 20.563029,3.8903032 20.276539,3.9415587 20,4 C 19.960496,4.0083491 19.914415,4.0226615 19.875,4.03125 C 19.323162,4.1514845 18.783312,4.2715127 18.25,4.4375 C 18.173816,4.4612134 18.107031,4.5066284 18.03125,4.53125 C 17.083952,4.8390081 16.158744,5.2133246 15.28125,5.65625 C 15.211053,5.6916855 15.132207,5.7137426 15.0625,5.75 C 14.644242,5.967536 14.243568,6.2224283 13.84375,6.46875 C 13.738247,6.5337542 13.635409,6.5893019 13.53125,6.65625 C 12.346272,7.4161578 11.272333,8.2902068 10.28125,9.28125 C 10.253721,9.3087801 10.214865,9.3160563 10.1875,9.34375 C 10.018576,9.514353 9.8813197,9.6982803 9.71875,9.875 C 9.6923884,9.9036584 9.6511916,9.9086836 9.625,9.9375 C 7.8113758,11.928736 6.4296199,14.292562 5.5625,16.90625 C 5.5374267,16.981827 5.4929183,17.049017 5.46875,17.125 C 4.8766261,18.986592 4.5625002,20.974352 4.5625,23.03125 C 4.5625,25.04617 4.8683781,26.984075 5.4375,28.8125 C 5.4402771,28.821469 5.4347103,28.834787 5.4375,28.84375 C 5.4466079,28.872861 5.4595092,28.908448 5.46875,28.9375 C 5.4929183,29.013483 5.5374267,29.080673 5.5625,29.15625 C 6.2520171,31.234605 7.2573892,33.173123 8.5625,34.875 C 8.5664497,34.880161 8.5897953,34.869843 8.59375,34.875 C 9.7302477,36.35395 11.054614,37.681285 12.5625,38.78125 C 12.568799,38.785857 12.587446,38.776651 12.59375,38.78125 C 13.439354,39.396547 14.340577,39.962684 15.28125,40.4375 C 15.351447,40.472935 15.42932,40.496643 15.5,40.53125 C 16.418879,40.981124 17.38197,41.353922 18.375,41.65625 C 18.451384,41.679507 18.516972,41.727661 18.59375,41.75 C 19.323169,41.962213 20.081794,42.123641 20.84375,42.25 C 20.923953,42.263301 20.98197,42.268933 21.0625,42.28125 C 22.028894,42.429043 23.023748,42.5 24.03125,42.5 C 25.038752,42.5 26.033606,42.429043 27,42.28125 C 27.08053,42.268933 27.169797,42.263301 27.25,42.25 C 27.490618,42.210097 27.73119,42.173651 27.96875,42.125 C 28.008342,42.116891 28.022996,42.102099 28.0625,42.09375 C 28.260028,42.052006 28.460975,42.016439 28.65625,41.96875 C 28.929623,41.901982 29.200028,41.828187 29.46875,41.75 C 29.545528,41.727661 29.642366,41.679507 29.71875,41.65625 C 30.711739,41.35391 31.674909,40.981142 32.59375,40.53125 C 32.66443,40.496643 32.711053,40.472935 32.78125,40.4375 C 35.09774,39.26813 37.17198,37.64073 38.84375,35.6875 C 38.919743,35.59872 38.988087,35.527651 39.0625,35.4375 C 39.211319,35.25719 39.35763,35.060667 39.5,34.875 C 39.547459,34.813114 39.578271,34.749969 39.625,34.6875 C 39.671727,34.625029 39.735258,34.563048 39.78125,34.5 C 39.827243,34.436955 39.860999,34.376115 39.90625,34.3125 C 39.951499,34.248883 39.986749,34.189181 40.03125,34.125 C 40.053501,34.092911 40.102937,34.063479 40.125,34.03125 C 40.147062,33.99902 40.165627,33.969869 40.1875,33.9375 C 40.209374,33.905133 40.228316,33.845005 40.25,33.8125 C 40.271683,33.779993 40.291008,33.751394 40.3125,33.71875 C 40.333993,33.686107 40.353698,33.657779 40.375,33.625 C 40.396301,33.59222 40.416391,33.564166 40.4375,33.53125 C 40.458609,33.498335 40.479084,33.47055 40.5,33.4375 C 40.520915,33.404449 40.541778,33.376935 40.5625,33.34375 C 40.603945,33.277383 40.646836,33.191899 40.6875,33.125 C 40.707831,33.091549 40.729865,33.064832 40.75,33.03125 C 40.770136,32.997669 40.792561,32.971212 40.8125,32.9375 C 40.832438,32.903787 40.85526,32.877593 40.875,32.84375 C 40.914482,32.776066 40.930065,32.693199 40.96875,32.625 C 40.988092,32.590899 41.012109,32.565479 41.03125,32.53125 C 41.050392,32.497023 41.074809,32.440604 41.09375,32.40625 C 41.11269,32.371895 41.137512,32.346981 41.15625,32.3125 C 41.174989,32.27802 41.200213,32.253355 41.21875,32.21875 C 41.237286,32.184143 41.231668,32.159731 41.25,32.125 C 41.268333,32.09027 41.294371,32.034853 41.3125,32 C 41.330628,31.965145 41.357077,31.941228 41.375,31.90625 C 41.428771,31.801321 41.479339,31.69977 41.53125,31.59375 C 41.548553,31.558409 41.576655,31.504211 41.59375,31.46875 C 41.610845,31.43329 41.608114,31.410579 41.625,31.375 C 41.641885,31.33942 41.670824,31.285698 41.6875,31.25 C 41.720853,31.178607 41.748742,31.134361 41.78125,31.0625 C 41.797504,31.02657 41.827708,30.973546 41.84375,30.9375 C 41.859791,30.901452 41.859172,30.879912 41.875,30.84375 C 41.890829,30.807589 41.921885,30.755025 41.9375,30.71875 C 41.953114,30.682473 41.95335,30.66139 41.96875,30.625 C 41.98415,30.588612 42.016065,30.536501 42.03125,30.5 C 42.046434,30.463498 42.047532,30.442864 42.0625,30.40625 C 42.092437,30.333025 42.127183,30.261167 42.15625,30.1875 C 42.170783,30.150665 42.173186,30.099444 42.1875,30.0625 C 42.201815,30.025557 42.235905,30.005801 42.25,29.96875 C 42.264095,29.931697 42.267376,29.88091 42.28125,29.84375 C 42.295125,29.806591 42.298846,29.756016 42.3125,29.71875 C 42.326153,29.681483 42.361568,29.662373 42.375,29.625 C 42.388432,29.587628 42.393041,29.537477 42.40625,29.5 C 42.432668,29.425043 42.443228,29.356624 42.46875,29.28125 C 42.481512,29.243565 42.518713,29.194038 42.53125,29.15625 C 42.543786,29.11846 42.55019,29.100392 42.5625,29.0625 C 42.611743,28.910939 42.641902,28.746913 42.6875,28.59375 C 42.698899,28.555458 42.707581,28.50714 42.71875,28.46875 C 42.763428,28.315194 42.834031,28.186343 42.875,28.03125 C 42.895484,27.953703 42.886703,27.859172 42.90625,27.78125 C 42.916023,27.742288 42.927962,27.695305 42.9375,27.65625 C 42.956577,27.578143 42.98187,27.515972 43,27.4375 C 43.009065,27.398262 43.022423,27.351828 43.03125,27.3125 C 43.048904,27.233848 43.077052,27.172758 43.09375,27.09375 C 43.102099,27.054244 43.085641,27.008343 43.09375,26.96875 C 43.134294,26.770792 43.184271,26.575092 43.21875,26.375 C 43.225645,26.33498 43.24335,26.290103 43.25,26.25 C 43.256651,26.209899 43.243595,26.165183 43.25,26.125 C 43.256405,26.084815 43.275092,26.040266 43.28125,26 C 43.312041,25.798676 43.350434,25.609548 43.375,25.40625 C 43.379913,25.365589 43.370338,25.321988 43.375,25.28125 C 43.384324,25.199778 43.397937,25.113024 43.40625,25.03125 C 43.414563,24.949476 43.430204,24.863319 43.4375,24.78125 C 43.441148,24.740214 43.434107,24.697359 43.4375,24.65625 C 43.444286,24.574036 43.462991,24.488749 43.46875,24.40625 C 43.47163,24.364999 43.466128,24.322571 43.46875,24.28125 C 43.473994,24.19861 43.464542,24.114165 43.46875,24.03125 C 43.472958,23.948335 43.496835,23.864435 43.5,23.78125 C 43.501583,23.739658 43.498679,23.697909 43.5,23.65625 C 43.501321,23.61459 43.498942,23.572976 43.5,23.53125 C 43.502117,23.447802 43.498938,23.364955 43.5,23.28125 C 43.500531,23.239396 43.499734,23.198167 43.5,23.15625 C 43.500266,23.114335 43.5,23.073228 43.5,23.03125 C 43.5,22.779385 43.509496,22.530805 43.5,22.28125 C 43.496835,22.198065 43.472958,22.114165 43.46875,22.03125 C 43.462439,21.906872 43.477389,21.780004 43.46875,21.65625 C 43.454352,21.450002 43.427033,21.266934 43.40625,21.0625 C 43.397937,20.980726 43.384324,20.893972 43.375,20.8125 C 43.365677,20.731025 43.354077,20.643668 43.34375,20.5625 C 43.307603,20.278425 43.26702,19.998878 43.21875,19.71875 C 43.211855,19.67873 43.19464,19.633686 43.1875,19.59375 C 43.18036,19.553815 43.194883,19.5086 43.1875,19.46875 C 43.180117,19.428898 43.163876,19.383516 43.15625,19.34375 C 43.148624,19.303985 43.132868,19.289679 43.125,19.25 C 43.085662,19.051599 43.045323,18.852438 43,18.65625 C 42.972805,18.538542 42.935571,18.398132 42.90625,18.28125 C 42.886703,18.203328 42.895484,18.140047 42.875,18.0625 C 42.844275,17.946175 42.782815,17.834213 42.75,17.71875 C 42.717183,17.603291 42.691135,17.489576 42.65625,17.375 C 42.59811,17.184033 42.532556,17.000935 42.46875,16.8125 C 42.430465,16.699444 42.415296,16.580866 42.375,16.46875 C 42.361568,16.431377 42.326153,16.381017 42.3125,16.34375 C 42.257884,16.194687 42.214384,16.053584 42.15625,15.90625 C 42.127183,15.832583 42.092437,15.760725 42.0625,15.6875 C 41.987658,15.504438 41.923959,15.30523 41.84375,15.125 C 41.827709,15.088952 41.797503,15.067182 41.78125,15.03125 C 41.748742,14.959389 41.720853,14.883893 41.6875,14.8125 C 41.670824,14.776802 41.641885,14.75433 41.625,14.71875 C 41.608114,14.683171 41.610845,14.62921 41.59375,14.59375 C 41.576655,14.558289 41.548553,14.535341 41.53125,14.5 C 41.479339,14.39398 41.428771,14.292429 41.375,14.1875 C 41.357077,14.152522 41.330628,14.097355 41.3125,14.0625 C 41.294371,14.027647 41.268333,14.00348 41.25,13.96875 C 41.231668,13.934019 41.237286,13.909607 41.21875,13.875 C 41.16314,13.771184 41.088677,13.665181 41.03125,13.5625 C 41.012109,13.528271 40.988092,13.502851 40.96875,13.46875 C 40.930065,13.400551 40.914482,13.317684 40.875,13.25 C 40.85526,13.216157 40.832438,13.189963 40.8125,13.15625 C 40.792561,13.122538 40.770136,13.096081 40.75,13.0625 C 40.70973,12.995335 40.666054,12.910386 40.625,12.84375 C 40.604472,12.810433 40.583222,12.783184 40.5625,12.75 C 40.541778,12.716815 40.520915,12.689301 40.5,12.65625 C 40.479084,12.6232 40.458609,12.595415 40.4375,12.5625 C 40.395283,12.496668 40.355485,12.409038 40.3125,12.34375 C 40.291007,12.311107 40.271684,12.282505 40.25,12.25 C 40.228317,12.217493 40.209373,12.188619 40.1875,12.15625 C 40.143752,12.091515 40.075753,12.032928 40.03125,11.96875 C 40.009,11.93666 39.991188,11.90695 39.96875,11.875 C 39.923872,11.811103 39.889373,11.750831 39.84375,11.6875 C 39.798129,11.624167 39.76511,11.56276 39.71875,11.5 C 39.695569,11.468621 39.648365,11.437484 39.625,11.40625 C 39.578273,11.343779 39.547457,11.280639 39.5,11.21875 C 39.472316,11.18265 39.434181,11.160901 39.40625,11.125 C 39.334522,11.032607 39.292094,10.934807 39.21875,10.84375 C 39.169852,10.783048 39.112108,10.716351 39.0625,10.65625 C 39.012894,10.596147 38.95656,10.528245 38.90625,10.46875 C 38.830782,10.379511 38.764534,10.306603 38.6875,10.21875 C 38.661823,10.189464 38.619599,10.15413 38.59375,10.125 C 38.516199,10.037614 38.454088,9.9609717 38.375,9.875 C 38.322277,9.8176832 38.272148,9.74418 38.21875,9.6875 C 38.085249,9.5458056 37.95015,9.4188949 37.8125,9.28125 C 37.729913,9.1986597 37.646552,9.1123537 37.5625,9.03125 C 37.534482,9.0042165 37.49693,8.9643667 37.46875,8.9375 C 37.440572,8.9106322 37.403339,8.9017002 37.375,8.875 C 37.34666,8.8483009 37.30975,8.8077808 37.28125,8.78125 C 36.454795,8.0118269 35.575594,7.3365 34.625,6.71875 C 34.59222,6.6974491 34.564166,6.6773585 34.53125,6.65625 C 34.469851,6.6167859 34.405618,6.5700405 34.34375,6.53125 C 34.333795,6.5250335 34.322468,6.506199 34.3125,6.5 C 33.914297,6.2513318 33.510507,6.0324963 33.09375,5.8125 C 33.059019,5.7941677 33.034855,5.768128 33,5.75 C 32.930293,5.7137426 32.851447,5.6916855 32.78125,5.65625 C 31.903792,5.2133068 31.009759,4.8390204 30.0625,4.53125 C 29.986719,4.5066284 29.888684,4.4612134 29.8125,4.4375 C 29.317302,4.2833628 28.823739,4.146003 28.3125,4.03125 C 28.273172,4.0224232 28.226917,4.0398382 28.1875,4.03125 C 28.029838,3.9968959 27.877809,3.936754 27.71875,3.90625 C 27.678984,3.8986243 27.633602,3.9136331 27.59375,3.90625 C 27.51405,3.8914832 27.455037,3.8575415 27.375,3.84375 C 27.29496,3.8299591 27.20537,3.8253093 27.125,3.8125 C 27.044633,3.7996902 26.955691,3.7930718 26.875,3.78125 C 26.834655,3.7753391 26.790425,3.7556627 26.75,3.75 C 26.709573,3.7443376 26.665506,3.7554134 26.625,3.75 C 26.584496,3.7445863 26.540582,3.7239138 26.5,3.71875 C 26.459416,3.7135864 26.446911,3.723663 26.40625,3.71875 C 26.36559,3.7138368 26.321986,3.6921618 26.28125,3.6875 C 26.199775,3.6781767 26.113027,3.6958129 26.03125,3.6875 C 25.990363,3.6833434 25.947211,3.6601528 25.90625,3.65625 C 25.865287,3.6523473 25.822286,3.6598981 25.78125,3.65625 C 25.740216,3.6526018 25.697357,3.6283928 25.65625,3.625 C 25.532924,3.6148219 25.405214,3.6328652 25.28125,3.625 C 25.23993,3.6223782 25.197639,3.5961133 25.15625,3.59375 C 24.783732,3.5724816 24.409063,3.5625 24.03125,3.5625 C 23.905312,3.5625 23.781621,3.5601153 23.65625,3.5625 z M 23.59375,8.46875 C 23.732488,8.4648095 23.86022,8.46875 24,8.46875 C 26.124482,8.46875 28.146912,8.9026962 29.96875,9.71875 C 29.97953,9.7235787 29.989234,9.745146 30,9.75 C 30.188409,9.8349458 30.378445,9.9386565 30.5625,10.03125 C 30.588794,10.044478 30.598798,10.049119 30.625,10.0625 C 30.693126,10.097291 30.776248,10.120427 30.84375,10.15625 C 30.880097,10.175539 30.901336,10.199164 30.9375,10.21875 C 30.945728,10.223262 30.960531,10.214223 30.96875,10.21875 C 31.091842,10.285638 31.22283,10.367213 31.34375,10.4375 C 31.384317,10.46108 31.428433,10.476042 31.46875,10.5 C 31.480789,10.507238 31.487983,10.523979 31.5,10.53125 C 31.550318,10.561315 31.575077,10.59435 31.625,10.625 C 31.65681,10.644739 31.6871,10.66753 31.71875,10.6875 C 31.743612,10.70297 31.756488,10.703135 31.78125,10.71875 C 31.789138,10.723779 31.804623,10.713707 31.8125,10.71875 C 31.895849,10.771473 31.980305,10.82065 32.0625,10.875 C 32.072258,10.881452 32.084008,10.899775 32.09375,10.90625 C 32.142459,10.938626 32.170455,10.967058 32.21875,11 C 32.237997,11.013225 32.262068,11.017939 32.28125,11.03125 C 32.290513,11.037618 32.303253,11.056111 32.3125,11.0625 C 32.408672,11.128946 32.499274,11.181329 32.59375,11.25 C 32.606304,11.259178 32.612476,11.272034 32.625,11.28125 L 24.5,19.40625 L 15.96875,10.90625 C 15.978427,10.899709 15.990307,10.881518 16,10.875 C 16.008355,10.869495 16.022883,10.880489 16.03125,10.875 C 16.169551,10.782363 16.295919,10.6817 16.4375,10.59375 C 16.446049,10.588534 16.46019,10.598949 16.46875,10.59375 C 16.518487,10.562978 16.574869,10.530185 16.625,10.5 C 16.737139,10.433734 16.854793,10.375851 16.96875,10.3125 C 16.998086,10.295931 17.033039,10.26637 17.0625,10.25 C 17.093048,10.233369 17.125576,10.20392 17.15625,10.1875 C 17.181986,10.173454 17.19292,10.170144 17.21875,10.15625 C 17.284099,10.121639 17.371588,10.096148 17.4375,10.0625 C 17.46748,10.046979 17.501149,10.015317 17.53125,10 C 17.562422,9.9844349 17.593706,9.9528487 17.625,9.9375 C 17.632823,9.9336628 17.648419,9.9413236 17.65625,9.9375 C 17.698368,9.9165979 17.738903,9.895503 17.78125,9.875 C 17.891416,9.8224225 17.982122,9.7686277 18.09375,9.71875 C 18.147385,9.6943818 18.196021,9.6799807 18.25,9.65625 C 18.490523,9.5518784 18.72183,9.4665568 18.96875,9.375 C 19.051057,9.3444811 19.135758,9.3103119 19.21875,9.28125 C 19.301742,9.2521881 19.385085,9.2150883 19.46875,9.1875 C 19.70006,9.1112264 19.951226,9.0335214 20.1875,8.96875 C 21.275869,8.6703883 22.415833,8.502206 23.59375,8.46875 z M 12.3125,14.46875 L 20.90625,23.03125 L 12.34375,31.59375 C 10.581257,29.18 9.53125,26.217021 9.53125,23 C 9.53125,19.806991 10.573865,16.872802 12.3125,14.46875 z M 36.15625,14.96875 C 36.172502,14.993013 36.171391,15.006884 36.1875,15.03125 C 36.196648,15.045195 36.209648,15.048524 36.21875,15.0625 C 36.226769,15.074708 36.242017,15.081516 36.25,15.09375 C 36.253773,15.099574 36.246235,15.119171 36.25,15.125 C 36.265127,15.148273 36.297504,15.164136 36.3125,15.1875 C 36.324339,15.205945 36.331992,15.231498 36.34375,15.25 C 36.352659,15.264107 36.366138,15.267112 36.375,15.28125 C 36.399991,15.320785 36.412882,15.36646 36.4375,15.40625 C 36.452886,15.431119 36.45351,15.443783 36.46875,15.46875 C 36.477416,15.483017 36.491381,15.485702 36.5,15.5 C 36.509343,15.515388 36.521962,15.547075 36.53125,15.5625 C 36.542374,15.581139 36.551456,15.60631 36.5625,15.625 C 36.577445,15.650163 36.610204,15.69349 36.625,15.71875 C 36.63112,15.729257 36.650155,15.739477 36.65625,15.75 C 36.662133,15.760127 36.650391,15.771107 36.65625,15.78125 C 36.685545,15.831963 36.721304,15.886405 36.75,15.9375 C 36.756365,15.948878 36.774915,15.957354 36.78125,15.96875 C 36.786953,15.978992 36.775571,15.989743 36.78125,16 C 36.798997,16.032053 36.82624,16.061551 36.84375,16.09375 C 36.854256,16.11307 36.864579,16.136878 36.875,16.15625 C 36.882918,16.170983 36.898381,16.172738 36.90625,16.1875 C 36.939024,16.248784 36.968085,16.313198 37,16.375 C 37.003109,16.38102 36.9969,16.400226 37,16.40625 C 37.004676,16.415362 36.995343,16.428377 37,16.4375 C 37.008024,16.453186 37.023282,16.453032 37.03125,16.46875 C 37.043351,16.492655 37.050527,16.507272 37.0625,16.53125 C 37.079624,16.565389 37.108138,16.590709 37.125,16.625 C 37.128837,16.632823 37.121176,16.648419 37.125,16.65625 C 37.134047,16.674733 37.14728,16.700223 37.15625,16.71875 C 37.165724,16.738375 37.178111,16.761578 37.1875,16.78125 C 37.200158,16.807805 37.20625,16.848357 37.21875,16.875 C 37.224311,16.886843 37.244469,16.89439 37.25,16.90625 C 37.254962,16.916928 37.245063,16.926808 37.25,16.9375 C 37.28306,17.008726 37.311811,17.053173 37.34375,17.125 C 37.355775,17.151904 37.363135,17.16051 37.375,17.1875 C 37.383785,17.207498 37.397552,17.229956 37.40625,17.25 C 37.421529,17.285164 37.422493,17.308443 37.4375,17.34375 C 37.442645,17.355814 37.463637,17.362919 37.46875,17.375 C 37.475638,17.391316 37.46192,17.421154 37.46875,17.4375 C 37.477686,17.458864 37.491163,17.478586 37.5,17.5 C 37.51465,17.535492 37.516875,17.558119 37.53125,17.59375 C 37.536183,17.605922 37.557599,17.612812 37.5625,17.625 C 37.569096,17.641465 37.555963,17.671005 37.5625,17.6875 C 37.57106,17.709053 37.58529,17.728398 37.59375,17.75 C 37.607764,17.785812 37.642514,17.807801 37.65625,17.84375 C 37.659389,17.851939 37.653126,17.866804 37.65625,17.875 C 37.663612,17.894374 37.680219,17.918087 37.6875,17.9375 C 37.694761,17.956828 37.680319,17.980634 37.6875,18 C 37.691621,18.011113 37.714656,18.020125 37.71875,18.03125 C 37.72178,18.039491 37.715734,18.054252 37.71875,18.0625 C 37.723826,18.076426 37.713715,18.079804 37.71875,18.09375 C 37.723252,18.106132 37.745531,18.112602 37.75,18.125 C 37.756002,18.141754 37.744059,18.170718 37.75,18.1875 C 37.757795,18.209421 37.773557,18.228031 37.78125,18.25 C 37.784186,18.258408 37.77833,18.272835 37.78125,18.28125 C 37.80072,18.337347 37.824954,18.381095 37.84375,18.4375 C 37.849652,18.455169 37.869164,18.482302 37.875,18.5 C 37.887064,18.536733 37.894473,18.55689 37.90625,18.59375 C 37.909429,18.603623 37.903092,18.615118 37.90625,18.625 C 37.912556,18.644864 37.931278,18.6676 37.9375,18.6875 C 37.944118,18.70854 37.962225,18.728919 37.96875,18.75 C 37.971381,18.758544 37.966135,18.772699 37.96875,18.78125 C 37.978661,18.813522 37.990309,18.842633 38,18.875 C 38.008546,18.903577 37.991626,18.90885 38,18.9375 C 38.006615,18.959948 38.024741,18.977507 38.03125,19 C 38.033726,19.00861 38.02879,19.022633 38.03125,19.03125 C 38.040584,19.063769 38.053388,19.092388 38.0625,19.125 C 38.070527,19.153795 38.085897,19.189884 38.09375,19.21875 C 38.096485,19.228813 38.091036,19.239928 38.09375,19.25 C 38.097633,19.264451 38.089911,19.266782 38.09375,19.28125 C 38.102501,19.314011 38.116473,19.342147 38.125,19.375 C 38.132503,19.404007 38.148923,19.439674 38.15625,19.46875 C 38.158804,19.478886 38.153717,19.489855 38.15625,19.5 C 38.161342,19.520368 38.182494,19.542098 38.1875,19.5625 C 38.192469,19.582828 38.182617,19.604638 38.1875,19.625 C 38.196877,19.663921 38.209689,19.679708 38.21875,19.71875 C 38.221121,19.728958 38.2164,19.739783 38.21875,19.75 C 38.22347,19.770511 38.245368,19.791956 38.25,19.8125 C 38.255665,19.837587 38.244465,19.881113 38.25,19.90625 C 38.256439,19.935665 38.274991,19.970519 38.28125,20 C 38.283436,20.010279 38.279085,20.020963 38.28125,20.03125 C 38.285383,20.050919 38.277197,20.074052 38.28125,20.09375 C 38.286022,20.116933 38.30784,20.133026 38.3125,20.15625 C 38.318399,20.185861 38.338033,20.220325 38.34375,20.25 C 38.34575,20.260348 38.341772,20.270894 38.34375,20.28125 C 38.347521,20.301048 38.34006,20.323924 38.34375,20.34375 C 38.3481,20.367087 38.370763,20.382873 38.375,20.40625 C 38.38203,20.444968 38.368279,20.492426 38.375,20.53125 C 38.376536,20.540104 38.37348,20.55364 38.375,20.5625 C 38.37858,20.583418 38.40276,20.604052 38.40625,20.625 C 38.409726,20.645882 38.402863,20.666587 38.40625,20.6875 C 38.407871,20.697489 38.404649,20.708754 38.40625,20.71875 C 38.415854,20.778724 38.428637,20.814784 38.4375,20.875 C 38.441476,20.901781 38.433671,20.94192 38.4375,20.96875 C 38.441746,20.998917 38.464691,21.032274 38.46875,21.0625 C 38.470178,21.073046 38.467345,21.083196 38.46875,21.09375 C 38.471414,21.113914 38.466169,21.136061 38.46875,21.15625 C 38.476493,21.216818 38.493009,21.282953 38.5,21.34375 C 38.503495,21.374149 38.496694,21.407045 38.5,21.4375 C 38.506612,21.49841 38.525398,21.563868 38.53125,21.625 C 38.534176,21.655566 38.528515,21.688129 38.53125,21.71875 C 38.532871,21.736933 38.529696,21.763046 38.53125,21.78125 C 38.532119,21.791469 38.530402,21.802275 38.53125,21.8125 C 38.534145,21.847324 38.559853,21.871352 38.5625,21.90625 C 38.564852,21.936978 38.560341,21.969219 38.5625,22 C 38.563286,22.011433 38.561741,22.01981 38.5625,22.03125 C 38.565594,22.077461 38.559842,22.109923 38.5625,22.15625 C 38.563039,22.165422 38.561978,22.178323 38.5625,22.1875 C 38.563638,22.208101 38.561448,22.229376 38.5625,22.25 C 38.565655,22.311872 38.591377,22.375428 38.59375,22.4375 C 38.594117,22.446721 38.593401,22.459525 38.59375,22.46875 C 38.594498,22.489452 38.59309,22.510526 38.59375,22.53125 C 38.594515,22.554343 38.593093,22.570627 38.59375,22.59375 C 38.594036,22.604123 38.593485,22.614622 38.59375,22.625 C 38.594654,22.659707 38.593092,22.683977 38.59375,22.71875 C 38.594346,22.749932 38.593352,22.78127 38.59375,22.8125 C 38.593996,22.831073 38.593574,22.856408 38.59375,22.875 C 38.593839,22.88542 38.593684,22.895825 38.59375,22.90625 C 38.593998,22.941131 38.59375,22.965055 38.59375,23 C 38.59375,23.031427 38.593948,23.062369 38.59375,23.09375 C 38.593641,23.112301 38.593932,23.137716 38.59375,23.15625 C 38.592979,23.2294 38.595594,23.30211 38.59375,23.375 C 38.59328,23.393464 38.594292,23.419053 38.59375,23.4375 C 38.592522,23.479108 38.595326,23.520979 38.59375,23.5625 C 38.590149,23.654508 38.567871,23.752201 38.5625,23.84375 C 38.560735,23.874739 38.564458,23.906562 38.5625,23.9375 C 38.561746,23.948922 38.563281,23.957336 38.5625,23.96875 C 38.561152,23.989364 38.563933,24.01066 38.5625,24.03125 C 38.557181,24.10493 38.537704,24.176635 38.53125,24.25 C 38.529684,24.268455 38.532884,24.294065 38.53125,24.3125 C 38.529144,24.335178 38.533463,24.352353 38.53125,24.375 C 38.5303,24.38523 38.532221,24.396026 38.53125,24.40625 C 38.527608,24.442814 38.503922,24.494767 38.5,24.53125 C 38.498092,24.549606 38.501976,24.575414 38.5,24.59375 C 38.497465,24.616303 38.502641,24.633729 38.5,24.65625 C 38.498861,24.666424 38.50116,24.677332 38.5,24.6875 C 38.492654,24.748929 38.476884,24.813812 38.46875,24.875 C 38.466366,24.892935 38.471201,24.919586 38.46875,24.9375 C 38.467423,24.947617 38.470097,24.95864 38.46875,24.96875 C 38.461057,25.024033 38.445831,25.069919 38.4375,25.125 C 38.427185,25.193196 38.417536,25.24462 38.40625,25.3125 C 38.401468,25.342591 38.411216,25.37622 38.40625,25.40625 C 38.403027,25.424994 38.378296,25.450031 38.375,25.46875 C 38.373472,25.477746 38.376545,25.49101 38.375,25.5 C 38.353193,25.622237 38.337415,25.722591 38.3125,25.84375 C 38.306626,25.873465 38.318554,25.90785 38.3125,25.9375 C 38.308589,25.956005 38.285233,25.98152 38.28125,26 C 38.273216,26.038485 38.258336,26.086626 38.25,26.125 C 38.240186,26.168533 38.228961,26.206615 38.21875,26.25 C 38.214753,26.267655 38.222811,26.294869 38.21875,26.3125 C 38.202849,26.378745 38.17307,26.434108 38.15625,26.5 C 38.151935,26.517532 38.160628,26.544993 38.15625,26.5625 C 38.150331,26.585271 38.131028,26.602272 38.125,26.625 C 38.122774,26.633739 38.127242,26.647517 38.125,26.65625 C 38.115742,26.6909 38.10326,26.746701 38.09375,26.78125 C 38.090649,26.792849 38.096878,26.800913 38.09375,26.8125 C 38.048714,26.974925 37.988035,27.121134 37.9375,27.28125 C 37.93225,27.298395 37.942811,27.326632 37.9375,27.34375 C 37.930366,27.366016 37.913489,27.38403 37.90625,27.40625 C 37.894587,27.443272 37.886949,27.463106 37.875,27.5 C 37.452779,28.768224 36.854451,29.940706 36.125,31.03125 L 28.125,23.03125 L 36.15625,14.96875 z M 24.5,26.625 L 32.59375,34.71875 C 30.179997,36.481244 27.217021,37.53125 24,37.53125 C 23.151464,37.53125 22.309137,37.482765 21.5,37.34375 C 21.488013,37.341691 21.480727,37.345839 21.46875,37.34375 C 21.271125,37.309287 21.069821,37.261073 20.875,37.21875 C 20.786445,37.199512 20.71295,37.177086 20.625,37.15625 C 20.60741,37.152083 20.580065,37.160481 20.5625,37.15625 C 20.492239,37.139327 20.444863,37.111684 20.375,37.09375 C 20.357534,37.089266 20.32994,37.098296 20.3125,37.09375 C 20.242738,37.075564 20.163103,37.019187 20.09375,37 C 20.084118,36.997335 20.072124,37.002684 20.0625,37 C 20.042519,36.994098 20.019945,37.005986 20,37 C 19.971175,36.991833 19.966252,36.977089 19.9375,36.96875 C 19.905154,36.958869 19.876001,36.947602 19.84375,36.9375 C 19.835146,36.934947 19.821097,36.940069 19.8125,36.9375 C 19.790193,36.930459 19.772261,36.913396 19.75,36.90625 C 19.732837,36.901041 19.704636,36.911521 19.6875,36.90625 C 19.65812,36.896678 19.623049,36.884754 19.59375,36.875 C 19.582368,36.871391 19.57387,36.847386 19.5625,36.84375 C 19.542827,36.83714 19.519636,36.850442 19.5,36.84375 C 19.480134,36.837316 19.457329,36.819017 19.4375,36.8125 C 19.405659,36.801476 19.375492,36.792489 19.34375,36.78125 C 19.335282,36.778392 19.320961,36.784124 19.3125,36.78125 C 19.291766,36.773858 19.270691,36.757483 19.25,36.75 C 19.193701,36.730609 19.118485,36.707557 19.0625,36.6875 C 19.041938,36.679744 19.020518,36.664096 19,36.65625 C 18.944173,36.635862 18.868006,36.614797 18.8125,36.59375 C 18.792114,36.585635 18.770341,36.570704 18.75,36.5625 C 18.73063,36.555019 18.70683,36.538811 18.6875,36.53125 C 18.679381,36.527933 18.664362,36.534581 18.65625,36.53125 C 18.604718,36.510088 18.55124,36.49048 18.5,36.46875 C 18.480802,36.460927 18.456657,36.445402 18.4375,36.4375 C 18.429454,36.434043 18.414289,36.440971 18.40625,36.4375 C 18.367971,36.421628 18.350614,36.391187 18.3125,36.375 C 18.272453,36.357365 18.227361,36.330481 18.1875,36.3125 C 18.154137,36.298001 18.126983,36.29599 18.09375,36.28125 C 18.065978,36.268424 18.027679,36.262993 18,36.25 C 17.973084,36.237865 17.964329,36.231043 17.9375,36.21875 C 17.866496,36.185033 17.789131,36.128557 17.71875,36.09375 C 17.709727,36.089288 17.696513,36.09823 17.6875,36.09375 C 17.579346,36.039987 17.481646,35.993796 17.375,35.9375 C 17.348042,35.92327 17.30811,35.92064 17.28125,35.90625 C 17.235054,35.882304 17.202155,35.836922 17.15625,35.8125 C 17.148628,35.808304 17.132614,35.816708 17.125,35.8125 C 17.088705,35.793126 17.067361,35.769671 17.03125,35.75 C 16.690101,35.558312 16.355174,35.341669 16.03125,35.125 L 24.5,26.625 z "
         style="opacity:1;fill:url(#radialGradient2257);fill-opacity:1;stroke:#a40000;stroke-width:0.99999982;stroke-linecap:round;stroke-linejoin:miter;stroke-miterlimit:4;stroke-dasharray:none;stroke-dashoffset:0;stroke-opacity:1" />
      <path
         sodipodi:type="arc"
         style="opacity:0.52688168;color:#000000;fill:url(#radialGradient7449);fill-opacity:1;fill-rule:nonzero;stroke:none;stroke-width:1;stroke-linecap:butt;stroke-linejoin:miter;marker:none;marker-start:none;marker-mid:none;marker-end:none;stroke-miterlimit:10;stroke-dasharray:none;stroke-dashoffset:0;stroke-opacity:1;visibility:visible;display:block;overflow:visible"
         id="path1539"
         sodipodi:cx="23.857143"
         sodipodi:cy="40"
         sodipodi:rx="17.142857"
         sodipodi:ry="8.5714283"
         d="M 41 40 A 17.142857 8.5714283 0 1 1  6.7142868,40 A 17.142857 8.5714283 0 1 1  41 40 z"
         transform="matrix(1.225,0,0,0.408334,-5.221224,25.17622)" />
      <path
         transform="matrix(1.007576,0,0,1.019157,-4.568194,-4.726048)"
         d="M 46.714287 27.214285 A 18.357143 18.142857 0 1 1  10,27.214285 A 18.357143 18.142857 0 1 1  46.714287 27.214285 z"
         sodipodi:ry="18.142857"
         sodipodi:rx="18.357143"
         sodipodi:cy="27.214285"
         sodipodi:cx="28.357143"
         id="path1541"
         style="opacity:0.55376371;fill:none;fill-opacity:1;stroke:#ffffff;stroke-width:0.986826;stroke-linecap:round;stroke-linejoin:miter;stroke-miterlimit:4;stroke-dasharray:none;stroke-dashoffset:0;stroke-opacity:1"
         sodipodi:type="arc" />
      <path
         id="path1543"
         d="M 23.40625,3.15625 C 15.101662,3.5006791 8.4385234,8.3289381 6.125,14.65625 C 6.1217473,14.658818 6.0975443,14.683925 6.09375,14.6875 C 6.0894317,14.692073 6.0673246,14.713189 6.0625,14.71875 C 6.0465599,14.738364 6.020022,14.784268 6,14.8125 C 5.6170156,15.371307 4.6283478,17.290179 4.4375,19.78125 C 4.437872,19.815476 4.4345531,19.873813 4.4375,19.90625 C 4.4437613,19.962246 4.4550098,20.042989 4.46875,20.09375 C 4.4729708,20.108045 4.4951968,20.142365 4.5,20.15625 C 5.0548776,21.647593 9.0130235,20.749325 9.75,21.40625 C 9.781073,21.437719 9.8271099,21.492647 9.84375,21.53125 C 9.8452627,21.535186 9.84239,21.558488 9.84375,21.5625 C 9.8448009,21.566667 9.8428555,21.589504 9.84375,21.59375 C 9.8452235,21.6024 9.8741652,21.616028 9.875,21.625 C 9.8596453,19.797811 11.832403,15.95945 12.28125,15.15625 L 20.9375,23.5 C 20.93751,23.486625 20.936735,23.450472 20.9375,23.4375 C 20.938069,23.431114 20.936746,23.412537 20.9375,23.40625 C 20.939376,23.393871 20.934899,23.355742 20.9375,23.34375 C 20.938979,23.33785 20.967093,23.318306 20.96875,23.3125 C 20.970583,23.306788 20.966743,23.286869 20.96875,23.28125 C 20.975291,23.26467 20.991929,23.234515 21,23.21875 C 21.008572,23.203252 21.021203,23.170962 21.03125,23.15625 C 21.03476,23.151432 21.058831,23.129733 21.0625,23.125 C 21.21942,22.934381 21.50583,22.796922 21.875,22.71875 C 21.885729,22.72406 21.89521,22.71361 21.90625,22.71875 C 21.915349,22.716893 21.928308,22.720558 21.9375,22.71875 C 23.15205,23.267432 26.178053,22.857683 27.1875,23.46875 C 27.22334,23.491991 27.282396,23.536279 27.3125,23.5625 C 27.319653,23.56925 27.336977,23.586803 27.34375,23.59375 C 27.350586,23.600411 27.373087,23.622675 27.375,23.625 C 27.378458,23.628309 27.403442,23.653464 27.40625,23.65625 C 27.405842,23.659538 27.406362,23.68472 27.40625,23.6875 C 27.409789,23.690766 27.434673,23.715975 27.4375,23.71875 C 27.443553,23.730573 27.460933,23.765035 27.46875,23.78125 C 27.46851,23.784448 27.468821,23.809742 27.46875,23.8125 C 27.474514,23.823434 27.494415,23.863971 27.5,23.875 C 27.499871,23.878139 27.500044,23.903506 27.5,23.90625 C 27.500022,23.917121 27.500164,23.95778 27.5,23.96875 C 27.500195,23.975336 27.499995,23.993313 27.5,24 L 35.96875,15.84375 C 37.328257,17.90416 38.053861,20.108192 38.0625,22 L 37.5,27 C 37.49907,27.014509 37.500195,27.048467 37.5,27.0625 C 37.500169,27.076298 37.499114,27.111668 37.5,27.125 C 37.501241,27.138102 37.498059,27.174852 37.5,27.1875 C 37.501144,27.193712 37.529935,27.21265 37.53125,27.21875 C 37.532735,27.22474 37.529596,27.24412 37.53125,27.25 C 37.538533,27.273086 37.552602,27.322368 37.5625,27.34375 C 37.570403,27.359474 37.584435,27.391448 37.59375,27.40625 C 37.600268,27.415916 37.617875,27.428231 37.625,27.4375 C 37.628712,27.442037 37.65239,27.46431 37.65625,27.46875 C 37.664264,27.477437 37.678908,27.491693 37.6875,27.5 C 38.57516,28.312016 42.30367,27.271941 43.03125,27.9375 C 43.034738,27.940914 43.059164,27.965249 43.0625,27.96875 C 43.071583,27.979784 43.086085,28.0194 43.09375,28.03125 C 43.095982,28.035386 43.122931,28.05827 43.125,28.0625 C 43.126904,28.066825 43.123262,28.089329 43.125,28.09375 C 43.129202,28.107598 43.153597,28.141506 43.15625,28.15625 C 43.156959,28.161266 43.155717,28.182382 43.15625,28.1875 C 43.553982,27.014541 44.030357,24.740178 43.9375,22.09375 C 43.935361,21.660575 43.909314,21.211368 43.875,20.78125 C 43.874254,20.7719 43.875761,20.759349 43.875,20.75 C 43.877635,20.744741 43.872459,20.724075 43.875,20.71875 C 43.877541,20.713425 43.903803,20.724141 43.90625,20.71875 C 43.911844,20.707924 43.932047,20.667176 43.9375,20.65625 C 43.94315,20.645463 43.963245,20.604639 43.96875,20.59375 C 43.968598,20.583003 43.969051,20.542102 43.96875,20.53125 C 43.969835,20.527736 43.967302,20.504002 43.96875,20.5 C 43.973888,20.486769 43.997136,20.448316 44,20.4375 C 44.002057,20.402039 43.999593,20.349935 44,20.3125 C 43.852226,18.38365 43.231426,16.789538 42.78125,15.90625 C 42.777304,15.895707 42.785215,15.885536 42.78125,15.875 C 42.761202,15.835965 42.738033,15.81737 42.71875,15.78125 C 42.174715,14.364496 41.442243,13.012909 40.5625,11.75 C 40.55764,11.742879 40.567372,11.725865 40.5625,11.71875 C 40.4136,11.505445 40.251652,11.301563 40.09375,11.09375 C 40.073301,11.066757 40.051879,11.026887 40.03125,11 C 39.65408,10.510638 39.238307,10.049103 38.8125,9.59375 C 38.788704,9.5689196 38.773964,9.5247106 38.75,9.5 C 35.22684,5.7692506 30.110677,3.2675783 24,3.15625 C 23.798828,3.1593192 23.60556,3.1479837 23.40625,3.15625 z M 24.0625,9.4375 C 24.150342,9.4334961 24.255255,9.4398019 24.34375,9.4375 C 26.213629,9.3181461 29.043369,10.185161 30.8125,10.9375 C 30.830016,10.944949 30.857694,10.961328 30.875,10.96875 C 30.882497,10.973262 30.898763,10.964226 30.90625,10.96875 C 30.931261,10.979516 30.944196,11.020549 30.96875,11.03125 C 31.000671,11.045162 31.031375,11.04871 31.0625,11.0625 C 31.079798,11.073269 31.107755,11.082917 31.125,11.09375 C 31.134166,11.097859 31.147159,11.089654 31.15625,11.09375 C 31.325312,11.200294 31.461088,11.356258 31.625,11.46875 L 24.46875,18.875 L 16.71875,10.875 C 17.521131,10.461273 18.893255,9.9094266 20.34375,9.5 L 20.34375,10.15625 C 21.517403,9.7571778 22.744874,9.4975583 24.0625,9.4375 z "
         style="opacity:0.3064516;fill:#ffffff;fill-opacity:1;fill-rule:evenodd;stroke:none;stroke-width:1px;stroke-linecap:butt;stroke-linejoin:miter;stroke-opacity:1" />
      <path
         d="M 15.088468,11.538497 L 24.464731,20.905391 M 33.90068,11.533786 L 24.533786,20.910049"
         style="opacity:0.47849462;fill:none;fill-opacity:0.75;fill-rule:evenodd;stroke:#ffffff;stroke-width:1.06757236;stroke-linecap:round;stroke-linejoin:miter;stroke-miterlimit:4;stroke-opacity:1"
         id="path1545" />
    </g>
  </g>
</svg>
