/* XPM */
static char * synaptic_32x32_xpm[] = {
"32 32 516 2",
"  	c None",
". 	c #E2E2E2",
"+ 	c #C6C6C6",
"@ 	c #9B9B9B",
"# 	c #4D4D4D",
"$ 	c #DCDCDC",
"% 	c #C3C3C3",
"& 	c #8C8C8C",
"* 	c #484848",
"= 	c #080808",
"- 	c #060606",
"; 	c #161616",
"> 	c #7F7F7F",
", 	c #979797",
"' 	c #DFDFDF",
") 	c #C9C9C9",
"! 	c #A4A4A4",
"~ 	c #474747",
"{ 	c #212121",
"] 	c #0E0E0E",
"^ 	c #090909",
"/ 	c #070707",
"( 	c #1F1F1F",
"_ 	c #454545",
": 	c #3D3D3D",
"< 	c #999999",
"[ 	c #B2B2B2",
"} 	c #DEDEDE",
"| 	c #BABABA",
"1 	c #8B8B8B",
"2 	c #4E4E4E",
"3 	c #232323",
"4 	c #1C1C1C",
"5 	c #171717",
"6 	c #101010",
"7 	c #0B0B0B",
"8 	c #040404",
"9 	c #050505",
"0 	c #323232",
"a 	c #6D6D6D",
"b 	c #141414",
"c 	c #5D5D5D",
"d 	c #BFB3B3",
"e 	c #E4E4E4",
"f 	c #DADADA",
"g 	c #919191",
"h 	c #565656",
"i 	c #343434",
"j 	c #2A2A2A",
"k 	c #252525",
"l 	c #1E1E1E",
"m 	c #191919",
"n 	c #121212",
"o 	c #0D0D0D",
"p 	c #3F3F3F",
"q 	c #585858",
"r 	c #3E3E3E",
"s 	c #272727",
"t 	c #645F5F",
"u 	c #8B5F5F",
"v 	c #AC5B5B",
"w 	c #612A2A",
"x 	c #D6CECE",
"y 	c #D6D0D0",
"z 	c #ABABAB",
"A 	c #444444",
"B 	c #383838",
"C 	c #333333",
"D 	c #2C2C2C",
"E 	c #202020",
"F 	c #242424",
"G 	c #3A3A3A",
"H 	c #292929",
"I 	c #685959",
"J 	c #A97C7C",
"K 	c #AF4848",
"L 	c #A12F2F",
"M 	c #8B2828",
"N 	c #481414",
"O 	c #E3E2E2",
"P 	c #B7B6B6",
"Q 	c #9E9E9E",
"R 	c #393939",
"S 	c #2D2D2D",
"T 	c #2F2F2F",
"U 	c #505050",
"V 	c #545454",
"W 	c #363636",
"X 	c #7E7878",
"Y 	c #A67979",
"Z 	c #B55959",
"` 	c #A33535",
" .	c #9D2B2B",
"..	c #A84343",
"+.	c #8D2F2F",
"@.	c #471313",
"#.	c #E5D8D6",
"$.	c #DCBBB5",
"%.	c #BDB4B3",
"&.	c #8B8A8A",
"*.	c #5B5B5B",
"=.	c #3C3C3C",
"-.	c #525252",
";.	c #5F5F5F",
">.	c #414141",
",.	c #4F4F4F",
"'.	c #959595",
").	c #D0D0D0",
"!.	c #C59F9F",
"~.	c #9F2D2D",
"{.	c #A03434",
"].	c #AB4A4A",
"^.	c #BA6B6B",
"/.	c #B86666",
"(.	c #8E3131",
"_.	c #461414",
":.	c #DAC2C0",
"<.	c #C7665F",
"[.	c #E0ADA7",
"}.	c #C9B3B2",
"|.	c #A6A3A3",
"1.	c #707070",
"2.	c #434343",
"3.	c #6C6C6C",
"4.	c #ADADAD",
"5.	c #BBBBBB",
"6.	c #A27C7C",
"7.	c #A23737",
"8.	c #AE5151",
"9.	c #BA6A6A",
"0.	c #AE4F4F",
"a.	c #8E3232",
"b.	c #DACAC9",
"c.	c #B53F3A",
"d.	c #B43932",
"e.	c #CB776F",
"f.	c #DFA8A4",
"g.	c #BFAEAD",
"h.	c #9F9D9D",
"i.	c #676767",
"j.	c #7A7A7A",
"k.	c #CCCCCC",
"l.	c #C0C0C0",
"m.	c #9F9F9F",
"n.	c #A2A2A2",
"o.	c #A5A5A5",
"p.	c #A37D7D",
"q.	c #A43A3A",
"r.	c #BF7474",
"s.	c #BD6F6F",
"t.	c #A02E2E",
"u.	c #A02F2F",
"v.	c #8C3232",
"w.	c #421313",
"x.	c #DFDDDD",
"y.	c #CEA1A0",
"z.	c #BC5955",
"A.	c #B3342D",
"B.	c #B9433D",
"C.	c #C87672",
"D.	c #CDA4A1",
"E.	c #D6C9C7",
"F.	c #E3E3E3",
"G.	c #B6B6B6",
"H.	c #A7A7A7",
"I.	c #A58080",
"J.	c #A43C3C",
"K.	c #A94343",
"L.	c #9F2E2E",
"M.	c #942B2C",
"N.	c #82292C",
"O.	c #843C44",
"P.	c #75414D",
"Q.	c #6B3945",
"R.	c #52242E",
"S.	c #E1E1E1",
"T.	c #DCD4D4",
"U.	c #CA9492",
"V.	c #BB514B",
"W.	c #AD2A24",
"X.	c #AC2823",
"Y.	c #D9B3AE",
"Z.	c #AEAEAE",
"`.	c #9C9C9C",
" +	c #A3A3A3",
".+	c #A6A6A6",
"++	c #A9A9A9",
"@+	c #ACACAC",
"#+	c #AB8585",
"$+	c #A13232",
"%+	c #A54748",
"&+	c #8C3E40",
"*+	c #925F5D",
"=+	c #C18985",
"-+	c #E9BEAF",
";+	c #EEC5B2",
">+	c #E2A999",
",+	c #D28D78",
"'+	c #A3655E",
")+	c #6A4043",
"!+	c #E0E0E0",
"~+	c #DCD9D9",
"{+	c #D6C3C1",
"]+	c #BB6460",
"^+	c #AC2621",
"/+	c #D6A39C",
"(+	c #A0A0A0",
"_+	c #B1B1B1",
":+	c #B5B5B5",
"<+	c #B28F8F",
"[+	c #B66161",
"}+	c #8B585D",
"|+	c #914C47",
"1+	c #DA9577",
"2+	c #E5AF9A",
"3+	c #EFC7B2",
"4+	c #F0C9B4",
"5+	c #E4AD99",
"6+	c #DE9D7E",
"7+	c #E2A68E",
"8+	c #D5A396",
"9+	c #835760",
"0+	c #E5E5E5",
"a+	c #D0B3B1",
"b+	c #D7B4B0",
"c+	c #AFAFAF",
"d+	c #B7B7B7",
"e+	c #BDBABA",
"f+	c #B89898",
"g+	c #853539",
"h+	c #842C34",
"i+	c #AF4B45",
"j+	c #D48163",
"k+	c #E1A28A",
"l+	c #EDC2AD",
"m+	c #EFC6B2",
"n+	c #E2A891",
"o+	c #DF9E80",
"p+	c #E8B6A1",
"q+	c #F0CBB7",
"r+	c #E9C9BA",
"s+	c #906970",
"t+	c #D3D3D3",
"u+	c #D9D9D9",
"v+	c #DBDBDB",
"w+	c #D8D8D8",
"x+	c #E2DEDD",
"y+	c #A8A8A8",
"z+	c #B0B0B0",
"A+	c #B4B4B4",
"B+	c #BDB5B3",
"C+	c #CC998D",
"D+	c #AD9596",
"E+	c #843338",
"F+	c #C84C45",
"G+	c #B73F40",
"H+	c #C35D4F",
"I+	c #DA8D74",
"J+	c #EBBAA8",
"K+	c #EDBEAC",
"L+	c #DE9B84",
"M+	c #DF9E84",
"N+	c #ECC2B0",
"O+	c #F5D6C2",
"P+	c #FBE3CF",
"Q+	c #E6C7BB",
"R+	c #BEBEBE",
"S+	c #DDDDDD",
"T+	c #B3B3B3",
"U+	c #AAAAAA",
"V+	c #C3ACA6",
"W+	c #D29080",
"X+	c #A2878C",
"Y+	c #BD6059",
"Z+	c #E1735C",
"`+	c #DC6351",
" @	c #CA4D46",
".@	c #C95F53",
"+@	c #E1AEB3",
"@@	c #EDCBD5",
"#@	c #E2B3BA",
"$@	c #DCA3A4",
"%@	c #EDC5BA",
"&@	c #F4D3C4",
"*@	c #F5D5C5",
"=@	c #F5D4C4",
"-@	c #A06F77",
";@	c #D5D7D9",
">@	c #CDCFD2",
",@	c #C7C7C7",
"'@	c #C4C4C4",
")@	c #929292",
"!@	c #868686",
"~@	c #8F8F8F",
"{@	c #BFB9B8",
"]@	c #BDB9BA",
"^@	c #8F6E78",
"/@	c #DB8A7B",
"(@	c #EB957D",
"_@	c #E88B73",
":@	c #E17360",
"<@	c #D47277",
"[@	c #F3DFEB",
"}@	c #E1CFDD",
"|@	c #F0E1F0",
"1@	c #F1D8E9",
"2@	c #E2B0B5",
"3@	c #EABBB6",
"4@	c #E9B7B2",
"5@	c #E7B4AE",
"6@	c #BA7F86",
"7@	c #CFD2D5",
"8@	c #97A5B4",
"9@	c #C1C8CF",
"0@	c #CDCECE",
"a@	c #E6E6E6",
"b@	c #7D7D7D",
"c@	c #6A6A6A",
"d@	c #9C9D9D",
"e@	c #A7AAAF",
"f@	c #83909D",
"g@	c #62778D",
"h@	c #856572",
"i@	c #E9AB97",
"j@	c #F3B69D",
"k@	c #F3B49B",
"l@	c #EDAA98",
"m@	c #EFC3CC",
"n@	c #D8B8C3",
"o@	c #59313B",
"p@	c #F8EDF8",
"q@	c #D997AD",
"r@	c #D78993",
"s@	c #D68992",
"t@	c #D68990",
"u@	c #BA6F79",
"v@	c #97A5B5",
"w@	c #96A5B4",
"x@	c #B2BCC5",
"y@	c #DBDDDF",
"z@	c #E7E7E7",
"A@	c #74787D",
"B@	c #4E5256",
"C@	c #39424B",
"D@	c #3E464F",
"E@	c #4F4549",
"F@	c #715E57",
"G@	c #746259",
"H@	c #726059",
"I@	c #73676A",
"J@	c #685C60",
"K@	c #44353A",
"L@	c #B39EB3",
"M@	c #F9EEF9",
"N@	c #D087A4",
"O@	c #D07B92",
"P@	c #CE7990",
"Q@	c #CD768E",
"R@	c #B36176",
"S@	c #D0D3D6",
"T@	c #9EABB9",
"U@	c #9EACBA",
"V@	c #90A0B0",
"W@	c #94A2B1",
"X@	c #D0D4D7",
"Y@	c #E8E8E8",
"Z@	c #B3B5B7",
"`@	c #7D8995",
" #	c #485F78",
".#	c #727375",
"+#	c #CCDBEA",
"@#	c #AFC4D9",
"##	c #5A6066",
"$#	c #F5DEEC",
"%#	c #E3B0C8",
"&#	c #CA7F9E",
"*#	c #D089AA",
"=#	c #CF86A9",
"-#	c #CE82A4",
";#	c #A35A78",
">#	c #9CABB9",
",#	c #9BA9B7",
"'#	c #8995A2",
")#	c #8693A2",
"!#	c #8E9CAC",
"~#	c #B6BEC7",
"{#	c #CBD1D6",
"]#	c #738495",
"^#	c #34506E",
"/#	c #314E6C",
"(#	c #696E73",
"_#	c #ACC0D3",
":#	c #8C9FB3",
"<#	c #484D52",
"[#	c #E08B9C",
"}#	c #D4657B",
"|#	c #D0799C",
"1#	c #CF86AF",
"2#	c #D290BA",
"3#	c #D290B8",
"4#	c #7B4260",
"5#	c #D0D2D6",
"6#	c #99A7B6",
"7#	c #98A6B5",
"8#	c #727E8A",
"9#	c #7B8692",
"0#	c #76828E",
"a#	c #75889C",
"b#	c #AEBAC6",
"c#	c #576F87",
"d#	c #686D72",
"e#	c #ABBFD3",
"f#	c #FBFBFB",
"g#	c #F2F2F2",
"h#	c #F0F0F0",
"i#	c #8598AA",
"j#	c #474B50",
"k#	c #E6878C",
"l#	c #DB6173",
"m#	c #D5749C",
"n#	c #D284B3",
"o#	c #D18DC0",
"p#	c #B2759E",
"q#	c #75797C",
"r#	c #8C99A6",
"s#	c #97A5B3",
"t#	c #75808B",
"u#	c #7C8996",
"v#	c #707D8A",
"w#	c #7B8DA0",
"x#	c #AFBAC6",
"y#	c #576F88",
"z#	c #EFEFEF",
"A#	c #8395A6",
"B#	c #464B4F",
"C#	c #E8929D",
"D#	c #DC667A",
"E#	c #D56E9B",
"F#	c #D483B8",
"G#	c #BA76A8",
"H#	c #633454",
"I#	c #6C7782",
"J#	c #788491",
"K#	c #737F8B",
"L#	c #677380",
"M#	c #76879A",
"N#	c #B0BBC6",
"O#	c #566E86",
"P#	c #3A5672",
"Q#	c #425D77",
"R#	c #F1F1F1",
"S#	c #E9E9E9",
"T#	c #EA9BAD",
"U#	c #DF758D",
"V#	c #C85D8F",
"W#	c #AE5B8C",
"X#	c #552743",
"Y#	c #5C656F",
"Z#	c #747F8B",
"`#	c #6F7C89",
" $	c #B0BCC6",
".$	c #687D92",
"+$	c #405B76",
"@$	c #35506B",
"#$	c #D4899D",
"$$	c #B96078",
"%$	c #7F2F4E",
"&$	c #454A50",
"*$	c #69737E",
"=$	c #6A798A",
"-$	c #ABB6C1",
";$	c #54687C",
">$	c #273644",
",$	c #232629",
"'$	c #D6DFE8",
")$	c #D6DEE4",
"!$	c #CDD3DA",
"~$	c #CCD3DA",
"{$	c #CCD3D9",
"]$	c #BFC9D2",
"^$	c #5C6774",
"/$	c #80868D",
"($	c #2D3238",
"_$	c #9CB0C3",
":$	c #AFB8C2",
"<$	c #B6BCC3",
"[$	c #C4CAD1",
"}$	c #C8CFD5",
"|$	c #9FA7AE",
"1$	c #748291",
"2$	c #889BAE",
"3$	c #AABED2",
"4$	c #A2B1BE",
"5$	c #5F6A74",
"6$	c #B9BEC2",
"7$	c #CECECE",
"8$	c #C1C1C1",
"9$	c #636E79",
"0$	c #778695",
"a$	c #56595D",
"b$	c #94A7B8",
"c$	c #A3B0BD",
"d$	c #65717D",
"e$	c #AEB3B8",
"f$	c #BDBDBD",
"g$	c #626E78",
"h$	c #778696",
"i$	c #535659",
"j$	c #787F87",
"k$	c #787878",
"l$	c #777777",
"m$	c #6F6F6F",
"n$	c #646464",
"o$	c #43474B",
"p$	c #535A61",
"q$	c #3D3F42",
"                                                                ",
"                          . + @ # @                             ",
"                      $ % & * = - ; > ,                         ",
"                  ' ) ! ~ { ] ^ / ( _ : < [                     ",
"              } | 1 2 3 4 5 6 7 8 9 0 a b c d                   ",
"        e f + g h i j k l m n o p q r s t u v w                 ",
"    x y z & A : B C D s E F B ~ G H I J K L M N                 ",
"  O P Q h p : : R i S T U V T W X Y Z `  ...+.@.                ",
"  #.$.%.&.*.: : =.=.-.;.>.,.'.).!.~.{.].^./.(._.                ",
"  :.<.[.}.|.1.2.=.r ~ 3.4.$ 5.z 6.7./.8.9.0.a._.                ",
"  b.c.d.e.f.g.h.i.j.k.} l.m.n.o.p.q.r.s.t.u.v.w.                ",
"  x.y.z.A.B.C.D.E.F.G.o.m.n.o.H.I.J.K.L.M.N.O.P.Q.R.            ",
"  S.S.T.U.V.W.X.Y.Z.`.m. +.+++@+#+$+%+&+*+=+-+;+>+,+'+)+        ",
"  S.. !+~+{+]+^+/+@+(+ +++@+_+:+<+[+}+|+1+2+3+4+5+6+7+8+9+      ",
"  } 0+F.' $ f a+b+c+! H.4.[ d+e+f+g+h+i+j+k+l+m+n+o+p+q+r+s+    ",
"  t+u+0+S.' v+w+x+_+o.y+z+A+B+C+D+E+F+G+H+I+J+K+L+M+N+O+P+Q+    ",
"  f [ R+F.S.S+v+0+T+.+U+Z.z V+W+X+Y+Z+`+ @.@+@@@#@$@%@&@*@=@-@  ",
"  ;@>@,@'@F.' S+0+H.)@@ !@~@{@]@^@/@(@_@:@<@[@}@|@1@2@3@4@5@6@  ",
"  7@8@9@0@!+. ' a@b@c@3.d@e@f@g@h@i@j@k@l@m@n@o@  p@q@r@s@t@u@  ",
"  7@v@w@x@y@e !+z@1.& y+A@B@C@D@E@F@G@G@H@I@J@K@L@M@N@O@P@Q@R@  ",
"  S@T@U@V@W@X@S.Y@Z@`@ #.#+#) ) ) ) ) ) ) ) @###$#%#&#*#=#-#;#  ",
"  S@>#,#'#)#!#~#{#]#^#/#(#_#e e e e e e e e :#<#[#}#|#1#2#3#4#  ",
"  5#6#7#8#9#0#a#b#c#/#/#d#e#f#g#g#g#g#g#h#g#i#j#k#l#m#n#o#p#    ",
"  q#r#s#t#u#v#w#x#y#/#/#d#e#f#g#g#g#g#z#0+Y@A#B#C#D#E#F#G#H#    ",
"      I#J#K#L#M#N#O#P#Q#d#e#f#g#R#z#S#. !+Y@A#B#T#U#V#W#X#      ",
"        Y#Z#`#]# $.$+$@$d#e#f#g#Y@F.!+!+!+Y@A#B##$$$%$          ",
"          &$*$=$-$;$>$,$d#e#'$)$!$!$!$~${$]$A#B#                ",
"              ^$/$($    d#e#_$:$<$[$}$|$1$2$A#B#                ",
"                        d#3$4$) 5$6$7$8$9$0$A#B#                ",
"                        a$b$c$w+d$e$+ f$g$h$A#B#                ",
"                          i$j$)@k$l$m$n$B#o$p$q$                ",
"                                                                "};
