/* XPM */
static const char * alert_xpm[] = {
"11 11 5 1",
" 	c None",
".	c #000000",
"+	c #FFD718",
"@	c #5E5E28",
"#	c #939101",
"           ",
"           ",
"     .     ",
"    .+.    ",
"   @#+#@   ",
"   .+.+.   ",
"  .++.++.  ",
" @#++.++#@ ",
" .+++++++. ",
".++++.++++.",
"..........."};
