/* XPM */
static const char * brokenM_xpm[] = {
"11 11 3 1",
" 	c None",
".	c #A87272",
"+	c #B50E0E",
"           ",
".+.    .+. ",
"+++.  .+++ ",
" .++..++.  ",
"  .++++.   ",
"   .++.    ",
"  .++++.   ",
" .++..++.  ",
"+++.  .+++ ",
".+.    .+. ",
"           "};
