/* XPM */
static char * cdrom_xpm[] = {
"48 48 347 2",
"  	c None",
". 	c #333333",
"+ 	c #474747",
"@ 	c #A7A7A7",
"# 	c #A6A6A6",
"$ 	c #A3A3A3",
"% 	c #A1A1A1",
"& 	c #9F9F9F",
"* 	c #9D9D9D",
"= 	c #9E9B9B",
"- 	c #A39A9A",
"; 	c #AA9A9A",
"> 	c #AF9A9A",
", 	c #303030",
"' 	c #AEAEAE",
") 	c #ACACAC",
"! 	c #AAAAAA",
"~ 	c #D2D2D2",
"{ 	c #CFCFCF",
"] 	c #CDCDCD",
"^ 	c #CACACA",
"/ 	c #C7C7C7",
"( 	c #C4C4C4",
"_ 	c #C4C1C1",
": 	c #CDC0C0",
"< 	c #D3C0C0",
"[ 	c #DBBEBE",
"} 	c #B69A9A",
"| 	c #BB9999",
"1 	c #C19898",
"2 	c #B3B3B3",
"3 	c #B1B1B1",
"4 	c #DBDBDB",
"5 	c #D8D8D8",
"6 	c #D6D6D6",
"7 	c #D3D3D3",
"8 	c #D0D0D0",
"9 	c #D5C0C0",
"0 	c #DDBEBE",
"a 	c #E4BFBF",
"b 	c #ECBDBD",
"c 	c #F3BCBC",
"d 	c #C99898",
"e 	c #CB9997",
"f 	c #4C4C4C",
"g 	c #BCBCBC",
"h 	c #B8B8B8",
"i 	c #E1E1E1",
"j 	c #DFDFDF",
"k 	c #DCDCDC",
"l 	c #D9D9D9",
"m 	c #D4D4D4",
"n 	c #D1D1D1",
"o 	c #CECECE",
"p 	c #C5C0C0",
"q 	c #D7BEBE",
"r 	c #DFBEBE",
"s 	c #E7BEBE",
"t 	c #EFBCBC",
"u 	c #F7BCBC",
"v 	c #FEBBBB",
"w 	c #FAC1BB",
"x 	c #C2A196",
"y 	c #BDA697",
"z 	c #C2C2C2",
"A 	c #EEEEEE",
"B 	c #EAEAEA",
"C 	c #E5E5E5",
"D 	c #E0E0E0",
"E 	c #DDDDDD",
"F 	c #DADADA",
"G 	c #D5D5D5",
"H 	c #CBCBCB",
"I 	c #CFC0C0",
"J 	c #D8BFBF",
"K 	c #E1BEBE",
"L 	c #E9BEBE",
"M 	c #F1BCBC",
"N 	c #FABBBB",
"O 	c #FEBDBB",
"P 	c #F6C5BB",
"Q 	c #EECCBB",
"R 	c #E7D4BD",
"S 	c #B4B198",
"T 	c #C9C9C9",
"U 	c #F6F6F6",
"V 	c #F2F2F2",
"W 	c #EDEDED",
"X 	c #E8E8E8",
"Y 	c #E2E2E2",
"Z 	c #C8C8C8",
"` 	c #C6C1C1",
" .	c #D1C0C0",
"..	c #DABFBF",
"+.	c #E3BEBE",
"@.	c #F5BCBC",
"#.	c #FDBCBC",
"$.	c #F1C9BC",
"%.	c #E9D0BC",
"&.	c #E2DABD",
"*.	c #DDE0BD",
"=.	c #ACB998",
"-.	c #FFFFFF",
";.	c #FAFAFA",
">.	c #F1F1F1",
",.	c #ECECEC",
"'.	c #E6E6E6",
").	c #D7D7D7",
"!.	c #CCCCCC",
"~.	c #C7C0C0",
"{.	c #DCBFBF",
"].	c #E5BEBE",
"^.	c #F9BCBC",
"/.	c #F5C5BA",
"(.	c #EBCFBC",
"_.	c #E4D8BD",
":.	c #DEDFBC",
"<.	c #D7E5BC",
"[.	c #D2EBBC",
"}.	c #A3C297",
"|.	c #000000",
"1.	c #F7F7F7",
"2.	c #FBFBFB",
"3.	c #F5F5F5",
"4.	c #F0F0F0",
"5.	c #E4E4E4",
"6.	c #C9C0C0",
"7.	c #DEBFBF",
"8.	c #F9C0BA",
"9.	c #F0CDBB",
"0.	c #DEDEBD",
"a.	c #DAE4BD",
"b.	c #CCF1BC",
"c.	c #C6F7BA",
"d.	c #9BC996",
"e.	c #BDBDBD",
"f.	c #EFEFEF",
"g.	c #F3F3F3",
"h.	c #F4F4F4",
"i.	c #F3C7BC",
"j.	c #E0DCBD",
"k.	c #D9E3BC",
"l.	c #C1FCBB",
"m.	c #BBFEBB",
"n.	c #97C897",
"o.	c #BABABA",
"p.	c #EBEBEB",
"q.	c #F9F9F9",
"r.	c #CBC0C0",
"s.	c #FCBBBB",
"t.	c #F8C2BB",
"u.	c #EECEBB",
"v.	c #DCE2BD",
"w.	c #D2E9BC",
"x.	c #C1FDBA",
"y.	c #BCFDBC",
"z.	c #BBF8BB",
"A.	c #98C298",
"B.	c #E3E3E3",
"C.	c #E9E9E9",
"D.	c #F8F8F8",
"E.	c #E5D5BC",
"F.	c #D4E9BC",
"G.	c #C7F8BB",
"H.	c #BEFEBB",
"I.	c #BCFBBC",
"J.	c #BBF6BB",
"K.	c #BCF1BC",
"L.	c #BDECBD",
"M.	c #99BA99",
"N.	c #B2B2B2",
"O.	c #E7E7E7",
"P.	c #ABABAB",
"Q.	c #A2A2A2",
"R.	c #AA9F9F",
"S.	c #C1A6A6",
"T.	c #DDB1B1",
"U.	c #FBBCBC",
"V.	c #F7C3BA",
"W.	c #C5F9BA",
"X.	c #BEFFBD",
"Y.	c #BBFABB",
"Z.	c #BCF3BC",
"`.	c #BEEFBE",
" +	c #BEE9BE",
".+	c #BFE4BF",
"++	c #9AB49A",
"@+	c #B0B0B0",
"#+	c #DEDEDE",
"$+	c #ADADAD",
"%+	c #A69A9A",
"&+	c #B59999",
"*+	c #D7A19F",
"=+	c #E4C4B3",
"-+	c #D6E7BD",
";+	c #C3FABB",
">+	c #BCF7BC",
",+	c #BDEABD",
"'+	c #BEE5BE",
")+	c #BFE0BF",
"!+	c #BFDCBF",
"~+	c #BED9BE",
"{+	c #9AAC9A",
"]+	c #AFAFAF",
"^+	c #C5C5C5",
"/+	c #B5B5B5",
"(+	c #878787",
"_+	c #3A3A3A",
":+	c #1A1A1A",
"<+	c #0E0E0E",
"[+	c #3A3535",
"}+	c #8E7676",
"|+	c #C99999",
"1+	c #C49F96",
"2+	c #B7AE98",
"3+	c #CAD7B0",
"4+	c #C2FBBA",
"5+	c #BBFCBB",
"6+	c #BCF5BC",
"7+	c #BEE7BE",
"8+	c #BEE1BE",
"9+	c #BFD8BF",
"0+	c #C0D5C0",
"a+	c #C0D1C0",
"b+	c #9AA69A",
"c+	c #646464",
"d+	c #484848",
"e+	c #2D2D2D",
"f+	c #181818",
"g+	c #090909",
"h+	c #010101",
"i+	c #070505",
"j+	c #A89788",
"k+	c #AEB697",
"l+	c #B9F2B3",
"m+	c #BFE2BF",
"n+	c #C0D3C0",
"o+	c #C0CFC0",
"p+	c #C0CDC0",
"q+	c #C0C9C0",
"r+	c #9B9F9B",
"s+	c #C3C3C3",
"t+	c #BEBEBE",
"u+	c #989898",
"v+	c #797979",
"w+	c #585858",
"x+	c #373737",
"y+	c #1C1C1C",
"z+	c #93AF88",
"A+	c #9ACB97",
"B+	c #9FD19F",
"C+	c #BEE3BE",
"D+	c #BED7BE",
"E+	c #C1C6C1",
"F+	c #C0C3C0",
"G+	c #C0C1C0",
"H+	c #B7B7B7",
"I+	c #5A5A5A",
"J+	c #050705",
"K+	c #99C399",
"L+	c #99B899",
"M+	c #B3CEB3",
"N+	c #BFD6BF",
"O+	c #C0CBC0",
"P+	c #9E9E9E",
"Q+	c #A9A9A9",
"R+	c #898989",
"S+	c #C0C0C0",
"T+	c #778977",
"U+	c #9AAA9A",
"V+	c #A7B3A7",
"W+	c #C1C2C1",
"X+	c #C6C6C6",
"Y+	c #3C3C3C",
"Z+	c #A8A8A8",
"`+	c #363736",
" @	c #9C9C9C",
".@	c #070707",
"+@	c #A0A0A0",
"@@	c #A4A4A4",
"#@	c #0F0F0F",
"$@	c #222222",
"%@	c #3B3B3B",
"&@	c #9A9A9A",
"*@	c #383838",
"=@	c #BBBBBB",
"-@	c #B4BBB4",
";@	c #9AA59A",
">@	c #9BAB9B",
",@	c #717171",
"'@	c #595959",
")@	c #B4B4B4",
"!@	c #C0C7C0",
"~@	c #A2BCA2",
"{@	c #89AE89",
"]@	c #C1C4C1",
"^@	c #B5C7B5",
"/@	c #BCD5BC",
"(@	c #BEDDBE",
"_@	c #B5E2B5",
":@	c #97C597",
"<@	c #95AD88",
"[@	c #070705",
"}@	c #9A9E9A",
"|@	c #AACBAA",
"1@	c #BBE6BB",
"2@	c #B5ECAF",
"3@	c #A6C097",
"4@	c #B0B597",
"5@	c #BFA798",
"6@	c #9D7674",
"7@	c #413434",
"8@	c #080606",
"9@	c #0D0D0D",
"0@	c #393939",
"a@	c #848484",
"b@	c #83A483",
"c@	c #B0E6B0",
"d@	c #CEF0BB",
"e@	c #D0DAB4",
"f@	c #C4B5A1",
"g@	c #C59F97",
"h@	c #C79898",
"i@	c #B89999",
"j@	c #A89A9A",
"k@	c #BFDABF",
"l@	c #79A179",
"m@	c #ADECAD",
"n@	c #E3D8BC",
"o@	c #F1CABA",
"p@	c #EEB1AF",
"q@	c #D2A4A4",
"r@	c #B99E9E",
"s@	c #B6B6B6",
"t@	c #99B299",
"u@	c #7BA67B",
"v@	c #B8E6AD",
"w@	c #80A079",
"x@	c #DAC6B1",
"y@	c #F0C5B7",
"z@	c #C1C1C1",
"A@	c #808080",
"B@	c #828282",
"C@	c #B9B9B9",
"D@	c #7E7E7E",
"E@	c #826767",
"F@	c #6B5555",
"                                                                                                ",
"                                                                                                ",
"                                    . . . . . . . . . .                                         ",
"                              + + + @ # $ % & * = - ; > , , ,                                   ",
"                          + + ' ) ! ~ { ] ^ / ( _ : < [ } | 1 , ,                               ",
"                      + + 2 3 4 5 6 7 8 ] ^ / ( _ : 9 0 a b c d e , ,                           ",
"                    f g h i j k l 6 m n o ^ / ( p : q r s t u v w x y ,                         ",
"                  f z A B C D E F 5 G n o H / ( p I J K L M N O P Q R S ,                       ",
"                f T U V W X Y j k l 6 ~ { H Z ( `  ...+.b @.#.w $.%.&.*.=.,                     ",
"              f T -.;.U >.,.'.D E F ).7 { !.Z ( ~. .{.].t ^.O /.(._.:.<.[.}.|.                  ",
"            f z 1.2.-.;.3.4.B 5.j k 5 m 8 !.Z ( 6.< 7.L c #.8.9.R 0.a.[.b.c.d.|.                ",
"          + e.f.g.U ;.-.;.h.A X i E F 6 n ] T ( 6.9 K b u O i.%.j.k.[.b.c.l.m.n.|.              ",
"          + o.p.A V U ;.-.q.g.W C j 4 ).7 o T ( r.q a M s.t.u.&.v.w.b.c.x.y.z.A.|.              ",
"        + 2 B.'.C.W >.3.q.-.D.V p.Y E l m { T ( r...s @.O $.E.*.F.b.G.H.I.J.K.L.M.|.            ",
"        + N.D i 5.O.p.f.h.q.-.D.4.X D ] o.P.Q.* R.S.T.U.V.%.:.F.b.W.X.Y.Z.`. +.+++|.            ",
"      + @+E #+j D Y C C.A g.D.-.1.5.z 3 $+@ Q.* %+&+1 *+=+j.-+b.;+m.>+K.,+'+)+!+~+{+|.          ",
"      + ]+4 k E #+j D B.O.,.>.1.f.^+e./+(+_+:+<+[+}+|+1+2+3+b.4+5+6+L.7+8+!+9+0+a+b+|.          ",
"      + ' l F 4 k E #+j D 5.C.C ^+!.@+c+d+e+f+g+h+|.i+j+k+}.l+Y.K. +m+!+9+n+o+p+q+r+|.          ",
"    . P.).).5 l l F 4 k E j D s+t+3 u+v+w+x+y+g+|.|.|.|.z+A+B+L.C+!+D+a+p+q+E+F+G+s+* |.        ",
"    . ! G G 6 6 ).5 l l F k { N.H+c+v+u+Q.W -.-.O.I+|.|.J+K+L+M+N+o+O+E+F+s+s+( ^+^+P+|.        ",
"    . Q+7 7 m m G G 6 6 ).5 e.]+R+d+w+Q.-.o     S+-.I+|.|.T+U+V+E+W+s+( ^+^+X+X+/ / & |.        ",
"    . @ n n ~ ~ ~ 7 7 7 m G ]+P.Y+e+x+W T         Z+O.|.|.`+ @Q.^+X+X+/ / Z Z T T T % |.        ",
"    . # { { { 8 8 8 8 8 n n @ Z+:+f+y+-.            -.|.|..@+@% T ^ ^ ^ ^ H H H H H Q.|.        ",
"    . @@] ] ] ] ] ] ] ] ] ] @@@@#@g+g+-.            -.g+g+<+@@@@] ] ] ] ] ] ] ] ] ] @@|.        ",
"    . Q.H H H H H ^ ^ ^ ^ T # +@x+h+|.O.Z+        s+p.$@y+%@Q+$+n n n 8 8 8 8 8 8 { # |.        ",
"    . % T T T Z Z Z / / X+X+) * v+|.|.I+-.2     s+-.&@d+*@(+$+=@6 G m m 7 7 ~ ~ ~ n @ |.        ",
"    . & / / X+X+X+^+^+( s+W+-@;@>@J+|.|.I+O.-.-.p.&@u+,@'@)@3 ] l 5 ).).6 G G m m m Q+|.        ",
"    . P+^+^+( ( s+s+F+!@O+a+N+~@L+{@|.|.|.|.|.g+$@d+,@u+]+o.S+j E k F l l 5 ).).6 6 ! |.        ",
"      ,  @s+W+]@, , , ^@/@(@.+_@:@A+<@[@|.|.|.g+y+*@'@]+!.( B.'.D j E k 4 F l l 5 $+|.          ",
"      , }@!@O+, s+-.s+|.|@1@K.Y.2@3@4@5@6@7@8@9@0@a@2 o.s+f.U f.C.5.D j #+E k 4 F ' |.          ",
"      , ;@o+a+, -.-.-.|.b@c@5+;+d@e@f@g@h@i@j@* $ Q+' t+Y U -.1.>.,.O.B.D j #+E k ]+|.          ",
"        , {+k@, -.-.-.|.l@m@W.d@a.n@o@p@q@r@%+* @ s@^ E C A 1.-.D.g.A C.C Y D j N.|.            ",
"        , t@8+, -.-.-.|.u@v@d@<.j.(.t.U.b {.: ( ^ 8 6 4 D X 4.D.-.q.h.f.p.O.5.i 2 |.            ",
"      , , , , , -.-.-.|.w@, , , x@y@, , , , , , , z@/ , , , , , , , p.V >.W C.h |.              ",
"    , +@-.-.-.-.-.-.-.|., k -.k |., +@-.-.-.-.-.k |., +@-.-.-.-.-.+@|.D g.V A g |.              ",
"    , -.-.-.-.-.-.-.-.|., -.-.-.|., -.-.-.-.-.-.-.|., -.-.-.-.-.-.-.|.N.p.U z |.                ",
"    , -.-.s+, |.s+-.-.|., -.-.-.|., -.-.A@|.|.|.|.v+, -.-.A@|.A@-.-.|.Q.W T |.                  ",
"    , -.-.s+, |.s+-.-.|., -.-.-.|., -.-.A@, , , , B@, -.-.A@|.A@k -.|.+@C@|.                    ",
"    , -.-.s+, |.s+-.-.|., -.-.-.|., -.-.-.-.-.-.+@|., -.-.A@|.|.|.|.A@D@|.                      ",
"    , -.-.s+, |.s+-.-.|., -.-.-.|., +@-.-.-.-.-.-.|., -.-.A@|.|., , A@|.                        ",
"    , -.-.s+, |.s+-.-.|., -.-.-.|.E@|.|.|.|.A@-.-.|., -.-.A@|.A@k -.|.|.                        ",
"    , -.-.s+, |.s+-.-.|., -.-.-.|.F@, , , , A@-.-.|., -.-.A@|.A@-.-.|.|.                        ",
"    , -.-.-.-.-.-.-.-.|., -.-.-.|.|.-.-.-.-.-.-.-.|., -.-.-.-.-.-.-.|.                          ",
"    , +@-.-.-.-.-.-.+@|., k -.k |.|.k -.-.-.-.-.+@|., +@-.-.-.-.-.+@|.                          ",
"      |.|.|.|.|.|.|.|.    |.|.|.    |.|.|.|.|.|.|.|.|.|.|.|.|.|.|.|.                            ",
"                                            |.|.|.                                              ",
"                                                                                                ",
"                                                                                                "};
