/* XPM */
static char * cnc_xpm[] = {
"100 41 65 1",
" 	c None",
".	c #0C073E",
"+	c #0F0F4A",
"@	c #363662",
"#	c #2E764A",
"$	c #898AAC",
"%	c #D60A0E",
"&	c #A2A2C2",
"*	c #A2060C",
"=	c #72BE8E",
"-	c #CACAE0",
";	c #D91D1E",
">	c #86070D",
",	c #D5D7E2",
"'	c #D94246",
")	c #B6192B",
"!	c #760A24",
"~	c #DAE6EA",
"{	c #D9686D",
"]	c #CB3C40",
"^	c #D6EEE2",
"/	c #500343",
"(	c #7F2125",
"_	c #9E545A",
":	c #E68686",
"<	c #060242",
"[	c #AE7070",
"}	c #A6A6C2",
"|	c #292955",
"1	c #320448",
"2	c #625477",
"3	c #0B054E",
"4	c #E1A5A9",
"5	c #F3F2F4",
"6	c #E3BCB8",
"7	c #FCFDF2",
"8	c #C09394",
"9	c #7E82A1",
"0	c #6A1A26",
"a	c #C80A18",
"b	c #0A561A",
"c	c #F3CED0",
"d	c #E6060A",
"e	c #22024E",
"f	c #FDE3E2",
"g	c #5E5E8A",
"h	c #040266",
"i	c #6B6A8F",
"j	c #FCFAFD",
"k	c #FA0206",
"l	c #B2B2CA",
"m	c #FEFEFE",
"n	c #494B6E",
"o	c #9797BD",
"p	c #1B1A55",
"q	c #86093F",
"r	c #272878",
"s	c #7976A7",
"t	c #C2C0D3",
"u	c #9E0A3E",
"v	c #8E3636",
"w	c #403F7D",
"x	c #EACECA",
"y	c #4E4E96",
"z	c #E7E3EE",
"mmmmmmmmmmmmmmmmmmmmmmmmmmmmmmmmmmmmmmmmmmmmmm77jjmmm77mmmm77mjjm7m7777mmmmmmmm777mmmmmmjjmmmjmmmmmm",
"mmmmmmmmmmmmmmmmmmmmmmmmmmmmmmmmmmmmmmjjmmmmmmmmmmm77mmmmmmmmmmm7jjjjmm7m7mmjmjjjjjjjjjjjjj7jjj77mmm",
"mmmmmmmmmmmmmmmmmmmmmmmmmmmmmmmm7m7mjmmj77mjjjm7777m7mmjmm7jmm777mmjjjjjj7ffc644:{{'']']']'{{4xjjmmm",
"mmmmmmmmmmmmmmmmmmmmmmmmmmmmmmmmmm75z-tloo$o&ll-,z5jmmmm7m777mjjjjjfc44:{']];;%d;d%ddd%kdd%%aa)]cjmm",
"mmmmmmmmmmmmmmmmmmmmmmmmm77m7j75t$gr|+..3.3<3<+++p|ni-777jjj5f64:{'];;d;dkdkdkkkkkkkkkkkkkkkkda*[jmj",
"mmmmmmmmmmmmmmmmmmmmmmmmmmm7jz}iwr++hhhhhhhhhhhhh<.i-5jfc4:{];;%%dddddddddddd%ddddkkkkkkkkkkk%a*_mjm",
"mmm7mm7mm7mm7mm7mm7mmmmmm7m7,&g@+hhhhhhhhhhhhh3e.|844{']%;;%d%%aaa****>>>>!!>>>>***addkkkkkkkd>(67mj",
"mmmmmmmmmmmmmmmmmmmm7mmmmmmzo$rhhhhhhhhhhhhh311!>u;;;;d%aa**>>>!>0vvv_[[88844488[_v>*%dkkkkkd*!8jjmm",
"mmmmmmmmmmmmmmmmmmmmmmmm77jlyphhhhhhhhhh31/!ua)%aaa***>>0(v_[846,f55tw$t57575777jj5x_*dkkkda>087j7mm",
"mmmmmmmmmmmmmmmmmmm777mm777shhhhhhhh+e/!uaadkd*>!>(v_[84xff5575jj77759.pw$,577777775f]%kd%a>v677mmmm",
"mmmm7mm7mm7mm7mm77mmm7777j7&hhhh3e1/uaaddkkdaq0[86ffj777~}so-77577m77,|<<.p2l~j577mjf{dda*!_-57jmmmm",
"m7mmmmmmmmmmmmmm77mm77jjjmj,rhe/qua%dddauu!!11ij77jj775~on+.|l777mjjjfghhh33.@$zj775c{;a>08577jjjmmm",
"mmmmmmmmmmmmmmmmmj7jj777jj5f_!ua;%)aq!//eehh<<l75777775&9phh<|,j77mm7mo3hhh3hh+|sxjx4]*![,777777mmmm",
"mmmmmmmmmmmmmm7m5jj77jjjf4{]))!q//1eehhhhhhh<px7m777jm-grhhh3<9j7mjm77t3hhhhhhh3.|{:]!v6j77j7mmmmmmm",
"mmmm7m7mm7mmmmmmm77jjx4{]'':4c2e3hhhhhhhhhh<<@~7777777orhhhhh<|$oooooooyhhhhhhh31>)a08~5777jmmmmmmmm",
"m7mmmmmmmmmmmmmm7fx:{''{6cfj7jzi.hhhhhhhhhhh<w5j77777jiehhhhhhh<<h3h3hpwhhhhhhe/ua%>en-7jjjmjmmmmmmm",
"mmmmmmmm77mmjjfx:{{{4cfjjmm777m5o|.hhhhhhhhh.njj7m7775whhhhhhhhhhhhh3hhhhhhh3e!))q/e<.p$57j77mmmmmmm",
"mmmmmmmmjjjf6::[4xfjj7m7mmmmmmmj5-n.33hhhhhh<njjmm7755whhhhhhhhhhhh3hhhhhhhe/u)u/e.hh<.+iz75mmmmmmmm",
"mmmmjj7jf6484cf5j777777mmmmmmmmmjjz$|3<hhhhh<njjmmmm75whhhhhhh<.<<<3<33h331quq/e3hhhhhh<<n~7m7mmmmmm",
"m7mj7fx66cfjjj7jmj577mjjmmmmmmm77777,sp<<<3h<w5mmm777ji<hhhhh<+@@|@@@@@pe!)q/ehhhhhhhhh3h.nz7mmmmmmm",
"mmmjzzz5j7j7jj7mmmmm7m7mmmmmmmmmm77777-sp<<<<@z7mmmm77}3<hhhh<n~~f5555xvq!1ehhhhhhhhhhhhhh.ijmmmmmmm",
"m7j75j5jj7j7mmmj7777mmmmmmmmmmmmm777777j-9|..+,j7mm77j,@.hh3<.$j7757548013hhhhhhhhhhhhhhhh<+l7mjmmmm",
"mmm7j7777mmm7m777777mmmmmmmmmmmmmm77777775,onp}7mmmmmmj}p<<<.w,777f6444rhhhhhhhhhhhhhhhhhhh.g77mmmmm",
"mm777777mmmmmm77777mmm77mmmm7m7mmm7777j757775tlj7mmm7775&@||i,7jfx46f5owhhhhhhhhhhhhhhhhhhh.|777mmmm",
"mmmmmm7mmm7mmmm77mmm7m77m7mmmmmmmmmm7777777777j7mmmmm77jj5^~75fx6z5jjzsrhhhhhhhhhhhhhhhhhh3.njjmmmmm",
"mmmmmmj775jj7777mm7777mmmmmmmmmmmmm7mm77777777mmmmmj7777j5^^5xxf5jjj5}s+hhhhhhhhhhhhhhhh3<.+o77jmmmm",
"mmmjj5-$9s$lz77m7mmmm7mm7mmmmmmmmmmmmmmm7777mmmmjjmjmm77j^=#}557jjj5lorhhhhhhhhhhhhhhhh<3.+sjjmmmmmm",
"mmmmzo|.++..-jjmmmmmmmmmmmmmm7m7m7m7mmmm7mmmmmmmj,,577777-#b97j77jz9ywhhhhhh<hhhhh<h<<<<+@l5j7m7mmmm",
"mmmj}g+iltog,jmmjmmmmmmmmjmmmmmmm7mmmmmm7mmm7m77,y|o77777^##-777jjo@r+++hh3<<<<<<<<++p@st^777mmjmmmm",
"mmjtg.s5777j57ztlt,5jz,,5,lt57m5,tl-j7jj7,tllt~z-@<$~~^,-~-t^,,,jjj5-}l$ir+|ngggii$&t,57777mmmmmmmmm",
"mmjip+,57777j-gp..|$5}@r$w++s5z$r<.ps^75}w+h.+ny@@3pr|i|++p.ii|pxj75y|t@++3.wtjj777777777777mmmmmmmm",
"j77w+|j7jmmj,$p@$g++oo+.+p.3+,ow|ssp+$5li+w$oiiiw.<|wn99ii++it++oj7tp2-wiosp.n577777777777mmmmmmmmmm",
"m75@hwj77jjj$wp-55n<@$..2,o3<$g+9z5i+w-gp2,mjjz7,p3o57777~@.iz@.n5js+lj~5^,s+|^m777777777mm7mmm7mmmm",
"j77|.wj7jmmjn+|575s..s..,7t+hi|3@wn@+r&p<om7mmm7,|<o77777~|.ij$3+-z@|~5lnr+w|pz77777777mmmmmmmmmmmmm",
"jmjn.p~7777j@<|57793.i++,mt+3g+<+p|pp@$+<$5m7mmm,p<o7777mz@<i7-p<s}+s5li+|nr<|~mm777777mmmm7mmmmmmmm",
"775$+<$j777jy<p~7jihp9.p,mt+<s+39z^555tp<n577777,p<$777j7^@<i55g<rnp-5y+n5j$+p5m777mmmmmmmmmmmmmmmmm",
"mm7~|.+o,5,$$+.$~-n.go3pzm-+.}w3p$--l9,n..it~-t5^|<nttt77z@<ijjl<<<nj^w3@logr+-jmmmmmmmmmmmmmmm7mmmm",
"7mmjt|<.pp+<ti..pp+@,o.+,7-+<tt|.<hh<|,-@.3++.njji.h..nj5^|<ij7^@..}7jo+.h.p<<wjmmmmmm7mmmmmmmmmmmmm",
"7mmjj,9@w@yo55l2@woz7-ii55,si,j~$n@wi}5j~on@w2&57~onwn&755$ilj5j&i9~7j^}nno,i@9j7mmmmmmmmmmm7mmmmmmm",
"mmmjjmj77j77577mm7j77j7jj7j77jjj57j777777m775jjjj775jjjm7j77j77777jj77j577777jjjjmm7mmmmmmmmmmmmmmmm",
"mmmm7mj77777777j7mj77mmmm777777m77m7777777m7m7777777777j7777j7m7777jmmm7jj7777jmmmmmmmmmmmmmmmmmmmmm"};
