/* XPM */
static char * cnc2_xpm[] = {
"49 20 469 2",
"  	c None",
". 	c #BAB9CF",
"+ 	c #9B9ABA",
"@ 	c #8585AC",
"# 	c #8E8DB3",
"$ 	c #A2A2BE",
"% 	c #BDBED3",
"& 	c #D5D5DF",
"* 	c #CFD0D9",
"= 	c #C0BDD1",
"- 	c #F0BEBF",
"; 	c #E29295",
"> 	c #DE5F63",
", 	c #E37B7D",
"' 	c #E47272",
") 	c #E05558",
"! 	c #E24548",
"~ 	c #DD2E33",
"{ 	c #DF2125",
"] 	c #DD2024",
"^ 	c #DF2024",
"/ 	c #D92A2E",
"( 	c #D4414A",
"_ 	c #CD5A61",
": 	c #75749B",
"< 	c #4C4C84",
"[ 	c #1B1A61",
"} 	c #0A0858",
"| 	c #070457",
"1 	c #070458",
"2 	c #060359",
"3 	c #070557",
"4 	c #0A0857",
"5 	c #1C184E",
"6 	c #8682A0",
"7 	c #EDE2E6",
"8 	c #F6D9D5",
"9 	c #EDB6B9",
"0 	c #E39093",
"a 	c #E16566",
"b 	c #DC4347",
"c 	c #DB262A",
"d 	c #D91418",
"e 	c #DD0B0F",
"f 	c #DF080C",
"g 	c #E3050B",
"h 	c #E1060A",
"i 	c #E60509",
"j 	c #E90408",
"k 	c #F30307",
"l 	c #F80206",
"m 	c #FA0206",
"n 	c #EE0509",
"o 	c #B50912",
"p 	c #A96164",
"q 	c #C4C3D8",
"r 	c #7879A4",
"s 	c #1A1966",
"t 	c #050364",
"u 	c #040266",
"v 	c #040265",
"w 	c #090263",
"x 	c #12035C",
"y 	c #2D054C",
"z 	c #5A072C",
"A 	c #9F3149",
"B 	c #D75255",
"C 	c #D52B2F",
"D 	c #C7141C",
"E 	c #BE1419",
"F 	c #B31116",
"G 	c #AD171E",
"H 	c #A51E2B",
"I 	c #A03036",
"J 	c #9C3237",
"K 	c #9A4249",
"L 	c #A45154",
"M 	c #A45661",
"N 	c #B55D64",
"O 	c #A95558",
"P 	c #A53E42",
"Q 	c #A02127",
"R 	c #C40E13",
"S 	c #EF0408",
"T 	c #F70307",
"U 	c #D3060B",
"V 	c #94343D",
"W 	c #6A69A1",
"X 	c #0E0D67",
"Y 	c #080263",
"Z 	c #12055D",
"` 	c #31044F",
" .	c #5E073E",
"..	c #95072A",
"+.	c #C2071A",
"@.	c #BB0B19",
"#.	c #A51823",
"$.	c #AB272F",
"%.	c #A84246",
"&.	c #B26263",
"*.	c #BC8083",
"=.	c #C29399",
"-.	c #D0B6BB",
";.	c #EAD6D4",
">.	c #F1E9EB",
",.	c #FAF7F1",
"'.	c #D3D3DC",
").	c #54537F",
"!.	c #4F4D80",
"~.	c #CF7C7F",
"{.	c #E30B0F",
"].	c #E7050A",
"^.	c #BC0C16",
"/.	c #9E4B50",
"(.	c #8F89B0",
"_.	c #20095D",
":.	c #4A0648",
"<.	c #7D0938",
"[.	c #A90825",
"}.	c #C70817",
"|.	c #B70721",
"1.	c #A30628",
"2.	c #7C072C",
"3.	c #5F2B58",
"4.	c #DFCBC9",
"5.	c #F7EBE7",
"6.	c #FCF7F4",
"7.	c #F8F8F2",
"8.	c #BDC2D2",
"9.	c #49497B",
"0.	c #5B5A85",
"a.	c #DFE0E1",
"b.	c #FBFBF4",
"c.	c #FDFCFB",
"d.	c #FAF7F5",
"e.	c #716D95",
"f.	c #060358",
"g.	c #140F57",
"h.	c #4A4879",
"i.	c #8081A3",
"j.	c #E8A3A6",
"k.	c #D01920",
"l.	c #A01F28",
"m.	c #9D515B",
"n.	c #E28B8E",
"o.	c #D2696F",
"p.	c #A02E44",
"q.	c #820C37",
"r.	c #68083B",
"s.	c #4E0645",
"t.	c #290453",
"u.	c #18025C",
"v.	c #0A0261",
"w.	c #050253",
"x.	c #6E678A",
"y.	c #FAFAF4",
"z.	c #FCFDF2",
"A.	c #FCFCF5",
"B.	c #DFDFE8",
"C.	c #4F508B",
"D.	c #070564",
"E.	c #080457",
"F.	c #6A6A8E",
"G.	c #EAEAEC",
"H.	c #ECEBF1",
"I.	c #EBECED",
"J.	c #A09EBC",
"K.	c #090663",
"L.	c #050264",
"M.	c #0B095B",
"N.	c #463664",
"O.	c #C56B73",
"P.	c #BB545C",
"Q.	c #A85057",
"R.	c #EEB5B5",
"S.	c #E28D8E",
"T.	c #E18486",
"U.	c #DC777A",
"V.	c #E79798",
"W.	c #514879",
"X.	c #0E0C60",
"Y.	c #060250",
"Z.	c #8C8DAA",
"`.	c #FCFCF6",
" +	c #FCFDF3",
".+	c #ACAAC2",
"++	c #0F0763",
"@+	c #100E60",
"#+	c #323071",
"$+	c #34327C",
"%+	c #35327A",
"&+	c #39387D",
"*+	c #13116D",
"=+	c #060262",
"-+	c #2D044E",
";+	c #820A34",
">+	c #A20A1F",
",+	c #51234B",
"'+	c #9A9AB4",
")+	c #E7C1C1",
"!+	c #E9AAA9",
"~+	c #DBA2A2",
"{+	c #E6A5A6",
"]+	c #777798",
"^+	c #252262",
"/+	c #080459",
"(+	c #060356",
"_+	c #9898AE",
":+	c #FDFCFC",
"<+	c #FDFEF9",
"[+	c #8F8EB3",
"}+	c #040261",
"|+	c #05025E",
"1+	c #05025D",
"2+	c #070358",
"3+	c #050362",
"4+	c #050262",
"5+	c #14035C",
"6+	c #500548",
"7+	c #870D37",
"8+	c #5C0943",
"9+	c #1D0451",
"0+	c #070355",
"a+	c #1A1856",
"b+	c #6F6D92",
"c+	c #F1E2E6",
"d+	c #E7CAC9",
"e+	c #EDC9C8",
"f+	c #525082",
"g+	c #1C195E",
"h+	c #07034F",
"i+	c #050250",
"j+	c #8F8EAC",
"k+	c #FDFDFC",
"l+	c #FEFEFB",
"m+	c #FCFDF5",
"n+	c #A9A8C0",
"o+	c #050257",
"p+	c #040263",
"q+	c #1A1954",
"r+	c #525279",
"s+	c #56537A",
"t+	c #58567F",
"u+	c #4F4672",
"v+	c #3C0C46",
"w+	c #6B0B39",
"x+	c #51054A",
"y+	c #1B035B",
"z+	c #070262",
"A+	c #05035E",
"B+	c #0D0B58",
"C+	c #787997",
"D+	c #575780",
"E+	c #292659",
"F+	c #6D6D92",
"G+	c #FBFBF7",
"H+	c #FEFEFE",
"I+	c #FDFDF7",
"J+	c #E0E0E8",
"K+	c #28255D",
"L+	c #05025B",
"M+	c #09054D",
"N+	c #6E6E92",
"O+	c #F5F7F2",
"P+	c #F7F0ED",
"Q+	c #EEDADA",
"R+	c #C19097",
"S+	c #400E49",
"T+	c #13035A",
"U+	c #060265",
"V+	c #131053",
"W+	c #9C9CB8",
"X+	c #EEEEF0",
"Y+	c #FDFEFB",
"Z+	c #FBFCF4",
"`+	c #B9B8CD",
" @	c #5A5D7F",
".@	c #767694",
"+@	c #DFDBE1",
"@@	c #F5E3E0",
"#@	c #ECD1D2",
"$@	c #F1D8D9",
"%@	c #9F94B5",
"&@	c #11106C",
"*@	c #080452",
"=@	c #373762",
"-@	c #DBDBE6",
";@	c #FDFCFA",
">@	c #FCFDF4",
",@	c #FBFAF8",
"'@	c #CAE4D6",
")@	c #C7D4D0",
"!@	c #F1E0DE",
"~@	c #F6EBEA",
"{@	c #F9F7FB",
"]@	c #DFDDE8",
"^@	c #66659A",
"/@	c #070663",
"(@	c #040262",
"_@	c #08044F",
":@	c #1B1852",
"<@	c #9D9CBB",
"[@	c #41406D",
"}@	c #5B5A86",
"|@	c #5A5882",
"1@	c #A1A2BD",
"2@	c #F9FAF2",
"3@	c #76A68D",
"4@	c #75938B",
"5@	c #FBFBF5",
"6@	c #F8F7F3",
"7@	c #C6C5D7",
"8@	c #5B5B91",
"9@	c #1B1A66",
"0@	c #050363",
"a@	c #05035F",
"b@	c #050251",
"c@	c #05025A",
"d@	c #060352",
"e@	c #0A084F",
"f@	c #1D1B59",
"g@	c #3E3C6D",
"h@	c #39376A",
"i@	c #8887AB",
"j@	c #8987A8",
"k@	c #757395",
"l@	c #B9B8CC",
"m@	c #8C8EB1",
"n@	c #8788AB",
"o@	c #737299",
"p@	c #9697B9",
"q@	c #737298",
"r@	c #7A79A1",
"s@	c #8888AA",
"t@	c #6A6897",
"u@	c #8789A5",
"v@	c #9D9CBC",
"w@	c #25235B",
"x@	c #8185A9",
"y@	c #A9B1BD",
"z@	c #9495AE",
"A@	c #7E88A0",
"B@	c #939CAC",
"C@	c #A4A5B9",
"D@	c #B5AFC1",
"E@	c #7777A5",
"F@	c #7E7EA0",
"G@	c #3B3B72",
"H@	c #131152",
"I@	c #434271",
"J@	c #575683",
"K@	c #52507C",
"L@	c #6E6D96",
"M@	c #9B9BB6",
"N@	c #3D3D72",
"O@	c #201F5E",
"P@	c #7E7EA4",
"Q@	c #51517E",
"R@	c #4E4E7A",
"S@	c #2E2D61",
"T@	c #6C6B95",
"U@	c #1B184E",
"V@	c #27245A",
"W@	c #100C4D",
"X@	c #8484A7",
"Y@	c #4C4D7E",
"Z@	c #5C5A8C",
"`@	c #333267",
" #	c #7779A0",
".#	c #75759B",
"+#	c #52507E",
"@#	c #7474A0",
"##	c #7E7D9E",
"$#	c #73739B",
"%#	c #110E4B",
"&#	c #49497D",
"*#	c #606285",
"=#	c #67688D",
"-#	c #4B4D77",
";#	c #504E79",
">#	c #5E5C84",
",#	c #524F7A",
"'#	c #565482",
")#	c #9A96B1",
"!#	c #595987",
"~#	c #5B598D",
"{#	c #2D2B5E",
"]#	c #34355E",
"^#	c #24215C",
"/#	c #28275A",
"(#	c #2D2A60",
"_#	c #413E6F",
":#	c #100D45",
"<#	c #0C0A50",
"[#	c #3F3E73",
"}#	c #1A1852",
"|#	c #323266",
"1#	c #27275A",
"2#	c #555588",
"3#	c #22215A",
"4#	c #7E7DA3",
"5#	c #17154F",
"6#	c #767896",
"7#	c #413F6D",
"8#	c #8584A8",
"9#	c #26235D",
"0#	c #3F3F6F",
"a#	c #494977",
"b#	c #2E2E68",
"c#	c #23225B",
"d#	c #9DA3BA",
"e#	c #16144B",
"f#	c #73749C",
"g#	c #9A9CBA",
"h#	c #2E2C66",
"i#	c #777B9B",
"j#	c #AAAEC3",
"k#	c #2C2A66",
"l#	c #555583",
"m#	c #15134F",
"n#	c #0D0B47",
"o#	c #514F81",
"p#	c #24215F",
"q#	c #7D7EA2",
"r#	c #AAAAC5",
"s#	c #A5A6BD",
"t#	c #302E60",
"u#	c #3B3A66",
"v#	c #16144E",
"w#	c #8989A7",
"x#	c #797C97",
"y#	c #3E3B6C",
"z#	c #35336A",
"A#	c #2B2A62",
"B#	c #3D3C7C",
"C#	c #3D3C6A",
"D#	c #8485AA",
"E#	c #2D2D68",
"F#	c #8685A2",
"G#	c #323062",
"H#	c #2F2E66",
"I#	c #4C4B81",
"J#	c #433E6A",
"K#	c #38386E",
"L#	c #7C7B9D",
"M#	c #9595B5",
"N#	c #393868",
"O#	c #3C3A6F",
"P#	c #A2A1BA",
"Q#	c #6E7091",
"R#	c #2E2D64",
"S#	c #302E71",
"T#	c #7C7C9C",
"U#	c #9EA1B9",
"V#	c #444272",
"W#	c #2D2C62",
"X#	c #58547B",
"Y#	c #737497",
"Z#	c #2A2966",
"`#	c #56557C",
" $	c #777D98",
".$	c #65638B",
"+$	c #777B99",
"@$	c #52527A",
"#$	c #959CB5",
"$$	c #373668",
"%$	c #515081",
"&$	c #3E3D6E",
"*$	c #4E4E7E",
"                                                                                                  ",
"                                    . + @ # $ %       & & * =     - ; > , ' ) ! ~ { ] ^ / ( _     ",
"                              : < [ } | 1 2 3 4 5 6 7 8 9 0 a b c d e f g h i j k l m m m n o p   ",
"                          q r s t u u v w x y z A B C D E F G H I J K L M N O P Q R S m T U V     ",
"                          W X v Y Z `  ...+.@.#.$.%.&.*.=.-.;.>.,.'.).!.          ~.{.].^./.      ",
"                          (._.:.<.[.}.|.1.2.3.4.5.6.7.8.9.0.a.b.c.d.e.f.g.h.i.    j.k.l.m.        ",
"                        n.o.p.q.r.s.t.u.v.w.x.y.z.A.B.C.D.E.F.G.H.I.J.K.L.L.M.N.O.P.Q.            ",
"                R.S.T.U.V.    W.X.v u u u Y.Z.`. +z..+++u v @+#+$+%+&+*+u =+-+;+>+,+'+            ",
"          )+!+~+{+              ]+^+/+v u (+_+:+<+y.[+u u u }+|+1+2+3+4+5+6+7+8+9+0+a+b+          ",
"    c+d+e+                          f+g+h+i+j+k+l+m+n+o+u p+q+r+s+t+u+v+w+x+y+z+u u A+B+C+        ",
"                                        D+E+F+G+H+I+J+K+L+M+N+O+P+Q+R+S+T+U+u u u u u u V+        ",
"                                            W+X+H+Y+Z+`+ @.@+@@@#@$@%@&@u u u u u u u u *@=@      ",
"                                                -@;@>@,@'@)@!@~@{@]@^@/@u u u u u u (@_@:@        ",
"    <@[@}@|@                                    1@G. +2@3@4@5@6@7@8@9@0@a@b@c@c@d@e@f@g@          ",
"    h@i@      j@k@  l@m@n@o@  p@q@r@    s@t@u@v@w@x@y@z@A@B@C@D@  E@F@G@H@I@J@K@L@M@              ",
"  N@O@      P@Q@R@S@T@U@V@W@X@Y@Z@`@ #.#+#@###$#%#&#*#=#-#;#>#,#  '#)#!#~#{#                      ",
"  ]#^#      /#    (#_#:#  <#[#}#|#1#2#3#4#      5#      6#7#8#9#J.0#  a#b#c#                      ",
"  d#e#f#  g#h#i#j#k#l#m#  n#o#p#q#r#s#t#u#      v#w#    x#y#  z#A#  B#C#D#E#                      ",
"    F#G#H#I###J#K#L#M#N#  O#P#Q#R#S#T#U#V#W#X#  Y#Z#`#   $.$  +$@$  #$$$%$&$*$                    ",
"                                                                                                  "};
