/* XPM */
static char * deb_xpm[] = {
"50 61 65 1",
" 	c None",
".	c #7F0B32",
"+	c #721D3A",
"@	c #943F5B",
"#	c #92727E",
"$	c #B5A0A6",
"%	c #D0C0C2",
"&	c #FDCDE2",
"*	c #FCE0F1",
"=	c #FEF0FA",
"-	c #A80535",
";	c #FDF6FB",
">	c #E24673",
",	c #CA728D",
"'	c #9F1741",
")	c #C3043C",
"!	c #CC9EA9",
"~	c #885C6A",
"{	c #F4FDFB",
"]	c #A43155",
"^	c #D1839C",
"/	c #FEFAFC",
"(	c #E195AE",
"_	c #AF4163",
":	c #A85A72",
"<	c #8F0730",
"[	c #BF1C4D",
"}	c #DBABBA",
"|	c #E77D9F",
"1	c #B01242",
"2	c #F9719A",
"3	c #FAFEFE",
"4	c #DAB2BA",
"5	c #A92A51",
"6	c #95123C",
"7	c #BC5073",
"8	c #BF5D7C",
"9	c #B40438",
"0	c #893451",
"a	c #FAC4D9",
"b	c #9F2148",
"c	c #B8325B",
"d	c #E4A8BE",
"e	c #9D032F",
"f	c #FDE8F7",
"g	c #B20E3F",
"h	c #8B1F42",
"i	c #C51047",
"j	c #FA86AB",
"k	c #F45C88",
"l	c #FDD6E9",
"m	c #CF0541",
"n	c #FEFEFE",
"o	c #BF4569",
"p	c #DD7193",
"q	c #B5748B",
"r	c #9C0C37",
"s	c #B58A97",
"t	c #F798B8",
"u	c #FBB9D2",
"v	c #E88BA5",
"w	c #D06082",
"x	c #AD234D",
"y	c #A70E3B",
"z	c #F8A9C1",
"nnn/nnnnnn{{{{{n/;=&tt22&2pul*f=;/n3{{3nn/;/nnn/nn",
"3n/n/nnn;n{{{{n;;u,]6yr-y<c7_@,zl=;;nnn//n3;;nnnnn",
"nn//nnnnnn3;;;ft7x'y9m))m9)ieeyxhpu*=f=;/n{{33/nnn",
"3nnn/nnn3=;;=uwxy-))))))m)9))))e-rx5b_tf=;/33n/nnn",
"nnnnn33n/;;lv]e9m))))99)9))999)m)9)i-e'@zf;//3//nn",
"nn/nnn3n;;z_6e9m)mm99geyy6rry1--99))))9y5vl=;n{3nn",
"/nn3{3n/=v0<g))))99exo8,zzuuut,7'r99)m))<xpu=/{3nn",
"nnn33n/fv5e9))))9r'7uff===;////=lvc-9))mm9e8&=3{nn",
"=n{{3;=t69)))9-y.h,l=;;nnnnn3nn/f=fv6e)9))9y,*n{nn",
"n/33==(x9))miebv**=;/;/{33{{{{33nn=*z_<))m)9'^;/n3",
"=nnn;l_e))m)ebv*=;/;;{nnnnnnnnnn3n/;=z_<)mmm-bz;nn",
";/n==we)))997dl//nnn3n3{nnnnnnnn{3n===z]e)mm)<of=/",
"nff=&h-))-xj*==n;///n/;nnn//nnnnn//n=;fz'-m)mgrt;n",
"=$&fpy)9ecz=;nn/n//nn//nnnnn/nnnn/nnn;==|e)))9<_f/",
";%*txg)95u=/{{{33n/nnn;nnnnnnnnn;/;;3n/=l5<)99ch&;",
";=lhe99'ufn{{{3n3nn;nn{n//;==;;///nnn3n/=^1i)ku0l;",
"/=7yi-hu=;nn33nnnn/={{n;=fluzu*=;/n3{3n/=&5-)ikvf;",
"a&[99-^=/nnnnnnnn;/3;==lq@++h+0~l=n{;n3;/=wg)-o&}=",
"!v-)e'a=nnnnnnnn//33/=u@+0qd&a4}~$;nn{3n/=jr9-'ls=",
"to-iec&;nnnnnnnnnn3==u]+v&==f;{ff%%*nn333far9ixud;",
"ab99yvfnnnnnnnn3n=3;u_0z*=;//nn//=={//3n3;f6-iba&=",
"jeieol=nn3nnnn{nn/==:.tf//;nn33/=;/;;/n3{nf'-erl=n",
">-)e|=/{{nnnnn{3n/=dh8=f/{n/;;3;=33/=/nn{n=_g9'a=n",
">i9iz=n{nnnnnnn{//=80a=/{{n3nnnnn/{nn;;n{;f_g-r7/3",
"kg9r*;{{nn/nnnn{3;l+8f=nn3n3nnnnnn3n$;;n3/f_gy6v;n",
"2g-6*n{{n/n//n3nn=(+^=/;nn33nnn3=n{;$=//{;*hg-6&;n",
"k1g5fn{{n/nnnnnnn=,h(=/;nnnnn33333/n=/nn3=l<1e5*;n",
">e-o=n{{n/nn/nnn/;,h,f;n//nnnn33nn3*//{{/=lbyepa/n",
">r-8=n{{nnn3nnnn/;vh7f/3nnnnnn33//*$==/{n=u'<xz(/n",
"kyywfn{3nn{{nn///ft.]*/{{n/;nn333=s$;/nn;*prewa4nn",
"kyyp=n{3nn{{3n//nfuhbz;{{n/;nn33n*#4;;n/;^5rxzu*nn",
">eg|=n{{nn{{nnnnn/*]<pf/3{///n//;/*/f/n;f0<bo*!;/n",
"2e1c=n{{/n{{nnnn3/*]b<a=/3{n*#@#nnnn//;fuh6|zl%/nn",
"2y1c*/n3nnn{nn3{{/u|]b_*=/{3{f==/;{n/;la].hul&fnnn",
"2'e'a;{{nnnnnn33nf~ttb<wf=/=////{nnf**jb.b7*;=n{nn",
"tb9't/{{n/nnnn33//u:|t567zf=/n=;/;=ftcrr_(&;=nnnnn",
"a'9y,/{{nnnnnn{{/n;s^5j'<b|&l====faw66bbzf;n={{nnn",
"l]e-ofn{nnn/nn33n/;=f(]2cr65:^(^,0hh6bpl=/{{{{n/nn",
"f8y95u;nnnnnnn3{;n3n/=l_75b66h.hh..0,af=;{{{{{3nnn",
"=vr9-jf=nnnn/n3{nn3{{/=*t@7tt||j|(u*f;/n{{{{{nn/nn",
";&69-9]d;n{;/n3{nnn3{33;=*zq:_8,u*=//nn33{333nnnnn",
"/=7em9e]l3{{//33nnnnn3n3n/;ffff=f/nn{3{{3nn///nnnn",
";;ze))-ru={{nnnnnnnnnnnn;3nn////n3nn{3nnnnnn///nnn",
"/;l_e))1z=n{3=/{{3n///n33nn;;/nn{{{nnn3nnnnnn/nnnn",
"n/=v-)9g|==;{;3n33nn/nnnn/{nnnnn3//n///n33nnnnnnnn",
"3n;&_g9gcl/{{{n{{{nnn//n//nn//{;nn///;{333nnnnnnnn",
"3nnfv1-i<v;n{{nnn3nnnnnn3333/nnn33n3{/{nnnnnnn{{nn",
"nnn==_g9-8*/33/nnn333333n{3n{/n333333{nnn///nn{{3n",
";nn=;u59-eu=/;=/nnn333{3nnn//nn3nnnnnnnnnnnnnnnnnn",
"/n{{/=j19g5&=nnnn{333{;/nn//nnn3nnnnnnnnnnnnnnnnnn",
"/{{{//fwr--ou;3{{n{3nn//nnn33nnnnnnnnnnnnnnnnnnnnn",
"{{{3{/;l_<gew*{{3nnn/nn/nn{{3n//nnnnnnnnnnnnnnnnnn",
"333n3;{/&7egxt=/n///;;//nnnnnnnnnnnnnnnnnnnnnnnnnn",
"3nnn{{{n;&7<e5pu/n=;//nnnnnn//nnnnnnnnnnnnnnnnnnnn",
"nnn/nn3;=;l]'<ro&//;/n/nn//n//nnnnnnnnnnnnnnnnnnnn",
"nn/nn//3{f;fw'-r7&=;nnnnnnnnnn/nnnnnnnnnnnnnnnnnnn",
"3{{3nn/nn{/;f|'667&lf/n33{{{3n//nnnnnnnnnnnnnnnnnn",
"3333nnnn{3{;;=z766b0d=;/33333nnnnnnnnnnnnnnnnnnnnn",
"{{{nnnn3{{{n=;;ft5.6ht==;//n/nn3nnnnnnnnnnnnnnnnnn",
"33nnnn3{{{{3nnn/f*z7.b8uff==;/33nnnnnnnnnnnnnnnnnn",
"nnnnnnnnnn/nnn3n=/==at_'c7^4f/nnnnnnnnnnnnnnnnnnnn"};
