/* XPM */
static char * distupgrade_small_xpm[] = {
"32 32 511 2",
"  	c None",
". 	c #4A4836",
"+ 	c #8E8A66",
"@ 	c #8E8E8D",
"# 	c #4A4A4B",
"$ 	c #020204",
"% 	c #AAA579",
"& 	c #E2DBA0",
"* 	c #FEF6B4",
"= 	c #807C5C",
"- 	c #807E72",
"; 	c #FEFCF7",
"> 	c #FEFEFB",
", 	c #E2E2E0",
"' 	c #AAAAA9",
") 	c #45422D",
"! 	c #868158",
"~ 	c #F4EA9B",
"{ 	c #F4EAA2",
"] 	c #F5EA9E",
"^ 	c #E9DE8F",
"/ 	c #777332",
"( 	c #888361",
"_ 	c #FAF7DD",
": 	c #F8F2C8",
"< 	c #FAF6D2",
"[ 	c #FCF8DE",
"} 	c #FDF9EA",
"| 	c #FDFCF1",
"1 	c #8E8D84",
"2 	c #4A4948",
"3 	c #989056",
"4 	c #CEC479",
"5 	c #E7DB86",
"6 	c #E9DD86",
"7 	c #E9DD85",
"8 	c #E9DD89",
"9 	c #E5D87F",
"0 	c #DECF72",
"a 	c #C0BA25",
"b 	c #BCBA0F",
"c 	c #EFE290",
"d 	c #F3EBAC",
"e 	c #FCF9E5",
"f 	c #F6F0BF",
"g 	c #F5EEB6",
"h 	c #F8F2CA",
"i 	c #F9F4CF",
"j 	c #FBF6D9",
"k 	c #DFDCC9",
"l 	c #A9A696",
"m 	c #3F3A20",
"n 	c #7A713E",
"o 	c #DBCB6F",
"p 	c #DDCD72",
"q 	c #DCCD72",
"r 	c #D8CB6F",
"s 	c #CFC36C",
"t 	c #B9AE4E",
"u 	c #A9A22B",
"v 	c #A09C04",
"w 	c #A8A704",
"x 	c #AAAA04",
"y 	c #EBDF81",
"z 	c #EADE81",
"A 	c #EADD82",
"B 	c #F1EAB6",
"C 	c #F3EFCA",
"D 	c #F6F1C1",
"E 	c #F2E99F",
"F 	c #F5EBAA",
"G 	c #F5EEB3",
"H 	c #F7F0BF",
"I 	c #F8F2C5",
"J 	c #8A876E",
"K 	c #48473C",
"L 	c #8C7F3D",
"M 	c #D1BE5A",
"N 	c #C5B458",
"O 	c #AE9F53",
"P 	c #938D21",
"Q 	c #8D890E",
"R 	c #8C8C04",
"S 	c #929004",
"T 	c #989704",
"U 	c #9E9D04",
"V 	c #DED277",
"W 	c #DCD077",
"X 	c #D9CD74",
"Y 	c #D4C871",
"Z 	c #D5CB7E",
"` 	c #DCD49C",
" .	c #F9F5D6",
"..	c #F3EAA5",
"+.	c #F0E693",
"@.	c #F3E89F",
"#.	c #F3EAA3",
"$.	c #F5EDB0",
"%.	c #A39E77",
"&.	c #998A38",
"*.	c #C5B247",
"=.	c #AA973F",
"-.	c #867931",
";.	c #72650C",
">.	c #6B6704",
",.	c #706D04",
"'.	c #737204",
").	c #7B7904",
"!.	c #817E04",
"~.	c #878404",
"{.	c #8D8B04",
"].	c #CABF69",
"^.	c #C8BD69",
"/.	c #C5B967",
"(.	c #C3B763",
"_.	c #BDB261",
":.	c #BAAF61",
"<.	c #B6AB5E",
"[.	c #D2CCA1",
"}.	c #E7E2BC",
"|.	c #EEE285",
"1.	c #BBB270",
"2.	c #17150E",
"3.	c #605920",
"4.	c #544C1A",
"5.	c #534E0D",
"6.	c #595314",
"7.	c #5D5906",
"8.	c #635F05",
"9.	c #686504",
"0.	c #6D6B04",
"a.	c #747104",
"b.	c #797604",
"c.	c #7F7C04",
"d.	c #B7AD5F",
"e.	c #B8AD5F",
"f.	c #B2A85A",
"g.	c #B1A657",
"h.	c #ACA257",
"i.	c #A9A057",
"j.	c #A39A50",
"k.	c #A29850",
"l.	c #A89F61",
"m.	c #B9B384",
"n.	c #888048",
"o.	c #1C1B12",
"p.	c #AA9F64",
"q.	c #E2D484",
"r.	c #847E3F",
"s.	c #5A551D",
"t.	c #47430C",
"u.	c #4A450A",
"v.	c #534D07",
"w.	c #555106",
"x.	c #5B5A0B",
"y.	c #605D07",
"z.	c #7F7C05",
"A.	c #666503",
"B.	c #364616",
"C.	c #96914A",
"D.	c #9E964E",
"E.	c #9A9249",
"F.	c #978E49",
"G.	c #938A47",
"H.	c #908743",
"I.	c #8C8240",
"J.	c #948B55",
"K.	c #ADA47D",
"L.	c #6F6C4B",
"M.	c #FCF1AD",
"N.	c #D5CB8C",
"O.	c #979260",
"P.	c #48430D",
"Q.	c #433E0C",
"R.	c #48440A",
"S.	c #504C09",
"T.	c #7F7B05",
"U.	c #5A5A03",
"V.	c #193C00",
"W.	c #226D01",
"X.	c #3A6512",
"Y.	c #87803F",
"Z.	c #887F3E",
"`.	c #877E3F",
" +	c #847A3F",
".+	c #726A33",
"++	c #B1AC8C",
"@+	c #E0DECF",
"#+	c #55533D",
"$+	c #88867B",
"%+	c #A29E7F",
"&+	c #C0BB97",
"*+	c #E0DBB2",
"=+	c #FDF9D9",
"-+	c #7F7B57",
";+	c #544E25",
">+	c #6E6B07",
",+	c #5B5D02",
"'+	c #123C00",
")+	c #2C8703",
"!+	c #4DBC13",
"~+	c #319305",
"{+	c #154500",
"]+	c #525222",
"^+	c #7D743F",
"/+	c #958E5D",
"(+	c #FDFAE4",
"_+	c #D3D2C0",
":+	c #9A9676",
"<+	c #504A0A",
"[+	c #4D440B",
"}+	c #EFEDE2",
"|+	c #D1CCB4",
"1+	c #A7A485",
"2+	c #ABA989",
"3+	c #FEFBF3",
"4+	c #C5C49D",
"5+	c #595B10",
"6+	c #194200",
"7+	c #2C8803",
"8+	c #65C929",
"9+	c #59CC1C",
"0+	c #46CA0F",
"a+	c #2D8F02",
"b+	c #376811",
"c+	c #CCC785",
"d+	c #FDF6C3",
"e+	c #838053",
"f+	c #706527",
"g+	c #726C07",
"h+	c #878306",
"i+	c #595704",
"j+	c #F8F4E2",
"k+	c #D6D1B8",
"l+	c #A19D62",
"m+	c #57590F",
"n+	c #174C00",
"o+	c #4BA424",
"p+	c #6CCF38",
"q+	c #58C91E",
"r+	c #3AC000",
"s+	c #51C91D",
"t+	c #64D833",
"u+	c #4BA921",
"v+	c #3A7510",
"w+	c #353906",
"x+	c #8C800B",
"y+	c #6D6B03",
"z+	c #898604",
"A+	c #585604",
"B+	c #AAAA9E",
"C+	c #FEFCF1",
"D+	c #FEFEEC",
"E+	c #FEFCE4",
"F+	c #FEFDE5",
"G+	c #939071",
"H+	c #355620",
"I+	c #89B575",
"J+	c #9FCA8C",
"K+	c #7DB266",
"L+	c #44B314",
"M+	c #40C107",
"N+	c #87D163",
"O+	c #B8DDA2",
"P+	c #BFD8A2",
"Q+	c #96BE72",
"R+	c #3E5B1D",
"S+	c #787503",
"T+	c #1B3200",
"U+	c #193000",
"V+	c #666303",
"W+	c #545304",
"X+	c #AAAA99",
"Y+	c #FEFCEC",
"Z+	c #FEFCE2",
"`+	c #FDFBE1",
" @	c #FEFBD8",
".@	c #FEFAD5",
"+@	c #CED5A5",
"@@	c #879F67",
"#@	c #768758",
"$@	c #416428",
"%@	c #34A802",
"&@	c #52C321",
"*@	c #B6DEA3",
"=@	c #7A9630",
"-@	c #9A9704",
";@	c #A19D04",
">@	c #7A7903",
",@	c #0E2F00",
"'@	c #257901",
")@	c #353503",
"!@	c #FEFBD4",
"~@	c #FEFAD0",
"{@	c #FEFACC",
"]@	c #FEF7C4",
"^@	c #BDBA89",
"/@	c #274F10",
"(@	c #39AB08",
"_@	c #66CE38",
":@	c #C2E5B1",
"<@	c #4C792E",
"[@	c #818D03",
"}@	c #52BC16",
"|@	c #48B414",
"1@	c #0A2200",
"2@	c #AAA898",
"3@	c #FEF9C1",
"4@	c #FEF8BC",
"5@	c #FEFAB9",
"6@	c #313A21",
"7@	c #257503",
"8@	c #42B211",
"9@	c #9FE381",
"0@	c #B6D7A7",
"a@	c #355A14",
"b@	c #676C03",
"c@	c #5EC720",
"d@	c #65D029",
"e@	c #40C807",
"f@	c #43C50D",
"g@	c #257A01",
"h@	c #030A01",
"i@	c #A8A68D",
"j@	c #FEFAC1",
"k@	c #FEF9BC",
"l@	c #DBD690",
"m@	c #6E724C",
"n@	c #1E5405",
"o@	c #3DA70F",
"p@	c #75CF4E",
"q@	c #C7EBB6",
"r@	c #749D5E",
"s@	c #4C6301",
"t@	c #1D3300",
"u@	c #3E9C15",
"v@	c #6ECD44",
"w@	c #6AD035",
"x@	c #3EC005",
"y@	c #47C310",
"z@	c #6EDC40",
"A@	c #65C839",
"B@	c #39970F",
"C@	c #0C2600",
"D@	c #030C00",
"E@	c #465034",
"F@	c #C2BF99",
"G@	c #FEF9C9",
"H@	c #BCB85A",
"I@	c #898649",
"J@	c #31370B",
"K@	c #174A00",
"L@	c #399710",
"M@	c #70CD48",
"N@	c #BEE7AB",
"O@	c #A3C690",
"P@	c #718A1B",
"Q@	c #0A2300",
"R@	c #52843D",
"S@	c #9BB78E",
"T@	c #769668",
"U@	c #55A534",
"V@	c #38B800",
"W@	c #70CF45",
"X@	c #AAD097",
"Y@	c #A0BA94",
"Z@	c #96B588",
"`@	c #4F7B3D",
" #	c #081D00",
".#	c #848868",
"+#	c #2E411D",
"@#	c #111D09",
"##	c #132309",
"$#	c #102600",
"%#	c #174400",
"&#	c #287D04",
"*#	c #5AAE35",
"=#	c #9CE07D",
"-#	c #BBE0A9",
";#	c #A0BF84",
">#	c #899D23",
",#	c #999804",
"'#	c #667203",
")#	c #657503",
"!#	c #5E6D03",
"~#	c #1E2201",
"{#	c #2B8802",
"]#	c #3CB906",
"^#	c #94D975",
"/#	c #8CB17B",
"(#	c #123B01",
"_#	c #081903",
":#	c #081B02",
"<#	c #AAA779",
"[#	c #C8C28D",
"}#	c #101C08",
"|#	c #1D3E0F",
"1#	c #37990D",
"2#	c #6AB847",
"3#	c #A3D98A",
"4#	c #AEE097",
"5#	c #E7EFA8",
"6#	c #DDE394",
"7#	c #CDD06B",
"8#	c #9A9904",
"9#	c #949204",
"0#	c #8B8904",
"a#	c #858304",
"b#	c #6F6D04",
"c#	c #212C01",
"d#	c #2E8A06",
"e#	c #4ABF17",
"f#	c #ADEA92",
"g#	c #89AD79",
"h#	c #103301",
"i#	c #AAA679",
"j#	c #FEF9B4",
"k#	c #FEF8AB",
"l#	c #FEF7A7",
"m#	c #FEF6A2",
"n#	c #C6C079",
"o#	c #C6BF7C",
"p#	c #FEF692",
"q#	c #FEF58C",
"r#	c #8F8C04",
"s#	c #878604",
"t#	c #817F04",
"u#	c #505003",
"v#	c #164600",
"w#	c #349C07",
"x#	c #69D23B",
"y#	c #CAE7BD",
"z#	c #5B8647",
"A#	c #293204",
"B#	c #726E52",
"C#	c #FEF6AD",
"D#	c #FEF6A4",
"E#	c #FEF6A0",
"F#	c #FEF59A",
"G#	c #FEF690",
"H#	c #555231",
"I#	c #3B3F20",
"J#	c #E2D97A",
"K#	c #FEF282",
"L#	c #FEF380",
"M#	c #8C8A04",
"N#	c #807E04",
"O#	c #605F03",
"P#	c #318A0B",
"Q#	c #59C32C",
"R#	c #AFE696",
"S#	c #A4C295",
"T#	c #335A13",
"U#	c #201E08",
"V#	c #565338",
"W#	c #C6C07D",
"X#	c #FEF698",
"Y#	c #FEF592",
"Z#	c #FEF389",
"`#	c #C6BE6E",
" $	c #051100",
".$	c #3B4020",
"+$	c #8D8743",
"@$	c #FEF37D",
"#$	c #8A8804",
"$$	c #848104",
"%$	c #292801",
"&$	c #172F00",
"*$	c #297B05",
"=$	c #56B92A",
"-$	c #A3E187",
";$	c #C3E0B3",
">$	c #578841",
",$	c #192A05",
"'$	c #4A482B",
")$	c #AAA35C",
"!$	c #FEF384",
"~$	c #C6BD67",
"{$	c #222E0D",
"]$	c #071800",
"^$	c #071600",
"/$	c #091D00",
"($	c #216C00",
"_$	c #38960F",
":$	c #8AD26A",
"<$	c #B5EA9D",
"[$	c #A6C496",
"}$	c #5A8A43",
"|$	c #565230",
"1$	c #C6BF6A",
"2$	c #FEF37A",
"3$	c #C6BC5A",
"4$	c #72702A",
"5$	c #2E6F12",
"6$	c #4AAA1F",
"7$	c #8DCA71",
"8$	c #AFE098",
"9$	c #A4D18F",
"0$	c #699356",
"a$	c #2E6217",
"b$	c #4A4724",
"c$	c #AAA24F",
"d$	c #FEF25F",
"e$	c #2F4401",
"f$	c #2E4501",
"g$	c #0D2901",
"h$	c #133F01",
"i$	c #565222",
"j$	c #C6BD4B",
"k$	c #5A5704",
"l$	c #262504",
"                                                                ",
"                                                                ",
"                      . + +         @ @ #                       ",
"                  $ % & * * =     - ; > , ' $                   ",
"              ) ! ~ { ] ] ] ^ / ( _ : < [ } | 1 2               ",
"          $ 3 4 5 6 7 8 9 0 a b c d e f g h i j k l $           ",
"      m n o p o q r s t u v w x y z A B C D E F G H I J K       ",
"    $ L M M M M N O P Q R S T U V W X Y Z `  ...+.@.#.$.%.$     ",
"        &.*.=.-.;.>.,.'.).!.~.{.].^./.(._.:.<.[.}.d |.1.        ",
"    $ $ 2.3.4.5.6.7.8.9.0.a.b.c.d.e.f.g.h.i.j.k.l.m.n.o.$ $     ",
"      $ p.q.r.s.t.u.v.w.x.y.z.A.B.C.D.E.F.G.H.I.J.K., ' $       ",
"        $ L.M.N.O.P.Q.R.S.T.U.V.W.X.Y.Z.`. +.+++@+> #+$         ",
"          $+%+&+*+=+-+;+>+,+'+)+!+~+{+]+^+/+(+_+:+<+[+          ",
"          ' }+|+1+2+3+4+5+6+7+8+9+0+a+b+c+d+e+f+g+h+i+          ",
"          ' > ; j+k+l+m+n+o+p+q+r+s+t+u+v+w+x+y+y+z+A+          ",
"          B+C+D+E+F+G+H+I+J+K+L+M+N+O+P+Q+R+S+T+U+V+W+          ",
"          X+Y+Z+`+ @.@+@@@#@$@%@&@*@=@-@;@>@,@'@'@,@)@          ",
"          X+`+ @!@!@~@{@]@^@/@(@_@:@<@[@>@T+'@}@|@'@1@          ",
"          2@.@.@{@{@3@4@5@6@7@8@9@0@a@b@,@'@c@d@e@f@g@,@        ",
"        h@i@{@{@{@j@k@l@m@n@o@p@q@r@s@t@u@v@w@x@y@z@A@B@C@      ",
"        D@E@F@G@5@H@I@J@K@L@M@N@O@P@Q@R@S@T@U@V@W@X@Y@Z@`@ #    ",
"          .#+#@###$#%#&#*#=#-#;#>#,#'#)#!#~#{#]#^#/#(#_#:#      ",
"          <#[#}#|#1#2#3#4#5#6#7#8#9#0#a#b#c#d#e#f#g#h#$ $ $     ",
"          i#j#k#l#m#n#o#p#q#p#q#9#r#s#t#u#v#w#x#y#z#A#$ $ $     ",
"          B#C#D#E#F#G#H#I#J#K#L#M#s#N#O#,@P#Q#R#S#T#U#$         ",
"            V#W#X#Y#Z#`# $.$+$@$#$$$%$&$*$=$-$;$>$,$            ",
"                '$)$q#!$~${$]$^$/$C@($_$:$<$[$}$                ",
"                    |$1$2$3$4$^$5$6$7$8$9$0$a$                  ",
"                        b$c$d$d$e$f$g$h$n+                      ",
"                            i$j$k$l$                            ",
"                                                                ",
"                                                                "};
