/* XPM */
static char * distupgrade_xpm[] = {
"48 48 197 2",
"  	c None",
". 	c #020204",
"+ 	c #FEF6B4",
"@ 	c #FEFEFB",
"# 	c #FDFAE0",
"$ 	c #FEFAF1",
"% 	c #F2EAA4",
"& 	c #F9EEA3",
"* 	c #F6EEB3",
"= 	c #FAF6DC",
"- 	c #F8F2C8",
"; 	c #EEE294",
"> 	c #F2E697",
", 	c #EEE285",
"' 	c #D6C666",
") 	c #B6B604",
"! 	c #EADE7C",
"~ 	c #E2D67C",
"{ 	c #E6DA83",
"] 	c #B4B204",
"^ 	c #BCBB04",
"/ 	c #EEDE84",
"( 	c #DECE74",
"_ 	c #E1D27A",
": 	c #D9CD74",
"< 	c #BCAE5C",
"[ 	c #A29E04",
"} 	c #ACAC04",
"| 	c #928E04",
"1 	c #949204",
"2 	c #969604",
"3 	c #9D9B04",
"4 	c #A4A204",
"5 	c #A6A604",
"6 	c #CEBA54",
"7 	c #9A8C49",
"8 	c #7D7B04",
"9 	c #827E04",
"0 	c #858204",
"a 	c #868604",
"b 	c #8D8B04",
"c 	c #CDC26C",
"d 	c #CABE6C",
"e 	c #C6B244",
"f 	c #83753C",
"g 	c #866E14",
"h 	c #666204",
"i 	c #726E04",
"j 	c #757204",
"k 	c #767604",
"l 	c #8A8604",
"m 	c #C5BA64",
"n 	c #C2B664",
"o 	c #BDB264",
"p 	c #B4AA5C",
"q 	c #726234",
"r 	c #565208",
"s 	c #5D5A06",
"t 	c #625E04",
"u 	c #6A6604",
"v 	c #6D6A04",
"w 	c #6E6E04",
"x 	c #7A7604",
"y 	c #AEA65C",
"z 	c #ACA254",
"A 	c #AA9E54",
"B 	c #A59C54",
"C 	c #46420C",
"D 	c #433E0C",
"E 	c #4A460D",
"F 	c #4F4A06",
"G 	c #564E24",
"H 	c #5A5606",
"I 	c #666604",
"J 	c #9E964C",
"K 	c #9C924C",
"L 	c #968E49",
"M 	c #7E763C",
"N 	c #FEEE94",
"O 	c #564E04",
"P 	c #5E5E0C",
"Q 	c #938A44",
"R 	c #8E8644",
"S 	c #867A44",
"T 	c #8C8244",
"U 	c #877E3C",
"V 	c #796E36",
"W 	c #7A7A5C",
"X 	c #FEF2B2",
"Y 	c #3C360C",
"Z 	c #524E09",
"` 	c #827A3C",
" .	c #665E2C",
"..	c #3E3A09",
"+.	c #B2AE94",
"@.	c #928E6C",
"#.	c #FDF6CB",
"$.	c #7A7234",
"%.	c #615A2A",
"&.	c #6A5614",
"*.	c #E2DABC",
"=.	c #FEFACC",
"-.	c #38320C",
";.	c #423A0C",
">.	c #726A34",
",.	c #6B632C",
"'.	c #FEFEE4",
").	c #7A6614",
"!.	c #322A0C",
"~.	c #362E0C",
"{.	c #BAB29C",
"].	c #AE9A3C",
"^.	c #9A9604",
"/.	c #000000",
"(.	c #9A9274",
"_.	c #9A8634",
":.	c #8E7A14",
"<.	c #174C00",
"[.	c #C2BA9C",
"}.	c #CEC6B4",
"|.	c #BAB604",
"1.	c #257801",
"2.	c #FEFAB4",
"3.	c #DAD6CC",
"4.	c #AAA604",
"5.	c #33A800",
"6.	c #FAEACC",
"7.	c #7DE232",
"8.	c #66CE2C",
"9.	c #8FE54A",
"0.	c #3AC000",
"a.	c #52E11A",
"b.	c #FEF6A0",
"c.	c #44C70A",
"d.	c #35AE00",
"e.	c #87E65D",
"f.	c #91E86A",
"g.	c #7BD254",
"h.	c #38BA00",
"i.	c #3ABE00",
"j.	c #6FCE45",
"k.	c #9ECD8A",
"l.	c #E5F1DE",
"m.	c #CEE9C2",
"n.	c #86B374",
"o.	c #35B000",
"p.	c #39BC00",
"q.	c #9BD27D",
"r.	c #CDE8BF",
"s.	c #0F3400",
"t.	c #FEF68E",
"u.	c #0C3200",
"v.	c #114000",
"w.	c #247800",
"x.	c #3ABB02",
"y.	c #63934E",
"z.	c #164A00",
"A.	c #154600",
"B.	c #0F3600",
"C.	c #246D04",
"D.	c #40BA0B",
"E.	c #FEF284",
"F.	c #266F06",
"G.	c #40BB0A",
"H.	c #49B819",
"I.	c #B3EB9A",
"J.	c #588146",
"K.	c #349708",
"L.	c #ABD09C",
"M.	c #FEF274",
"N.	c #60934A",
"O.	c #0B2400",
"P.	c #4DB61F",
"Q.	c #38B800",
"R.	c #ADD098",
"S.	c #0C2800",
"T.	c #44B114",
"U.	c #A6CC8F",
"V.	c #5D9046",
"W.	c #0C2A00",
"X.	c #0D2C00",
"Y.	c #206A00",
"Z.	c #298800",
"`.	c #66BB40",
" +	c #62954B",
".+	c #A9DD90",
"++	c #D1EAC4",
"@+	c #679951",
"#+	c #FEF25F",
"$+	c #395E29",
"%+	c #38B600",
"&+	c #B0E099",
"*+	c #0B2D00",
"=+	c #0F2E00",
"-+	c #0E3300",
";+	c #123800",
">+	c #154400",
"                                                                                                ",
"                                                                                                ",
"                                      .                 .                                       ",
"                                  . . + .             . @ . .                                   ",
"                              . . + + + + .         . @ @ @ @ . .                               ",
"                          . . + + + + + + + .     . # $ @ @ @ @ @ . .                           ",
"                      . . % & * & & & * & % % . . * = - = # # $ $ @ @ . .                       ",
"                  . . ; ; > , , ; ; , ; , ' ' ) ! @ @ * - * - = = = # # $ . .                   ",
"              . . ~ { { ~ { { { { { { ' ' ] ) ^ / , , @ @ % % * - - - = = = # . .               ",
"          . . ( ( _ ( ( _ : : : : < < [ [ } } } , ! , , , @ @ % % % * * * - - - = . .           ",
"      . . ' ' ' ' ' ' ' ' ' ' < < | 1 2 3 3 4 5 ! { ~ _ ~ _ : @ @ , > > % % * * * * - . .       ",
"        . 6 6 6 6 6 6 6 6 7 7 8 9 0 a b b 1 2 3 : : : : c c c c d @ @ , , > > > % * % .         ",
"          . e e e e e f g h i i j k 8 9 a l b 1 c c c d d m n n o o p @ @ , , , , > .           ",
"            . < e q q r s t h u v w j j x 8 9 0 m n o < < < p p y z y A B @ @ , , .             ",
"      . . . . . C D E F G r H s t h I v j j x 8 y p p y z z A B B J J K K L L M . . . . .       ",
"        . . N N N E E D C E F O r H P P h v v i z A B B J J K L L Q Q Q R S f @ @ @ . .         ",
"            . . N & & E E D D E F F r r H P P h K K L L Q Q Q R T T U V V @ @ @ . .             ",
"              . W X X X - E E Y D C E F Z Z H s Q T T T U U ` f M  . .@ @ @ @ ...               ",
"              . +.@.W #.#.#.# ..D Y ..D C E F Z U ` M M $.V V %.%.# $ @ @ ..Y &..               ",
"              . @ *.+.@.W =.# $ $ ....-...;.D C V V >.>.,.G %.+ #.# '.....).k 0 .               ",
"              . @ @ @ *.+.@.W $ @ @ @ !.~.-.Y ..,. . .G G N & + #.C C ).x | b 0 .               ",
"              . @ @ @ $ $ *.+.@.W @ @ @ @ !.!.~.%.Z G N N N X C C g 0 b b b l 0 .               ",
"              . @ @ @ @ '.$ # *.{.@.W @ @ @ @ {.].& N N N H s g 0 ^.^././.0 0 8 .               ",
"              . '.$ '.'.# '.'.# # *.+.@.W @.(.{.^ ]._.V H :.0 2 2 ^./.<.<./.9 8 .               ",
"              . '.@ # '.# # =.=.# =.# *.[.(.{.}.^ ^ |.^.1 | [ [ 3 /.<.1.1.<./.k .               ",
"              . '.# '.# '.'.'.# =.=.=.2.=.*.}.3.^ ) ] } 4.5 [ 2 /.<.1.5.5.1.<./..               ",
"              . '.# '.=.=.=.=.=.=.=.#.+ 2.+ 2.6.|.] } } 4 [ 3 /.<.1.5.7.8.5.1.<./.              ",
"              . # # =.# =.=.=.2.=.+ 2.=.+ 2.+ 2.] } } 5 4 3 /.<.1.5.9.8.0.a.5.1.<./.            ",
"              . '.=.=.=.=.=.=.#.=.2.2.2.+ 2.b.2.] } 5 [ [ /.<.1.5.7.8.0.0.c.a.d.1.<./.          ",
"              . =.=.=.=.=.=.2.2.2.+ + + b.+ b.b.} 5 4 3 /.<.5.e.f.g.h.0.i.j.e.e.j.5.<./.        ",
"              . =.=.=.=.2.2.=.+ 2.2.2.2.b.b.b.b.} 4 3 /.<.k.l.m.k.n.o.p.c.q.r.l.l.m.k.s./.      ",
"              . =.=.2.#.=.+ + 2.+ + + b.+ b.b.t.4 3 3 u.v.<.<.v./.w.o.x.j.r.y.<.z.A.v.B.u.      ",
"              . =.=.2.+ 2.2.+ 2.b.b.b.b.b.b.t.t.5 3 2 1 b b 0 8 /.C.x.D.j.l.y.<.. . .           ",
"              . 2.+ 2.2.+ + + + b.b.b.t.b.b.E.E.3 3 1 b a 0 8 8 /.F.x.G.e.l.y.<.. . . . .       ",
"              . 2.+ + 2.2.2.b.2.b.b.b.t.E.b.t.E.2 1 b b 0 0 8 /.<.1.H.j.I.r.J.<.. . . . . .     ",
"              . + 2.2.b.b.b.b.t./.b.t.t.t.t.t.t.1 | b a 0 8 k /.1.K.h.e.l.L.<.F . . . . .       ",
"              . + + + b.b.b.b.t.t././.t.E.E.E.M.b b a 0 8 8 /.<.K.H.j.I.l.N.<.C . . .           ",
"              . . b.b.b.b.b.E.t.b./.O./.t.M.t.t.b a 0 8 k /.<.1.P.Q.I.l.R.<.E . .               ",
"                  . . b.t.b.t.E.E.t./.S././.M.M.b 0 9 /./.<.1.T.j.I.l.U.V.<..                   ",
"                      . . t.E.t.t.E.E./.W.X./././././.<.Y.Z.`.e.I.l.R. +<.                      ",
"                          . . E.t.M.t.M././.X.<.<.Y.1.Z.Q.j..+l.++@+<.<.                        ",
"                              . . t.M.M.M.#+/./.$+%+j..+l.++&+@+<.<.                            ",
"                                  . . M.M.#+#+#+*+=+-+;+>+<.<.<.                                ",
"                                      . . #+#+#+j i v . .                                       ",
"                                          . . #+i . .                                           ",
"                                              . .                                               ",
"                                                                                                ",
"                                                                                                "};
