/* XPM */
static const char * downgradeM_xpm[] = {
"9 9 2 1",
" 	c None",
".	c #D8B608",
"         ",
"       . ",
"      .. ",
"     ... ",
"    .... ",
"   ..... ",
"  ...... ",
" ....... ",
"         "};
