/* XPM */
static char * down_xpm[] = {
"22 22 69 1",
" 	g None",
".	g #030303",
"+	g #0C0C0C",
"@	g #0E0E0E",
"#	g #0F0F0F",
"$	g #090909",
"%	g #060606",
"&	g #020202",
"*	g #111111",
"=	g #464646",
"-	g #898989",
";	g #787878",
">	g #6D6D6D",
",	g #717171",
"'	g #737373",
")	g #757575",
"!	g #7C7C7C",
"~	g #5E5E5E",
"{	g #414141",
"]	g #212121",
"^	g #080808",
"/	g #171717",
"(	g #818181",
"_	g #E4E4E4",
":	g #BBBBBB",
"<	g #969696",
"[	g #888888",
"}	g #878787",
"|	g #868686",
"1	g #8A8A8A",
"2	g #919191",
"3	g #989898",
"4	g #A4A4A4",
"5	g #858585",
"6	g #555555",
"7	g #313131",
"8	g #121212",
"9	g #7D7D7D",
"0	g #E5E5E5",
"a	g #C0C0C0",
"b	g #9D9D9D",
"c	g #8B8B8B",
"d	g #838383",
"e	g #939393",
"f	g #A3A3A3",
"g	g #2F2F2F",
"h	g #161616",
"i	g #EDEDED",
"j	g #BFBFBF",
"k	g #9E9E9E",
"l	g #8D8D8D",
"m	g #666666",
"n	g #333333",
"o	g #0D0D0D",
"p	g #E7E7E7",
"q	g #C1C1C1",
"r	g #A5A5A5",
"s	g #959595",
"t	g #606060",
"u	g #0A0A0A",
"v	g #181818",
"w	g #EBEBEB",
"x	g #C2C2C2",
"y	g #848484",
"z	g #828282",
"A	g #E6E6E6",
"B	g #727272",
"C	g #373737",
"D	g #444444",
"                      ",
"                      ",
"                      ",
"                      ",
"                      ",
"                      ",
"  .+@@@@@@@@@@@#@$%&  ",
"  *=--;>>,'))))!~{]^  ",
"   /(_:<[}|1234567$   ",
"    890abcd[efc~g$    ",
"     h|ijk1lklmno     ",
"      o9pqrs-tgu      ",
"       v(wxym7@       ",
"        #zABCu        ",
"         v9Do         ",
"          @%          ",
"                      ",
"                      ",
"                      ",
"                      ",
"                      ",
"                      "};
