/* XPM */
static char * find_xpm[] = {
"16 16 4 1",
" 	c None",
".	c #000000",
"+	c #606060",
"@	c #CCCCCC",
"                ",
"       ......   ",
"      ..++++..  ",
"     ..+     .. ",
"     .+  @@   . ",
"     .+       . ",
"     .+ @     . ",
"     .+ @     . ",
"     +.      .. ",
"    +...    ..+ ",
"   +..+......+  ",
"  +..+  +++++   ",
" +..+           ",
"+..+            ",
"..+             ",
"++              "};
