/* XPM */
static char * fixbroken_xpm[] = {
"48 48 211 2",
"  	c None",
". 	c #000000",
"+ 	c #FEFAF1",
"@ 	c #020204",
"# 	c #F8F2C8",
"$ 	c #FAF6DC",
"% 	c #FDFAE0",
"& 	c #F6EEB3",
"* 	c #EEE285",
"= 	c #F2E697",
"- 	c #F2EAA4",
"; 	c #FEFEFB",
"> 	c #BDB264",
", 	c #B4AA5C",
"' 	c #AEA65C",
") 	c #ACA254",
"! 	c #AA9E54",
"~ 	c #A59C54",
"{ 	c #9E964C",
"] 	c #9C924C",
"^ 	c #968E49",
"/ 	c #7E763C",
"( 	c #FEEE94",
"_ 	c #4A460D",
": 	c #938A44",
"< 	c #8E8644",
"[ 	c #867A44",
"} 	c #83753C",
"| 	c #F9EEA3",
"1 	c #8C8244",
"2 	c #877E3C",
"3 	c #796E36",
"4 	c #7A7A5C",
"5 	c #FEF2B2",
"6 	c #3C360C",
"7 	c #5A5606",
"8 	c #5D5A06",
"9 	c #827A3C",
"0 	c #665E2C",
"a 	c #3E3A09",
"b 	c #B2AE94",
"c 	c #928E6C",
"d 	c #FDF6CB",
"e 	c #433E0C",
"f 	c #4F4A06",
"g 	c #524E09",
"h 	c #615A2A",
"i 	c #6A5614",
"j 	c #E2DABC",
"k 	c #FEFACC",
"l 	c #38320C",
"m 	c #423A0C",
"n 	c #46420C",
"o 	c #BEBEBC",
"p 	c #D6D6D4",
"q 	c #929294",
"r 	c #FEF6B4",
"s 	c #FEFEE4",
"t 	c #7A6614",
"u 	c #767604",
"v 	c #858204",
"w 	c #322A0C",
"x 	c #362E0C",
"y 	c #B2B2B4",
"z 	c #BABABC",
"A 	c #A2A2A4",
"B 	c #7A7604",
"C 	c #928E04",
"D 	c #9C9A26",
"E 	c #959326",
"F 	c #969694",
"G 	c #B6B6B4",
"H 	c #AEAEAC",
"I 	c #968134",
"J 	c #8D8B04",
"K 	c #020609",
"L 	c #0E1E1C",
"M 	c #BAB29C",
"N 	c #A6A6A4",
"O 	c #AAAAAC",
"P 	c #C6C6C4",
"Q 	c #BDBDBB",
"R 	c #7E7E80",
"S 	c #A7A426",
"T 	c #9A9604",
"U 	c #949204",
"V 	c #123234",
"W 	c #AEDEDA",
"X 	c #7EC6C8",
"Y 	c #529A98",
"Z 	c #A7A7A5",
"` 	c #737371",
" .	c #4E4E4D",
"..	c #A09D26",
"+.	c #0A1A1C",
"@.	c #CAF2F2",
"#.	c #9EDEE0",
"$.	c #4A9290",
"%.	c #2E7270",
"&.	c #A3A3A5",
"*.	c #616163",
"=.	c #434345",
"-.	c #A2A026",
";.	c #C6EEF2",
">.	c #4E9698",
",.	c #367E80",
"'.	c #122A24",
").	c #D2D2D4",
"!.	c #9E9E9C",
"~.	c #828280",
"{.	c #6C6C6A",
"].	c #565654",
"^.	c #40403E",
"/.	c #4B4B4D",
"(.	c #9ADAE0",
"_.	c #3A8280",
":.	c #8ED2D0",
"<.	c #3E8688",
"[.	c #C2C2C4",
"}.	c #CECECC",
"|.	c #6F6F71",
"1.	c #474745",
"2.	c #010103",
"3.	c #92D6D8",
"4.	c #6E6E04",
"5.	c #8ACED0",
"6.	c #B6E6E2",
"7.	c #6EB6B8",
"8.	c #020E0C",
"9.	c #FEFAB4",
"0.	c #DEDEDC",
"a.	c #E2E2E4",
"b.	c #CACACC",
"c.	c #59595B",
"d.	c #AF874E",
"e.	c #9E7641",
"f.	c #9A9626",
"g.	c #82CAC8",
"h.	c #AADADA",
"i.	c #B2E2E2",
"j.	c #C1EAEA",
"k.	c #7AC2C0",
"l.	c #EAEAEC",
"m.	c #646463",
"n.	c #3C3C3E",
"o.	c #D5B88E",
"p.	c #BA9E71",
"q.	c #9A7C47",
"r.	c #969626",
"s.	c #62AAA8",
"t.	c #72BAB8",
"u.	c #DADADC",
"v.	c #B48B57",
"w.	c #DEC291",
"x.	c #B49257",
"y.	c #8C692D",
"z.	c #5AA2A0",
"A.	c #468E90",
"B.	c #CAA579",
"C.	c #DBBD92",
"D.	c #916F34",
"E.	c #76BEC0",
"F.	c #021214",
"G.	c #7A7A79",
"H.	c #B18858",
"I.	c #CDAF84",
"J.	c #E5C2A0",
"K.	c #B79658",
"L.	c #2A6A68",
"M.	c #FEF6A0",
"N.	c #7E7E7C",
"O.	c #E8CBA9",
"P.	c #E8C7A1",
"Q.	c #737028",
"R.	c #6D6929",
"S.	c #AAA826",
"T.	c #EED8BB",
"U.	c #777426",
"V.	c #565208",
"W.	c #A4A426",
"X.	c #F4DECB",
"Y.	c #EBD4B2",
"Z.	c #CBAA7C",
"`.	c #B78B58",
" +	c #99743A",
".+	c #706D28",
"++	c #FEF68E",
"@+	c #A78446",
"#+	c #D3B186",
"$+	c #916B34",
"%+	c #6D6626",
"&+	c #FEF284",
"*+	c #FEF274",
"=+	c #C8A373",
"-+	c #886F2D",
";+	c #5F5B2D",
">+	c #66AEB0",
",+	c #927C2D",
"'+	c #C39C6E",
")+	c #866327",
"!+	c #5EA6A8",
"~+	c #DCC19F",
"{+	c #569EA0",
"]+	c #7B7726",
"^+	c #9D893A",
"/+	c #625E04",
"(+	c #815B20",
"_+	c #815719",
":+	c #7B7B26",
"<+	c #6B4815",
"[+	c #95743A",
"                                                                                                ",
"                                                                                                ",
"                                                                                                ",
"                                                                                                ",
"                                                                                                ",
"                                                                                                ",
"                                                                      . .                       ",
"                                                                  . . . + @ @                   ",
"                                                                  . # $ $ $ % @ @               ",
"                                                                . . & & & # # # $ @ @           ",
"                                                                . * = = - - & & & & # @ @       ",
"                                                                . ; ; * * = = = - & - @         ",
"                                                              . > > , ; ; * * * * = @           ",
"                                                            . . ' ) ' ! ~ ; ; * * @             ",
"      @ @ @ @ . . . .                                     . . ~ ~ { { ] ] ^ ^ / @ @ @ @ @       ",
"        @ @ ( ( ( _ . . . .                           . . . ] ^ ^ : : : < [ } ; ; ; @ @         ",
"            @ @ ( | | _ _ . . .           . . . . . . ^ : : : < 1 1 2 3 3 ; ; ; @ @             ",
"              @ 4 5 5 5 # _ _ 6 . .     . . 7 8 : 1 1 1 2 2 9 } / 0 0 ; ; ; ; a @               ",
"              @ b c 4 d d d % a e . . . . _ f g 2 9 @ @ @ 3 3 h h % + ; ; a 6 i @               ",
"              @ ; j b c 4 k % + + a a l a m e n 3 @ o p q @ h r d % s a a t u v @               ",
"              @ ; ; ; j b c 4 + ; ; ; w x l 6 a @ o y y z A @ r d n n t B C D E @               ",
"              @ ; ; ; + + j b c 4 ; ; ; ; w w @ o y y F G G H @ n I v J J D K K L               ",
"              @ ; ; ; ; s + % j M c 4 ; ; ; @ o N H F O G P Q R @ S T U D V W X Y K             ",
"              @ s + s s % s s % % j b c 4 @ o N O G N y o Z `  .@ S U ..+.@.#.$.%.K             ",
"              @ s ; % s % % k k % k % j @ o N A F O N z &.*. .=.@ -...K ;.W >.,.K     +.'.      ",
"              @ s % s % s s s % k k k @ ).N o G z !.A ~.{.].^./.@ ..K ;.(._._.K @   K :.<.L     ",
"              @ s % s k k k k k k k @ [.p }.[.P y !.|./.1././.2...D K 3.W _.K 4.@ K 5.6.7.8.    ",
"              @ % % k % k k k 9.k @ 0.a.b.b.P o !.c.^.=.d.e.@ -.C f.K g.h.i._.K K g.j.k.<.8.    ",
"              @ s k k k k k k d @ 0.0.l.0.O o O m.n./.o.p.q.@ D J r.K j.g.7.:.s.#.i.t.,.,.@     ",
"              @ k k k k k k 9.9.@ A u.a.0.p y *. .1.v.w.w.x.y.@ E K i.:.g.z.t.:.g.7.A._.K       ",
"              @ k k k k 9.9.k r @ y y p a.y *.m. ./.B.C.w.o.x.D.@ i.k.E.Y t._._._._.F.K         ",
"              @ k k 9.d k r r 9.@ N q y y G.m.c.n.1.H.I.J.C.B.K.D.@ E.$.>.L.@ K K K             ",
"              @ k k 9.r 9.9.r 9.M.@ N.!.y {.*. .=.2.@ x.I.O.P.B.x.D.@ >.L.@ Q.R.@ @ @           ",
"              @ 9.r 9.9.r r r r M.M.@ A F {.c.c.2.S.-.@ p.o.T.J.B.v.e.@ @ U.7 V.@ @ @ @ @       ",
"              @ 9.r r 9.9.9.M.9.M.M.M.@ !.|.c.2.W.U J D @ d.C.X.Y.Z.`. +@ .+V.f @ @ @ @ @ @     ",
"              @ r 9.9.M.M.M.M.++M.M.++++@ @ @ ++U C D @ h.@ @+#+Y.Y.B.H.$+@ %+f @ @ @ @ @       ",
"              @ r r r M.M.M.M.++++++M.++&+&+&+*+J D K #.k.7.@ d.=+O.P.Z.H.-+@ ;+@ @ @           ",
"              @ @ M.M.M.M.M.&+++M.++&+&+++*+++++D K ;.#.X 7.>+@ ,+=+J.C.'+@+)+@ @               ",
"                  @ @ M.++M.++&+&+++++*+++*+*+*+K @.(.k.!+s.L.@ @ d.#+~+C.Z.H.-+@               ",
"                      @ @ ++&+++++&+&+*+*+*+*+K @.:.s.{+>.L.@ ]+Q.@ ^+#+C.o.I.x.D.@             ",
"                          @ @ &+++*+++*+*+*+K j.#.t.Y $.L.@ ]+/+8 @ @ d.I.o.o.B.K.(+@           ",
"                              @ @ ++*+*+*+K #.X k.Y !+L.K ]+/+@ @     @ @+=+#+#+'+@+_+@         ",
"                                  @ @ *+K j.5.X {+>+L.K :+@ @           @ @+'+B.Z.x.D.<+@       ",
"                                      @ K (.g.z.z.L.K @ @                 @ @+=+K.e.D.(+@       ",
"                                        K E.{+z.L.K @                       @ @+x.[+$+@         ",
"                                          K K L K                             @ @ @ @           ",
"                                                                                                ",
"                                                                                                "};
