/* XPM */
static const char * heldM_xpm[] = {
"9 10 3 1",
" 	c None",
".	c #000000",
"+	c #7A7575",
"         ",
"         ",
" .+      ",
" ...+    ",
" .....+  ",
" ....... ",
" .....+  ",
" ...+    ",
" .+      ",
"         "};
