/* XPM */
static const char * pinM_xpm[] = {
"9 9 2 1",
" 	c None",
".	c #000BFF",
"         ",
" ..  ..  ",
" ..  ..  ",
" ..  ..  ",
" ......  ",
" ..  ..  ",
" ..  ..  ",
" ..  ..  ",
"         "};
