/* XPM */
static const char * installM_xpm[] = {
"9 9 3 1",
" 	c None",
".	c #00BBFF",
"+	c #75AFC4",
"         ",
"    .    ",
"   +.+   ",
"   ...   ",
"  +...+  ",
"  .....  ",
" +.....+ ",
" ....... ",
"         "};
