/* XPM */
static char * options_xpm[] = {
"48 48 112 2",
"  	c None",
". 	c #000000",
"+ 	c #FFFFFF",
"@ 	c #00B7BC",
"# 	c #00B4B8",
"$ 	c #00B0B5",
"% 	c #00AEB2",
"& 	c #00AAAF",
"* 	c #00A7AB",
"= 	c #00A5A8",
"- 	c #00A1A5",
"; 	c #009FA2",
"> 	c #009C9F",
", 	c #00989B",
"' 	c #009698",
") 	c #009295",
"! 	c #008F92",
"~ 	c #008D8E",
"{ 	c #00898B",
"] 	c #008788",
"^ 	c #008385",
"/ 	c #008081",
"( 	c #AEAEAC",
"_ 	c #60605F",
": 	c #4E4E4C",
"< 	c #C0C0C0",
"[ 	c #585858",
"} 	c #808080",
"| 	c #FEFEBD",
"1 	c #FEFDBC",
"2 	c #FEFDBB",
"3 	c #FEFDBA",
"4 	c #FEFDB9",
"5 	c #FEFDB8",
"6 	c #FEFDB7",
"7 	c #FEFDB6",
"8 	c #FEFDB5",
"9 	c #FEFCB5",
"0 	c #FEFCB4",
"a 	c #FEFCB3",
"b 	c #FEFCB2",
"c 	c #FEFCB1",
"d 	c #FEFCB0",
"e 	c #FEFCAF",
"f 	c #FEFCAE",
"g 	c #FEFBAD",
"h 	c #FEFBAC",
"i 	c #DDDBDB",
"j 	c #E0DE9B",
"k 	c #FEFEFC",
"l 	c #A0A0A4",
"m 	c #E0DE9A",
"n 	c #FEFBAB",
"o 	c #C5C387",
"p 	c #E0DE99",
"q 	c #E0DD98",
"r 	c #DEDEDC",
"s 	c #DADAD9",
"t 	c #D7D7D6",
"u 	c #C7C7C8",
"v 	c #E0DD97",
"w 	c #FEFBAA",
"x 	c #D4D4D3",
"y 	c #D1D1D0",
"z 	c #C5C384",
"A 	c #E0DD96",
"B 	c #CECECD",
"C 	c #CBCBCA",
"D 	c #FEFBA9",
"E 	c #AAAAAC",
"F 	c #C4C4C5",
"G 	c #525254",
"H 	c #C1C1C2",
"I 	c #BEBEBF",
"J 	c #E0DD95",
"K 	c #FEFBA8",
"L 	c #E0DE9E",
"M 	c #F2F2F4",
"N 	c #BBBBBC",
"O 	c #B8B8B9",
"P 	c #E0DD94",
"Q 	c #E0DE9D",
"R 	c #8E8E8C",
"S 	c #B5B5B6",
"T 	c #E0DD93",
"U 	c #E0DFA0",
"V 	c #C5C381",
"W 	c #E6E6E4",
"X 	c #C5C382",
"Y 	c #E0DD92",
"Z 	c #B1B1B4",
"` 	c #FEFAA6",
" .	c #7A7A7C",
"..	c #E0DC92",
"+.	c #FEFAA5",
"@.	c #C5C380",
"#.	c #C5C385",
"$.	c #FEFAA4",
"%.	c #C5C389",
"&.	c #E0DE9C",
"*.	c #E0DC91",
"=.	c #FEFAA3",
"-.	c #E0DE9F",
";.	c #C5C383",
">.	c #FEFBA6",
",.	c #FEFAA2",
"'.	c #FEFBA7",
").	c #FEFAA1",
"!.	c #FEFAA0",
"~.	c #C5C386",
"{.	c #FEFA9F",
"].	c #FEF99F",
"                                                                                                ",
"                                                                                                ",
"    . . . . . . . . . . . . . . . . . . . . . . . . . . . . . . . . . . . . . . . . . . . .     ",
"    . + + + + + + + + + + . @ @ # $ % & * = - ; > , ' ) ! ~ { ] ^ / . + + + + + + + + + + .     ",
"    . + ( ( ( _ + ( ( ( _ . @ @ # $ % & * = - ; > , ' ) ! ~ { ] ^ / . + ( ( ( _ + ( ( ( _ .     ",
"    . + ( ( ( : + ( ( ( : . @ @ # $ % & * = - ; > , ' ) ! ~ { ] ^ / . + ( ( ( : + ( ( ( : .     ",
"    . + ( ( ( : + ( ( ( : . @ @ # $ % & * = - ; > , ' ) ! ~ { ] ^ / . + ( ( ( : + ( ( ( : .     ",
"    . _ : : : : _ : : : : . @ @ # $ % & * = - ; > , ' ) ! ~ { ] ^ / . _ : : : : _ : : : : .     ",
"    . . . . . . . . . . . . . . . . . . . . . . . . . . . . . . . . . . . . . . . . . . . .     ",
"    . < < < < < < < < < < < < < < < < < < < < < < < < < < < < < < < < < < < < < < < < < < .     ",
"    . < < < < < < < < < < < < < < < < < < < < < < < < < < < < < < < < < < < < < < < < < < .     ",
"    . < < < < < < < < < < < < < < < < < < < < < < < < < < < < < < < < < < < < < < < < < < .     ",
"    . < [ [ [ [ [ [ [ [ [ [ [ [ [ [ [ [ [ [ [ [ [ [ [ [ [ [ [ [ [ [ [ [ [ [ [ [ [ [ [ } < .     ",
"    . < [ | | | | | | 1 1 2 2 3 4 4 5 5 6 6 7 8 9 0 0 a a b c c d d e e f g g } ( ( ( + < .     ",
"    . < [ | | | | | 1 1 2 2 3 4 4 5 5 6 6 7 8 9 0 0 a a b c c d d e e f f g h } ( i ( + < .     ",
"    . < [ | | | | 1 1 2 2 3 3 4 5 5 6 6 7 7 8 0 0 a a b . . j d e e f f g h h } ( ( ( + < .     ",
"    . < [ | | | | 1 2 2 3 3 4 4 5 6 6 7 7 8 9 0 a a b . k l . m e f f g g h n } i i i + < .     ",
"    . < [ | | | 1 2 2 3 3 4 4 5 6 6 7 7 8 9 0 . . b b . k l . o p . . q h n n } i i i + < .     ",
"    . < [ | | 1 1 2 3 3 4 4 5 5 6 7 7 8 9 0 . r + . . k s t } . . + u . v n w } i i i + < .     ",
"    . < [ | 1 1 2 3 3 4 4 5 5 6 7 7 8 9 0 0 . } r + k s t x y + + u } . z A w } i i i + < .     ",
"    . < [ 1 1 2 2 3 4 4 5 5 6 6 7 8 9 0 0 a a . l r s t x y B C u } . z A A D } i i i + < .     ",
"    . < [ 1 2 2 3 4 4 5 5 6 6 7 8 9 0 0 a a b . k s t E } l C u F l . z A D D } i i i + < .     ",
"    . < [ 2 2 3 3 4 5 5 6 6 7 7 9 0 0 a a . . k s t E G . . E F H I l . . J K } i i i + < .     ",
"    . < [ 2 3 3 4 5 5 6 6 7 7 . . L a a . k k s t x } . o q . M I N O r r . P } i i i + < .     ",
"    . < [ 3 3 4 4 5 6 6 7 7 . k l . Q b . } R t x y l . q q . M N O S } } . T } i i i + < .     ",
"    . < [ 3 4 4 5 6 . . U 8 . k l . Q Q . . . R B B C M . . + N O S } . . V T } ( ( ( + < .     ",
"    . < [ 4 4 5 5 . r + . . k s t } . . + u . . W C u F M M N O S } . X P T Y } ( ( ( + < .     ",
"    . < [ 4 5 5 6 . } r + k s t x y + + u } . . + u F H I N O S Z } . X T Y ` } ( ( ( + < .     ",
"    . < [ 5 5 6 6 7 . l r s t x y B C u } . . + < } l I N O S l  .Z } . V ..+.} ( ( ( + < .     ",
"    . < [ 5 6 6 7 8 . k s t E } l C u F l . . S } . . r O S } . . l S . @...+.} ( ( ( + < .     ",
"    . < [ 6 6 7 . . k s t E G . . E F H I l . . . #.z . r } . X X . . @...+.$.} ( ( ( + < .     ",
"    . < [ 6 7 . k k s t x } . %.&.. M I N O r r . z A . r } . X T V @...*.+.$.} i i i + < .     ",
"    . < [ 7 7 . } R t x y l . &.j . M N O S } } . z A z . . X T T Y ..*.+.$.=.} i i i + < .     ",
"    . < [ 7 8 -.. . R B B C M . . + N O S } . . z A A J ;.X P T >.` +.+.$.$.=.} i i i + < .     ",
"    . < [ 8 9 0 L Q . W C u F M M N O S } . #.z A A D J P P T >.` +.+.$.$.=.,.} i i i + < .     ",
"    . < [ 9 0 0 a Q . + u F H I N O S Z } . z A A D D K K '.'.` +.+.$.$.=.=.,.} i i i + < .     ",
"    . < [ 0 0 a a . + < } l I N O S l  .Z } . z J D K K '.'.>.+.+.$.$.=.=.,.).} i i i + < .     ",
"    . < [ 0 a a b . S } . . r O S } . . l S . z J K K '.'.>.` +.$.$.=.=.,.,.).} i i i + < .     ",
"    . < [ a a b b &.. . o o . r } . #.z . . z J P K '.'.>.` +.$.$.=.=.,.,.).!.} i i i + < .     ",
"    . < [ a b b c c j o o p . r } . z A z z J J K '.'.>.` +.+.$.=.=.,.,.).).!.} i i i + < .     ",
"    . < [ b b c c d e m p p ~.. . z A A A J J K '.'.>.` +.+.$.=.=.,.,.).).!.{.} ( ( ( + < .     ",
"    . < [ b c c d d e f f q q #.#.A A w D D K K '.>.` +.+.$.$.=.,.,.).).!.!.{.} ( i ( + < .     ",
"    . < [ c c d d e f f g g v v A A w D D K K '.>.` +.+.$.$.=.,.,.).).!.!.{.].} ( ( ( + < .     ",
"    . < } + + + + + + + + + + + + + + + + + + + + + + + + + + + + + + + + + + + + + + + < .     ",
"    . < < < < < < < < < < < < < < < < < < < < < < < < < < < < < < < < < < < < < < < < < < .     ",
"    . . . . . . . . . . . . . . . . . . . . . . . . . . . . . . . . . . . . . . . . . . . .     ",
"                                                                                                ",
"                                                                                                "};
