/* XPM */
static char * pref_vpaned_xpm[] = {
"102 64 31 1",
" 	c #000000",
".	c #FFFFFF",
"+	c #B9B9B9",
"@	c #454545",
"#	c #080808",
"$	c #131313",
"%	c #5D5D5D",
"&	c #EBEBEB",
"*	c #464646",
"=	c #B6B6B6",
"-	c #F4F4F4",
";	c #EAEAEA",
">	c #6D6D6D",
",	c #444444",
"'	c #F5F5F5",
")	c #070707",
"!	c #AFAFAF",
"~	c #404040",
"{	c #CFCFCF",
"]	c #212121",
"^	c #D7D7D7",
"/	c #C0C0C0",
"(	c #1F1F1F",
"_	c #C9C9C9",
":	c #A8A8A8",
"<	c #1A1A1A",
"[	c #CBCBCB",
"}	c #8D8D8D",
"|	c #1C1C1C",
"1	c #D5D5D5",
"2	c #F3F3F3",
"                                                                                                      ",
" .............................................................. ..................................... ",
" .............................................................. ..................................... ",
" .............................................................. ..................................... ",
" .............................................................. ..................................... ",
" .............................................................. ..................................... ",
" .............................................................. ..................................... ",
" .............................................................. ..................................... ",
" .............................................................. ..................................... ",
" .............................................................. ..................................... ",
" .............................................................. ..................................... ",
" .............................................................. ..................................... ",
" .............................................................. ..................................... ",
" .............................................................. ..................................... ",
" .............................................................. ..................................... ",
" .............................................................. ..................................... ",
" .............................................................. ..................................... ",
" .............................................................. ..................................... ",
" .............................................................. ..................................... ",
" .............................................................. ..................................... ",
" .............................................................. ..................................... ",
" .............................................................. ..................................... ",
" .............................................................. ..................................... ",
" .............................................................. ..................................... ",
" .............................................................. ..................................... ",
" .............................................................. ..................................... ",
" .............................................................. ..................................... ",
" .............................................................. ..................................... ",
" .............................................................. ..................................... ",
" ..............................   ............................. ................+@#$%&............... ",
" ................................ ............................. ................*=-;>,............... ",
" ................................ ............................. ....................')............... ",
" ................................ ............................. ....................!~............... ",
" ................................ ............................. ...................{]^............... ",
" ................................ ............................. ................../(_................ ",
" ................................ ............................. .................:<[................. ",
" ................................ ............................. ................}|1.................. ",
" ..............................     ........................... ................      2.............. ",
" .............................................................. ..................................... ",
" .............................................................. ..................................... ",
" .............................................................. ..................................... ",
" .............................................................. ..................................... ",
" .............................................................. ..................................... ",
" .............................................................. ..................................... ",
" .............................................................. ..................................... ",
" .............................................................. ..................................... ",
" .............................................................. ..................................... ",
" .............................................................. ..................................... ",
" .............................................................. ..................................... ",
" .............................................................. ..................................... ",
" .............................................................. ..................................... ",
" .............................................................. ..................................... ",
" .............................................................. ..................................... ",
" .............................................................. ..................................... ",
" .............................................................. ..................................... ",
" .............................................................. ..................................... ",
" .............................................................. ..................................... ",
" .............................................................. ..................................... ",
" .............................................................. ..................................... ",
" .............................................................. ..................................... ",
" .............................................................. ..................................... ",
" .............................................................. ..................................... ",
" .............................................................. ..................................... ",
"                                                                                                      "};
