/* XPM */
static char * pref_vapned_xpm[] = {
"64 64 2 1",
" 	c white",
".	c black",
"                                                                ",
"                                                                ",
"  ............................................................  ",
"  .                       .                                  .  ",
"  .                       .                                  .  ",
"  .                       .                                  .  ",
"  .                       .                                  .  ",
"  .                       .                                  .  ",
"  .                       .                                  .  ",
"  .                       .                                  .  ",
"  .                       .                                  .  ",
"  .                       .                                  .  ",
"  .                       .                                  .  ",
"  .                       .                                  .  ",
"  .                       .                                  .  ",
"  .                       .                                  .  ",
"  .                       .                                  .  ",
"  .                       .                                  .  ",
"  .                       .                                  .  ",
"  .                       .                                  .  ",
"  .                       .                                  .  ",
"  .                       .                                  .  ",
"  .                       .                                  .  ",
"  .                       .                                  .  ",
"  .                       .                                  .  ",
"  .                       .                                  .  ",
"  .                       .                                  .  ",
"  .                       .                                  .  ",
"  .           .           .              ...                 .  ",
"  .          ..           .             .   .                .  ",
"  .         . .           .             .   .                .  ",
"  .           .           .                 .                .  ",
"  .           .           .                .                 .  ",
"  .           .           .               .                  .  ",
"  .           .           .              .                   .  ",
"  .           .           .             .                    .  ",
"  .         .....         .             .....                .  ",
"  .                       .                                  .  ",
"  .                       .                                  .  ",
"  .                       .                                  .  ",
"  .                       .                                  .  ",
"  .                       .                                  .  ",
"  .                       .                                  .  ",
"  .                       .                                  .  ",
"  .                       .                                  .  ",
"  .                       .                                  .  ",
"  .                       .                                  .  ",
"  .                       .                                  .  ",
"  .                       .                                  .  ",
"  .                       .                                  .  ",
"  .                       .                                  .  ",
"  .                       .                                  .  ",
"  .                       .                                  .  ",
"  .                       .                                  .  ",
"  .                       .                                  .  ",
"  .                       .                                  .  ",
"  .                       .                                  .  ",
"  .                       .                                  .  ",
"  .                       .                                  .  ",
"  .                       .                                  .  ",
"  .                       .                                  .  ",
"  ............................................................  ",
"                                                                ",
"                                                                "};
