/* XPM */
static char * pref_hapned_xpm[] = {
"64 64 2 1",
" 	c white",
".	c black",
"                                                                ",
"                                                                ",
"  ............................................................  ",
"  .                                                          .  ",
"  .                                                          .  ",
"  .                                                          .  ",
"  .                                                          .  ",
"  .                                                          .  ",
"  .                                                          .  ",
"  .                                                          .  ",
"  .                                                          .  ",
"  .                                                          .  ",
"  .                                                          .  ",
"  .                                                          .  ",
"  .                                                          .  ",
"  .                                                          .  ",
"  .                                                          .  ",
"  .                                                          .  ",
"  .                                                          .  ",
"  .                                                          .  ",
"  .                                                          .  ",
"  .                                                          .  ",
"  .                                                          .  ",
"  .                            ...                           .  ",
"  .                           .   .                          .  ",
"  .                           .   .                          .  ",
"  .                               .                          .  ",
"  .                              .                           .  ",
"  .                             .                            .  ",
"  .                            .                             .  ",
"  .                           .                              .  ",
"  .                           .....                          .  ",
"  .                                                          .  ",
"  .                                                          .  ",
"  .                                                          .  ",
"  .                                                          .  ",
"  .                                                          .  ",
"  .                                                          .  ",
"  .                                                          .  ",
"  .                                                          .  ",
"  .                                                          .  ",
"  .                                                          .  ",
"  ............................................................  ",
"  .                                                          .  ",
"  .                                                          .  ",
"  .                                                          .  ",
"  .                                                          .  ",
"  .                              .                           .  ",
"  .                             ..                           .  ",
"  .                            . .                           .  ",
"  .                              .                           .  ",
"  .                              .                           .  ",
"  .                              .                           .  ",
"  .                              .                           .  ",
"  .                              .                           .  ",
"  .                            .....                         .  ",
"  .                                                          .  ",
"  .                                                          .  ",
"  .                                                          .  ",
"  .                                                          .  ",
"  .                                                          .  ",
"  ............................................................  ",
"                                                                ",
"                                                                "};
