/* XPM */
static char * proceed_small_xpm[] = {
"32 32 491 2",
"  	c None",
". 	c #4A4836",
"+ 	c #8E8A66",
"@ 	c #8E8E8E",
"# 	c #4A4A4B",
"$ 	c #020204",
"% 	c #AAA579",
"& 	c #E2DBA0",
"* 	c #FEF6B4",
"= 	c #807C5C",
"- 	c #807E74",
"; 	c #FEFCF1",
"> 	c #FEFEFC",
", 	c #E2E2E0",
"' 	c #AAAAA9",
") 	c #45422D",
"! 	c #868154",
"~ 	c #F3EA9F",
"{ 	c #F3EA9B",
"] 	c #E9DE8F",
"^ 	c #777332",
"/ 	c #888361",
"( 	c #FAF7DE",
"_ 	c #F9F2C7",
": 	c #FBF6D5",
"< 	c #FDF8DE",
"[ 	c #FDF9E8",
"} 	c #FDFCF2",
"| 	c #8E8D86",
"1 	c #4A4949",
"2 	c #989056",
"3 	c #CEC479",
"4 	c #E7DB82",
"5 	c #E9DD89",
"6 	c #E5D882",
"7 	c #DECF70",
"8 	c #C1BA24",
"9 	c #BBBA0F",
"0 	c #EFE490",
"a 	c #F3EBAC",
"b 	c #FCF9E3",
"c 	c #F6F0C0",
"d 	c #F6EEB7",
"e 	c #F9F2CC",
"f 	c #FAF4D2",
"g 	c #FBF6DB",
"h 	c #DFDCC9",
"i 	c #A9A698",
"j 	c #3F3A1F",
"k 	c #7A713D",
"l 	c #DBCB6F",
"m 	c #DDCD72",
"n 	c #D3C36C",
"o 	c #BAAE4E",
"p 	c #AAA22B",
"q 	c #A29E04",
"r 	c #A8A604",
"s 	c #ABAB04",
"t 	c #EBDF80",
"u 	c #EADE80",
"v 	c #EADD81",
"w 	c #F1EAB7",
"x 	c #F3EFCA",
"y 	c #F6F1C1",
"z 	c #F2E99A",
"A 	c #F4EBA5",
"B 	c #F6EEAD",
"C 	c #F8F0BF",
"D 	c #F9F2C8",
"E 	c #8A876F",
"F 	c #49473D",
"G 	c #8C7F3D",
"H 	c #D1BE59",
"I 	c #C5B252",
"J 	c #AE9F4F",
"K 	c #928C25",
"L 	c #8D890E",
"M 	c #8C8B04",
"N 	c #929104",
"O 	c #9A9604",
"P 	c #9F9D04",
"Q 	c #DFD378",
"R 	c #DDD178",
"S 	c #D8CB75",
"T 	c #D5C871",
"U 	c #D6CB7E",
"V 	c #DCD49C",
"W 	c #F9F5D5",
"X 	c #F2EAA3",
"Y 	c #F0E692",
"Z 	c #F1E896",
"` 	c #F2EA9F",
" .	c #F5EDA9",
"..	c #A49E78",
"+.	c #9A8A38",
"@.	c #C5B247",
"#.	c #AA973F",
"$.	c #877732",
"%.	c #73681D",
"&.	c #6A6604",
"*.	c #716D04",
"=.	c #737204",
"-.	c #7A7808",
";.	c #807E04",
">.	c #858404",
",.	c #8E8A04",
"'.	c #CBBF69",
").	c #C9BD69",
"!.	c #C4B967",
"~.	c #C2B663",
"{.	c #BEB261",
"].	c #BAAF61",
"^.	c #B9AC5D",
"/.	c #D3CDA0",
"(.	c #E7E2BC",
"_.	c #EEE284",
":.	c #BBB26F",
"<.	c #17150E",
"[.	c #615920",
"}.	c #544C19",
"|.	c #534E0D",
"1.	c #575309",
"2.	c #5D5906",
"3.	c #625F06",
"4.	c #676506",
"5.	c #6F6B04",
"6.	c #726F04",
"7.	c #797704",
"8.	c #7D7B08",
"9.	c #B9AE5F",
"0.	c #B7AC5F",
"a.	c #B0A75C",
"b.	c #B2A658",
"c.	c #ABA257",
"d.	c #AA9F57",
"e.	c #A79C52",
"f.	c #A2974F",
"g.	c #A9A061",
"h.	c #B9B387",
"i.	c #8A8048",
"j.	c #1C1B12",
"k.	c #AA9F64",
"l.	c #E2D484",
"m.	c #867E3E",
"n.	c #5A551C",
"o.	c #47430C",
"p.	c #494508",
"q.	c #524D08",
"r.	c #555106",
"s.	c #5C5A0A",
"t.	c #615D05",
"u.	c #696606",
"v.	c #6B6904",
"w.	c #A79F55",
"x.	c #A29A51",
"y.	c #9E964F",
"z.	c #9B934B",
"A.	c #948C49",
"B.	c #938A49",
"C.	c #908743",
"D.	c #8B8240",
"E.	c #958B55",
"F.	c #ACA47E",
"G.	c #6F6C4B",
"H.	c #FEF1AE",
"I.	c #D6CB8C",
"J.	c #979261",
"K.	c #433E0B",
"L.	c #484409",
"M.	c #4F4B0A",
"N.	c #534F08",
"O.	c #585509",
"P.	c #5F5B04",
"Q.	c #958C47",
"R.	c #8E8543",
"S.	c #8E8544",
"T.	c #8B8340",
"U.	c #867E3F",
"V.	c #837A3F",
"W.	c #726A33",
"X.	c #B2AC8C",
"Y.	c #E2DED0",
"Z.	c #55533F",
"`.	c #88867B",
" +	c #A29E7F",
".+	c #C0BB98",
"++	c #E1DBB3",
"@+	c #FEF9DC",
"#+	c #7F7B58",
"$+	c #544E24",
"%+	c #3F3B0C",
"&+	c #423E0C",
"*+	c #48430A",
"=+	c #4D490A",
"-+	c #817839",
";+	c #7C7439",
">+	c #7A7237",
",+	c #716730",
"'+	c #7B7341",
")+	c #968E61",
"!+	c #FDFAE7",
"~+	c #D2D2C7",
"{+	c #9A9678",
"]+	c #514A0B",
"^+	c #4E440B",
"/+	c #EFEDE2",
"(+	c #D1CCB4",
"_+	c #A7A485",
":+	c #ABA98A",
"<+	c #FEFBED",
"[+	c #D3D2C4",
"}+	c #918E77",
"|+	c #37300C",
"1+	c #3E360C",
"2+	c #403B0C",
"3+	c #70672F",
"4+	c #6B632F",
"5+	c #5F5728",
"6+	c #A39857",
"7+	c #D9D191",
"8+	c #FCF6CE",
"9+	c #918E64",
"0+	c #746930",
"a+	c #716C08",
"b+	c #858206",
"c+	c #5A5904",
"d+	c #FEFCF8",
"e+	c #F8F4DD",
"f+	c #D6D1B9",
"g+	c #A39E80",
"h+	c #C1BFAE",
"i+	c #E1E1D8",
"j+	c #FCFBF7",
"k+	c #75705C",
"l+	c #676145",
"m+	c #7E7534",
"n+	c #8B8244",
"o+	c #FEEE94",
"p+	c #DACC74",
"q+	c #A59F73",
"r+	c #6B6B6C",
"s+	c #7A7A7B",
"t+	c #787643",
"u+	c #918E0A",
"v+	c #898604",
"w+	c #585604",
"x+	c #AAAA9F",
"y+	c #FEFCEC",
"z+	c #FEFEEC",
"A+	c #FEFCE6",
"B+	c #FEFDE6",
"C+	c #F0EBD3",
"D+	c #D2CCB0",
"E+	c #A7A48A",
"F+	c #ABAA90",
"G+	c #B7B39E",
"H+	c #B9B29C",
"I+	c #BDB434",
"J+	c #C5B567",
"K+	c #A59A55",
"L+	c #82761D",
"M+	c #716E2D",
"N+	c #BABAB9",
"O+	c #D3D3D2",
"P+	c #646466",
"Q+	c #939017",
"R+	c #858104",
"S+	c #5B5A11",
"T+	c #AAAA99",
"U+	c #FEFCEF",
"V+	c #FEFCE4",
"W+	c #FEFBE4",
"X+	c #FEFBD9",
"Y+	c #FEFAD1",
"Z+	c #F8F3D0",
"`+	c #DDD6B0",
" @	c #B3AD90",
".@	c #CCC5B4",
"+@	c #8E8E45",
"@@	c #7D7D7E",
"#@	c #7B7A60",
"$@	c #929118",
"%@	c #707034",
"&@	c #BFBFBF",
"*@	c #C1C1C1",
"=@	c #5B5B5C",
"-@	c #7D7C23",
";@	c #767320",
">@	c #6E6E6F",
",@	c #525252",
"'@	c #FEFBD4",
")@	c #FEFACC",
"!@	c #FEF7C4",
"~@	c #FEF8B9",
"{@	c #F2EBB6",
"]@	c #EFE5C4",
"^@	c #ECECEA",
"/@	c #D5D5D4",
"(@	c #848465",
"_@	c #DBDBD9",
":@	c #D1D1D0",
"<@	c #B6B6B5",
"[@	c #8F8F84",
"}@	c #8C8C81",
"|@	c #D1D1CF",
"1@	c #A8A8A8",
"2@	c #AAA899",
"3@	c #FEFACF",
"4@	c #FEFAD7",
"5@	c #FEF9BF",
"6@	c #FEF8BF",
"7@	c #FEFAB9",
"8@	c #FEF7B9",
"9@	c #FEF9B1",
"0@	c #FEF6B1",
"a@	c #808060",
"b@	c #DFDFDE",
"c@	c #EDEDEC",
"d@	c #DDDDDC",
"e@	c #D8D8D7",
"f@	c #D4D4D4",
"g@	c #D1D1D2",
"h@	c #D2D2D1",
"i@	c #D1D1D1",
"j@	c #BEBEBE",
"k@	c #5E5E60",
"l@	c #AAA88F",
"m@	c #FEFAC7",
"n@	c #FEF9B9",
"o@	c #FEF7B4",
"p@	c #FEF7AC",
"q@	c #FEF6A1",
"r@	c #A4A41A",
"s@	c #858567",
"t@	c #DCDCDC",
"u@	c #D7D7D7",
"v@	c #D5D5D5",
"w@	c #CDCDCD",
"x@	c #C9C9CA",
"y@	c #C6C6C7",
"z@	c #818181",
"A@	c #141416",
"B@	c #AAA789",
"C@	c #FEF9C1",
"D@	c #FEFAC1",
"E@	c #FEF9B7",
"F@	c #FEF8B4",
"G@	c #FEF9B4",
"H@	c #FEF9AC",
"I@	c #FEF7A1",
"J@	c #E9E296",
"K@	c #BFBA80",
"L@	c #757534",
"M@	c #DBDBDC",
"N@	c #D9D9DA",
"O@	c #A7A7A6",
"P@	c #575756",
"Q@	c #4E4E4E",
"R@	c #969697",
"S@	c #C3C3C2",
"T@	c #C3C3C4",
"U@	c #AEAEAE",
"V@	c #373737",
"W@	c #FEF7BC",
"X@	c #FEFAB7",
"Y@	c #FEF7B7",
"Z@	c #FEF9AF",
"`@	c #FEF6A8",
" #	c #FEF6A5",
".#	c #908E7D",
"+#	c #D6D6D5",
"@#	c #44420D",
"##	c #525005",
"$#	c #46462E",
"%#	c #B4B4B5",
"&#	c #777777",
"*#	c #757574",
"=#	c #818182",
"-#	c #AAA779",
";#	c #FEFAB4",
">#	c #FEF6B0",
",#	c #FEF7A8",
"'#	c #FEF69F",
")#	c #FEF698",
"!#	c #FEF595",
"~#	c #7A7A7A",
"{#	c #C2C2C1",
"]#	c #CFCFCF",
"^#	c #525251",
"/#	c #545105",
"(#	c #2B2A09",
"_#	c #DBDBDA",
":#	c #BBBBBC",
"<#	c #B3B3B2",
"[#	c #A4A4A6",
"}#	c #929291",
"|#	c #848483",
"1#	c #AAA679",
"2#	c #FEF8A9",
"3#	c #FEF7A4",
"4#	c #FEF699",
"5#	c #FEF7A6",
"6#	c #FEF69D",
"7#	c #FEF697",
"8#	c #FEF590",
"9#	c #A3A071",
"0#	c #636365",
"a#	c #949493",
"b#	c #47462E",
"c#	c #88887D",
"d#	c #B8B8B7",
"e#	c #A5A5A6",
"f#	c #1F1F21",
"g#	c #726E52",
"h#	c #FEF6AD",
"i#	c #FEF6A6",
"j#	c #FEF59C",
"k#	c #FEF68C",
"l#	c #FEF588",
"m#	c #FEF486",
"n#	c #FEF281",
"o#	c #FEF380",
"p#	c #818023",
"q#	c #D3D3D1",
"r#	c #CACACA",
"s#	c #C4C4C4",
"t#	c #B6B6B4",
"u#	c #B4B4B2",
"v#	c #7E7E7F",
"w#	c #1C1C1B",
"x#	c #565338",
"y#	c #C6C07F",
"z#	c #FEF591",
"A#	c #FEF387",
"B#	c #FEF58A",
"C#	c #FEF277",
"D#	c #FEF37C",
"E#	c #7F7C20",
"F#	c #95958C",
"G#	c #CECECC",
"H#	c #C6C6C5",
"I#	c #C2C2C4",
"J#	c #BDBDBC",
"K#	c #B7B7B7",
"L#	c #B3B3B4",
"M#	c #B1B1B2",
"N#	c #797979",
"O#	c #1B1B1D",
"P#	c #4A482B",
"Q#	c #AAA35B",
"R#	c #FEF383",
"S#	c #FEF274",
"T#	c #FEF269",
"U#	c #757577",
"V#	c #BABABA",
"W#	c #939393",
"X#	c #AFAFAE",
"Y#	c #B5B5B5",
"Z#	c #828284",
"`#	c #AEAEAD",
" $	c #747476",
".$	c #565230",
"+$	c #C6BF68",
"@$	c #FEF379",
"#$	c #FEF26F",
"$$	c #FEF264",
"%$	c #69696A",
"&$	c #AAAAAA",
"*$	c #68686A",
"=$	c #514F30",
"-$	c #525253",
";$	c #747473",
">$	c #242426",
",$	c #898989",
"'$	c #787879",
")$	c #4A4724",
"!$	c #AAA244",
"~$	c #FEF261",
"{$	c #706F22",
"]$	c #4B4A2E",
"^$	c #323120",
"/$	c #24230C",
"($	c #6C6C6B",
"_$	c #979798",
":$	c #232325",
"<$	c #565221",
"[$	c #C6BD48",
"}$	c #5B5807",
"|$	c #2B2A0E",
"1$	c #8C8C8B",
"2$	c #2A2A2C",
"                                                                ",
"                                                                ",
"                      . + +         @ @ #                       ",
"                  $ % & * * =     - ; > , ' $                   ",
"              ) ! ~ ~ ~ ~ { ] ^ / ( _ : < [ } | 1               ",
"          $ 2 3 4 5 5 5 6 7 8 9 0 a b c d e f g h i $           ",
"      j k l m l m l n o p q r s t u v w x y z A B C D E F       ",
"    $ G H H H H I J K L M N O P Q R S T U V W X Y Z `  ...$     ",
"        +.@.#.$.%.&.*.=.-.;.>.,.'.).!.~.{.].^./.(.a _.:.        ",
"    $ $ <.[.}.|.1.2.3.4.5.6.7.8.9.0.a.b.c.d.e.f.g.h.i.j.$ $     ",
"      $ k.l.m.n.o.p.q.r.s.t.u.v.w.x.y.z.A.B.C.D.E.F., ' $       ",
"        $ G.H.I.J.o.K.L.M.N.O.P.Q.R.S.T.U.V.W.X.Y.> Z.$         ",
"          `. +.+++@+#+$+%+&+*+=+-+;+>+,+'+)+!+~+{+]+^+          ",
"          ' /+(+_+:+<+[+}+|+1+2+3+4+5+6+7+8+9+0+a+b+c+          ",
"          ' > d+e+f+g+h+i+j+k+l+m+n+o+p+q+r+s+t+u+v+w+          ",
"          x+y+z+A+B+C+D+E+F+G+H+I+J+K+L+M+N+O+P+Q+R+S+          ",
"          T+U+V+W+X+Y+Y+Z+`+ @.@+@@@#@$@%@&@*@=@-@;@>@,@        ",
"          T+W+X+'@'@)@)@!@~@{@]@@@^@/@(@&@_@:@<@[@}@|@1@$       ",
"          2@3@3@4@)@5@6@7@8@9@0@a@/@b@c@d@e@f@g@h@i@j@k@        ",
"          l@3@3@m@m@n@~@o@* p@q@r@s@^@t@u@v@g@w@x@y@z@A@        ",
"          B@m@C@D@E@F@G@H@I@J@K@L@&@M@N@O@P@Q@R@S@T@U@V@        ",
"          B@D@W@X@Y@Z@`@ #q@.#N+&@_@e@+#P@@###$#T@&@%#&#*#=#    ",
"          -#o@;#o@>#,#'#)#!#~#h@{#:@f@]#^#/#*.(#_#:#<#[#}#|#$   ",
"          1#G@2#3#4#5#6#7#8#9#0#=@<@g@w@a#b#(#c#+#d#e## f#f#    ",
"          g#h#i# #j#k#7#l#m#n#o#p#[@q#r#S@s#N@+#t#u#v#w#        ",
"            x#y#7#z#A#B#m#l#C#D#E#F#G#H#I#&@J#K#L#M#N#O#        ",
"                P#Q#B#R#o#S#S#T#U#N@V#W#X#Y#u#e#v#Z#`# $$       ",
"                    .$+$@$S##$$$%$&$*$=$-$;$O@# w#>$,$'$$       ",
"                        )$!$~$~${$]$^$/$$ ($_$:$    $ $         ",
"                            <$[$}$|$      1$@ 2$                ",
"                                            $                   ",
"                                                                "};
