/* XPM */
static char * proceed_xpm[] = {
"48 48 193 2",
"  	c None",
". 	c #020204",
"+ 	c #FEF6B4",
"@ 	c #FEFEFC",
"# 	c #FEFAE4",
"$ 	c #F2EAA4",
"% 	c #F6EEA4",
"& 	c #F6EEB4",
"* 	c #FAF6DC",
"= 	c #FAF2CC",
"- 	c #FEFAF4",
"; 	c #EEE294",
"> 	c #EEE284",
", 	c #F2E694",
"' 	c #D6C664",
") 	c #B6B604",
"! 	c #EADE7C",
"~ 	c #E2D67C",
"{ 	c #E6DA84",
"] 	c #B6B204",
"^ 	c #BABA04",
"/ 	c #DECE74",
"( 	c #E2D27C",
"_ 	c #BEAE5C",
": 	c #A29E04",
"< 	c #A6A204",
"[ 	c #AAAA04",
"} 	c #AEAE04",
"| 	c #8E8E04",
"1 	c #969204",
"2 	c #969604",
"3 	c #9E9A04",
"4 	c #A6A604",
"5 	c #DACE74",
"6 	c #EEE68C",
"7 	c #CEBA54",
"8 	c #9A8634",
"9 	c #9A8E4C",
"0 	c #7A7A0C",
"a 	c #827E04",
"b 	c #868204",
"c 	c #868604",
"d 	c #8A8A04",
"e 	c #D6CA74",
"f 	c #CEC26C",
"g 	c #CABE6C",
"h 	c #C6B244",
"i 	c #86723C",
"j 	c #6A6604",
"k 	c #6E6A04",
"l 	c #726E04",
"m 	c #767204",
"n 	c #767604",
"o 	c #7E7E04",
"p 	c #C6BA64",
"q 	c #C2B664",
"r 	c #BEB264",
"s 	c #726234",
"t 	c #56520C",
"u 	c #5E5A04",
"v 	c #625E04",
"w 	c #666204",
"x 	c #6E6E04",
"y 	c #7A7604",
"z 	c #AEA65C",
"A 	c #B6AA5C",
"B 	c #AEA254",
"C 	c #A69E54",
"D 	c #46420C",
"E 	c #423E0C",
"F 	c #4A460C",
"G 	c #4E4A04",
"H 	c #524E0C",
"I 	c #5A5604",
"J 	c #5E5E0C",
"K 	c #A69A54",
"L 	c #9E964C",
"M 	c #9E924C",
"N 	c #968E4C",
"O 	c #82763C",
"P 	c #FEEE94",
"Q 	c #564E04",
"R 	c #928A44",
"S 	c #8E8644",
"T 	c #867A44",
"U 	c #FEEEA4",
"V 	c #FEEE9C",
"W 	c #8E8244",
"X 	c #867E3C",
"Y 	c #7A6E34",
"Z 	c #7E6E34",
"` 	c #7A7A5C",
" .	c #FEF2B4",
"..	c #3E360C",
"+.	c #827A3C",
"@.	c #7E763C",
"#.	c #665E2C",
"$.	c #3E3A0C",
"%.	c #B2AE94",
"&.	c #928E6C",
"*.	c #FEF6CC",
"=.	c #7A7234",
"-.	c #726A34",
";.	c #625A2C",
">.	c #FAFAFC",
",.	c #6A5614",
"'.	c #E2DABC",
").	c #FEFACC",
"!.	c #3A320C",
"~.	c #423A0C",
"{.	c #6E662C",
"].	c #564E24",
"^.	c #7A6614",
"/.	c #322A0C",
"(.	c #362E0C",
"_.	c #6A622C",
":.	c #5B5828",
"<.	c #585428",
"[.	c #58585A",
"}.	c #424244",
"|.	c #9B9721",
"1.	c #928E04",
"2.	c #8A8604",
"3.	c #FEFEE4",
"4.	c #BAB29C",
"5.	c #AE9A3C",
"6.	c #706D21",
"7.	c #E6E6E4",
"8.	c #C2C2C4",
"9.	c #9A9274",
"0.	c #B7A552",
"a.	c #A5944B",
"b.	c #897F4B",
"c.	c #8E7A14",
"d.	c #949021",
"e.	c #DEDEDC",
"f.	c #9A9A9C",
"g.	c #979721",
"h.	c #8D8921",
"i.	c #C2BA9C",
"j.	c #CEC6B4",
"k.	c #C5C521",
"l.	c #A29E21",
"m.	c #A9A921",
"n.	c #DADADC",
"o.	c #8E8E8C",
"p.	c #949421",
"q.	c #323234",
"r.	c #FEFAB4",
"s.	c #DAD6CC",
"t.	c #E2E2E4",
"u.	c #B0B021",
"v.	c #898928",
"w.	c #C6C6C4",
"x.	c #FAEACC",
"y.	c #D6D6D4",
"z.	c #7A7A7C",
"A.	c #D2D2D4",
"B.	c #CECECC",
"C.	c #CACACC",
"D.	c #5A5A5C",
"E.	c #FEF69C",
"F.	c #B7B721",
"G.	c #B4B428",
"H.	c #A6A6A4",
"I.	c #FEF6A4",
"J.	c #B4B421",
"K.	c #666664",
"L.	c #B2B2B4",
"M.	c #BEBEBC",
"N.	c #0E0E0C",
"O.	c #525254",
"P.	c #060604",
"Q.	c #0A0A0C",
"R.	c #AAAAAC",
"S.	c #BABABC",
"T.	c #7E7A04",
"U.	c #AEAEAC",
"V.	c #FEF68C",
"W.	c #6E6E6C",
"X.	c #B6B6B4",
"Y.	c #FEF284",
"Z.	c #666604",
"`.	c #1A1A1C",
" +	c #F2F2F4",
".+	c #FEF274",
"++	c #565654",
"@+	c #8E8A04",
"#+	c #FEF25C",
"$+	c #6D6921",
"%+	c #787421",
"&+	c #7F7B21",
"*+	c #7B7821",
"                                                                                                ",
"                                                                                                ",
"                                      .                 .                                       ",
"                                  . . + .             . @ . .                                   ",
"                              . . + + + + .         . @ @ @ @ . .                               ",
"                          . . + + + + + + + .     . # # @ @ @ @ @ . .                           ",
"                      . . $ % % % % % % % $ $ . . & * = * # # # - @ @ . .                       ",
"                  . . ; > , ; ; ; ; ; ; > ' ' ) ! @ @ % = & = * * * # # - . .                   ",
"              . . ~ { { ~ { { { { { { ' ' ] ) ^ > > > @ @ $ $ & = = = * * * # . .               ",
"          . . / / ( / / ( / / / / _ _ : < [ } } > ! > > > @ @ $ $ $ % & % = = = * . .           ",
"      . . ' ' ' ' ' ' ' ' ' ' _ _ | 1 2 3 3 < 4 ! { ~ ( ~ ( 5 @ @ > 6 , $ $ % & & & = . .       ",
"        . 7 7 7 7 7 7 7 7 8 9 0 a b c d | 1 2 3 5 5 5 e f f f f g @ @ > > , 6 6 $ % $ .         ",
"          . h h h h h i i j k l m n 0 o c c d 1 f f f f g p q q r r _ @ @ > > > > , .           ",
"            . _ h s s t u v w j k x m m y o a b p q r z _ A A A z B B C C @ @ > > .             ",
"      . . . . . D E F G H t I u J w j k x m n 0 A z A z z B C C K K L M M N N O . . . . .       ",
"        . . P P P F F E D F G Q t I J v w k k x z C C C L L N N N R R R S T O @ @ @ . .         ",
"            . . P U V F F E E F G G t t I J v w L L N N R N R S W W X Y Z @ @ @ . .             ",
"              . `  . . .= F F ..E D F G H H I u R W X W X X +.@.@.#.#.@ @ @ @ $..               ",
"              . %.&.` *.*.*.# $.E ..$.E D F G H X X @.+.=.Y -.;.;.# >.@ @ $...,..               ",
"              . @ '.%.&.` ).# - # $.E !.$.~.E D Y -.-.-.{.].#.*.*.).@ $.$.^.n b .               ",
"              . @ @ @ '.%.&.` # @ @ @ /.(.!...$.{._.#.].].P % + * :.<.^.y | d c .               ",
"              . @ @ @ - # '.%.&.` @ @ @ >././.(.;.G ].P P P  .[.}.}.}.|.1.d 2.b .               ",
"              . @ @ @ @ 3.- # '.4.&.` @ # >.@ %.5.$ P P P I 6.}.7.@ 8.}.|.2.b o .               ",
"              . 3.# 3.3.# 3.3.# # '.%.&.` &.9.4.^ 0.a.b.t c.d.}.@ e.f.}.g.b a h..               ",
"              . 3.@ # 3.# # ).).# ).# '.i.&.4.j.k.}.}.}.l.| m.}.@ n.o.}.p.a h.q.q..             ",
"              . 3.# 3.# 3.3.3.).).).).r.*.'.j.s.}.e.@ t.}.u.}.}.@ n.o.}.}.v.q.7.7.w..           ",
"              . 3.# 3.).).).).).).).*.+ r.+ r.x.}.@ e.e.@ }.@ @ e.y.e.7.7.q.7.w.w.z..           ",
"              . # ).).).# ).).r.).+ r.).+ r.+ + }.t.e.e.t.@ e.e.y.y.A.A.B.7.C.B.w.D..           ",
"              . 3.).# ).).).).*.r.).r.r.+ r.E.+ F.}.@ e.e.e.n.n.y.A.A.B.C.C.B.C.D..             ",
"              . ).).).).).r.).r.r.+ + + + + E.E.[ G.}.@ e.n.y.y.A.A.B.C.C.w.8.H..               ",
"              . ).).).r.).r.r.+ r.r.r.r.E.E.I.E.J.}.@ n.n.n.y.o.K.K.o.L.w.w.8.M.o.N.            ",
"              . ).r.).*.r.*.+ r.+ + E.E.E.I.}.}.}.}.@ e.n.y.o.O.P.. Q.R.S.8.8.S.f.. . . .       ",
"              . ).).r.+ r.r.+ r.E.I.I.+ E.}.7.@ @ @ e.y.y.y.K.P.T.T.x N.C.M.M.S.U.o.H.M.8..     ",
"              . r.+ r.r.+ + + E.+ E.E.V.I.}.@ e.e.n.y.y.A.B.W.. T.l l . 7.M.S.X.L.L.U.U.o..     ",
"              . r.+ + r.r.r.I.r.I.V.I.V.Y.}.M.f.o.o.e.A.A.B.o.Q.m l Z.`. +M.S.X.H.z.D.D.D..     ",
"              . + r.r.E.E.E.V.I.E.I.V.I.V.V.}.}.}.}.7.A.B.C.U.R.N.. `.@ e.X.X.L.z.. . . .       ",
"              . + + + I.I.+ E.V.V.I.V.V.Y.Y.Y..+g.}.7.B.B.C.w.M.C.t. +e.X.X.X.L.++P.            ",
"              . . E.I.E.E.E.Y.V.V.V.Y..+V..+V.V.@+v.q.7.C.w.8.8.M.M.S.X.X.L.U.z..               ",
"                  . . I.V.I.V.Y.Y.V.V.Y.V..+.+.+|.q.>.w.w.w.8.8.M.M.S.X.L.L.L.H.D..             ",
"                      . . V.Y.V.V.Y.Y..+.+.+.+#+q.>.C.w.C.X.M.M.S.X.X.L.L.z.R.X.R.D..           ",
"                          . . Y.V..+V..+.+.+.+.+q.>.w.8.D.q.o.f.U.X.H.z.++. z.H.H.D..           ",
"                              . . V..+.+.+.+#+#+q.w.z.D.q.$+q.q.W.X.z.. P.  . z.z.z..           ",
"                                  . . .+#+#+.+#+v.q.q.q.%+. . . o.L.D..       . . .             ",
"                                      . . #+#+#+m &+*+. .     . w.U.z..                         ",
"                                          . . #+l . .         . y.o.z..                         ",
"                                              . .               . . .                           ",
"                                                                                                ",
"                                                                                                "};
