/* XPM */
static char * removeM_xpm[] = {
"9 9 3 1",
" 	c None",
".	c #FF585C",
"+	c #BDBDBD",
"         ",
" ....... ",
" +.....+ ",
"  .....  ",
"  +...+  ",
"   ...   ",
"   +.+   ",
"    .    ",
"         "};
