/* XPM */
static char * sources_xpm[] = {
"48 48 848 2",
"  	c None",
". 	c #4D718D",
"+ 	c #3266A1",
"@ 	c #889279",
"# 	c #697A7C",
"$ 	c #326DAF",
"% 	c #5F8FBC",
"& 	c #96A49B",
"* 	c #7B9B92",
"= 	c #97A38D",
"- 	c #97A67F",
"; 	c #8DA179",
"> 	c #8D996B",
", 	c #849666",
"' 	c #6B8457",
") 	c #4E7FB2",
"! 	c #5F8BB5",
"~ 	c #FAF8D2",
"{ 	c #FCFBCD",
"] 	c #FBFAD9",
"^ 	c #698DA4",
"/ 	c #92979C",
"( 	c #868F92",
"_ 	c #C9BD99",
": 	c #99978B",
"< 	c #C9B588",
"[ 	c #CEC282",
"} 	c #C5B56D",
"| 	c #437BB3",
"1 	c #BFCAC4",
"2 	c #F2F2C7",
"3 	c #FCFCE8",
"4 	c #FCFCEE",
"5 	c #FCFCE4",
"6 	c #B9C4B7",
"7 	c #96AFB2",
"8 	c #638699",
"9 	c #AEA394",
"0 	c #CEB592",
"a 	c #E7CF9C",
"b 	c #A8B18D",
"c 	c #C3BF82",
"d 	c #A8985A",
"e 	c #487FAF",
"f 	c #779EBF",
"g 	c #FCFCF4",
"h 	c #FCFCF2",
"i 	c #FCFCD7",
"j 	c #FCFCDD",
"k 	c #FCFBC9",
"l 	c #FCFCDC",
"m 	c #FCFCE9",
"n 	c #E1DCA9",
"o 	c #F7ECA8",
"p 	c #F9F2AF",
"q 	c #D2C494",
"r 	c #BCB47D",
"s 	c #A89B66",
"t 	c #918D69",
"u 	c #336CA2",
"v 	c #5384B9",
"w 	c #CFCAB2",
"x 	c #FAF7BF",
"y 	c #FCFCCE",
"z 	c #FCFCD9",
"A 	c #FCFCF1",
"B 	c #FCFCF7",
"C 	c #FCFCE7",
"D 	c #E0DCA8",
"E 	c #7B8D8D",
"F 	c #FAF0A8",
"G 	c #8D917B",
"H 	c #99997B",
"I 	c #A49964",
"J 	c #867F56",
"K 	c #5E5C46",
"L 	c #3F79B1",
"M 	c #4E86BC",
"N 	c #A9BBA6",
"O 	c #C2C999",
"P 	c #E6E4AC",
"Q 	c #FCFBD2",
"R 	c #FCFCDE",
"S 	c #FCFCE1",
"T 	c #FCFCD5",
"U 	c #FCFCE3",
"V 	c #F0EBAF",
"W 	c #778D8F",
"X 	c #F5E5A1",
"Y 	c #EBE19C",
"Z 	c #BBB282",
"` 	c #707259",
" .	c #8F8659",
"..	c #74745E",
"+.	c #346799",
"@.	c #447BB2",
"#.	c #4E86BB",
"$.	c #548ABB",
"%.	c #7499B7",
"&.	c #6B94B4",
"*.	c #9CB796",
"=.	c #9CBF92",
"-.	c #9EBB8F",
";.	c #C5C499",
">.	c #EDD69C",
",.	c #F0D79C",
"'.	c #DCC092",
").	c #C4B58D",
"!.	c #DCD1A1",
"~.	c #AEA484",
"{.	c #75796E",
"].	c #253B4E",
"^.	c #242F38",
"/.	c #55553D",
"(.	c #396BA0",
"_.	c #4479AF",
":.	c #4E84B9",
"<.	c #5086BB",
"[.	c #5688B5",
"}.	c #8DA09C",
"|.	c #9EB78B",
"1.	c #8DAE86",
"2.	c #99AF88",
"3.	c #BDBB8A",
"4.	c #CABC8D",
"5.	c #CCBB88",
"6.	c #E4C48D",
"7.	c #EFD992",
"8.	c #2D4E68",
"9.	c #162E40",
"0.	c #41453C",
"a.	c #8E8A66",
"b.	c #8E8E8D",
"c.	c #4A4A4B",
"d.	c #356699",
"e.	c #3F72A8",
"f.	c #487FB5",
"g.	c #4E7FB5",
"h.	c #4E82B2",
"i.	c #5180AC",
"j.	c #6688A3",
"k.	c #C9BF99",
"l.	c #D3C08D",
"m.	c #CFBC8B",
"n.	c #B4A682",
"o.	c #969482",
"p.	c #C7B782",
"q.	c #AB9E74",
"r.	c #3D4D57",
"s.	c #0C1824",
"t.	c #AAA579",
"u.	c #E2DBA0",
"v.	c #FEF6B4",
"w.	c #807C5C",
"x.	c #807E72",
"y.	c #FEFCF7",
"z.	c #FEFEFB",
"A.	c #E2E2E0",
"B.	c #AAAAA9",
"C.	c #020204",
"D.	c #316395",
"E.	c #3D6EA3",
"F.	c #4879AF",
"G.	c #4A7BAE",
"H.	c #4B7BA8",
"I.	c #4D7DA8",
"J.	c #567FA1",
"K.	c #DCCEA6",
"L.	c #DAC491",
"M.	c #DCBF8D",
"N.	c #BCAE80",
"O.	c #B5A87F",
"P.	c #72654E",
"Q.	c #484A3B",
"R.	c #868158",
"S.	c #F4EA9B",
"T.	c #F4EAA2",
"U.	c #F5EA9E",
"V.	c #E9DE8F",
"W.	c #777332",
"X.	c #888361",
"Y.	c #FAF7DD",
"Z.	c #F8F2C8",
"`.	c #FAF6D2",
" +	c #FCF8DE",
".+	c #FDF9EA",
"++	c #FDFCF1",
"@+	c #8E8D84",
"#+	c #4A4948",
"$+	c #234F79",
"%+	c #336497",
"&+	c #3F6EA3",
"*+	c #4372A4",
"=+	c #44729C",
"-+	c #46729B",
";+	c #B8BBA4",
">+	c #E8E2B5",
",+	c #E3D39C",
"'+	c #C0BC86",
")+	c #858261",
"!+	c #3B3628",
"~+	c #989056",
"{+	c #CEC479",
"]+	c #E7DB86",
"^+	c #E9DD86",
"/+	c #E9DD85",
"(+	c #E9DD89",
"_+	c #E5D87F",
":+	c #DECF72",
"<+	c #C0BA25",
"[+	c #BCBA0F",
"}+	c #EFE290",
"|+	c #F3EBAC",
"1+	c #FCF9E5",
"2+	c #F6F0BF",
"3+	c #F5EEB6",
"4+	c #F8F2CA",
"5+	c #F9F4CF",
"6+	c #FBF6D9",
"7+	c #DFDCC9",
"8+	c #A9A696",
"9+	c #295685",
"0+	c #376394",
"a+	c #3B6699",
"b+	c #3C6892",
"c+	c #3F6891",
"d+	c #869292",
"e+	c #E4D59E",
"f+	c #938C67",
"g+	c #595435",
"h+	c #7A713E",
"i+	c #DBCB6F",
"j+	c #DDCD72",
"k+	c #DCCD72",
"l+	c #D8CB6F",
"m+	c #CFC36C",
"n+	c #B9AE4E",
"o+	c #A9A22B",
"p+	c #A09C04",
"q+	c #A8A704",
"r+	c #AAAA04",
"s+	c #EBDF81",
"t+	c #EADE81",
"u+	c #EADD82",
"v+	c #F1EAB6",
"w+	c #F3EFCA",
"x+	c #F6F1C1",
"y+	c #F2E99F",
"z+	c #F5EBAA",
"A+	c #F5EEB3",
"B+	c #F7F0BF",
"C+	c #F8F2C5",
"D+	c #8A876E",
"E+	c #48473C",
"F+	c #1F4168",
"G+	c #315E8D",
"H+	c #355F8F",
"I+	c #38638B",
"J+	c #3B638B",
"K+	c #5F7B8D",
"L+	c #F7DEA1",
"M+	c #675F46",
"N+	c #8C7F3D",
"O+	c #D1BE5A",
"P+	c #C5B458",
"Q+	c #AE9F53",
"R+	c #938D21",
"S+	c #8D890E",
"T+	c #8C8C04",
"U+	c #929004",
"V+	c #989704",
"W+	c #9E9D04",
"X+	c #DED277",
"Y+	c #DCD077",
"Z+	c #D9CD74",
"`+	c #D4C871",
" @	c #D5CB7E",
".@	c #DCD49C",
"+@	c #F9F5D6",
"@@	c #F3EAA5",
"#@	c #F0E693",
"$@	c #F3E89F",
"%@	c #F3EAA3",
"&@	c #F5EDB0",
"*@	c #A39E77",
"=@	c #264E7B",
"-@	c #285482",
";@	c #2C5780",
">@	c #2D5782",
",@	c #2E5679",
"'@	c #F8E9A1",
")@	c #E4CA91",
"!@	c #675E46",
"~@	c #998A38",
"{@	c #C5B247",
"]@	c #AA973F",
"^@	c #867931",
"/@	c #72650C",
"(@	c #6B6704",
"_@	c #706D04",
":@	c #737204",
"<@	c #7B7904",
"[@	c #817E04",
"}@	c #878404",
"|@	c #8D8B04",
"1@	c #CABF69",
"2@	c #C8BD69",
"3@	c #C5B967",
"4@	c #C3B763",
"5@	c #BDB261",
"6@	c #BAAF61",
"7@	c #B6AB5E",
"8@	c #D2CCA1",
"9@	c #E7E2BC",
"0@	c #EEE285",
"a@	c #BBB270",
"b@	c #0C151F",
"c@	c #244164",
"d@	c #26476D",
"e@	c #264A6B",
"f@	c #214A79",
"g@	c #264E7F",
"h@	c #101B28",
"i@	c #0C1622",
"j@	c #17150E",
"k@	c #605920",
"l@	c #544C1A",
"m@	c #534E0D",
"n@	c #595314",
"o@	c #5D5906",
"p@	c #635F05",
"q@	c #686504",
"r@	c #6D6B04",
"s@	c #747104",
"t@	c #797604",
"u@	c #7F7C04",
"v@	c #B7AD5F",
"w@	c #B8AD5F",
"x@	c #B2A85A",
"y@	c #B1A657",
"z@	c #ACA257",
"A@	c #A9A057",
"B@	c #A39A50",
"C@	c #A29850",
"D@	c #A89F61",
"E@	c #B9B384",
"F@	c #888048",
"G@	c #1C1B12",
"H@	c #203552",
"I@	c #213D5F",
"J@	c #203F6B",
"K@	c #1E3F6B",
"L@	c #173152",
"M@	c #AA9F64",
"N@	c #E2D484",
"O@	c #847E3F",
"P@	c #5A551D",
"Q@	c #47430C",
"R@	c #4A450A",
"S@	c #534D07",
"T@	c #555106",
"U@	c #5B5A0B",
"V@	c #605D07",
"W@	c #686607",
"X@	c #6C6905",
"Y@	c #A69C51",
"Z@	c #A29851",
"`@	c #9E964E",
" #	c #9A9249",
".#	c #978E49",
"+#	c #938A47",
"@#	c #908743",
"##	c #8C8240",
"$#	c #948B55",
"%#	c #ADA47D",
"&#	c #162A42",
"*#	c #213F63",
"=#	c #203D61",
"-#	c #1E3D61",
";#	c #203D5E",
">#	c #0F1C28",
",#	c #6F6C4B",
"'#	c #FCF1AD",
")#	c #D5CB8C",
"!#	c #979260",
"~#	c #48430D",
"{#	c #433E0C",
"]#	c #48440A",
"^#	c #4F4B0A",
"/#	c #544F08",
"(#	c #585509",
"_#	c #5E5B06",
":#	c #948B47",
"<#	c #908646",
"[#	c #8E8543",
"}#	c #8B823F",
"|#	c #877E3F",
"1#	c #847A3F",
"2#	c #726A33",
"3#	c #B1AC8C",
"4#	c #E0DECF",
"5#	c #55533D",
"6#	c #16202F",
"7#	c #162C44",
"8#	c #1C395B",
"9#	c #132841",
"0#	c #88867B",
"a#	c #A29E7F",
"b#	c #C0BB97",
"c#	c #E0DBB2",
"d#	c #FDF9D9",
"e#	c #7F7B57",
"f#	c #544E25",
"g#	c #3E3A0A",
"h#	c #423E0B",
"i#	c #49430B",
"j#	c #4D4909",
"k#	c #81783A",
"l#	c #7C733A",
"m#	c #787037",
"n#	c #706730",
"o#	c #7D743F",
"p#	c #958E5D",
"q#	c #FDFAE4",
"r#	c #D3D2C0",
"s#	c #9A9676",
"t#	c #504A0A",
"u#	c #4D440B",
"v#	c #3A3738",
"w#	c #EFEDE2",
"x#	c #D1CCB4",
"y#	c #A7A485",
"z#	c #ABA989",
"A#	c #FEFBF3",
"B#	c #D3D2C4",
"C#	c #908D76",
"D#	c #37300B",
"E#	c #3C360C",
"F#	c #403B0B",
"G#	c #6F662F",
"H#	c #6B622F",
"I#	c #5F5728",
"J#	c #A39757",
"K#	c #D9D08E",
"L#	c #FDF6C3",
"M#	c #838053",
"N#	c #706527",
"O#	c #726C07",
"P#	c #878306",
"Q#	c #595704",
"R#	c #8A7B7C",
"S#	c #968181",
"T#	c #876F6F",
"U#	c #6C5A5A",
"V#	c #F8F4E2",
"W#	c #D6D1B8",
"X#	c #A39E80",
"Y#	c #C1BFAD",
"Z#	c #E1E1D8",
"`#	c #76715C",
" $	c #696247",
".$	c #807634",
"+$	c #8D8345",
"@$	c #FEEE94",
"#$	c #DACC74",
"$$	c #A49A55",
"%$	c #5B550B",
"&$	c #8C800B",
"*$	c #8E8C04",
"=$	c #8C8A04",
"-$	c #898604",
";$	c #585604",
">$	c #928080",
",$	c #E4BBBB",
"'$	c #EDB6B6",
")$	c #CBA29D",
"!$	c #584F4D",
"~$	c #303030",
"{$	c #AAAA9E",
"]$	c #FEFCF1",
"^$	c #FEFEEC",
"/$	c #FEFCE4",
"($	c #FEFDE5",
"_$	c #F0EBD0",
":$	c #D2CCAF",
"<$	c #A7A48A",
"[$	c #ABAA95",
"}$	c #B8B49D",
"|$	c #BAB39E",
"1$	c #BDB22F",
"2$	c #BFAD57",
"3$	c #9E934B",
"4$	c #83771C",
"5$	c #807B06",
"6$	c #908D06",
"7$	c #999504",
"8$	c #949104",
"9$	c #8A8804",
"0$	c #848004",
"a$	c #545304",
"b$	c #947F80",
"c$	c #EEBEBE",
"d$	c #FBBEBB",
"e$	c #F0CBBC",
"f$	c #D8CDB4",
"g$	c #7D8179",
"h$	c #363636",
"i$	c #AAAA99",
"j$	c #FEFCEC",
"k$	c #FEFCE2",
"l$	c #FDFBE1",
"m$	c #FEFBD8",
"n$	c #FEFAD5",
"o$	c #FEFAD0",
"p$	c #F7F3CF",
"q$	c #DDD6B0",
"r$	c #B7AF94",
"s$	c #CCC5B4",
"t$	c #BBBA04",
"u$	c #B9B604",
"v$	c #9E9C04",
"w$	c #9A9704",
"x$	c #A19D04",
"y$	c #9B9904",
"z$	c #928F04",
"A$	c #838104",
"B$	c #7D7B04",
"C$	c #4F4E04",
"D$	c #977F80",
"E$	c #F3BDBD",
"F$	c #F7C3BB",
"G$	c #E7D3BC",
"H$	c #DAE1BD",
"I$	c #BBD6AD",
"J$	c #4D584B",
"K$	c #FEFBD4",
"L$	c #FEFACC",
"M$	c #FEF7C4",
"N$	c #FEF9B9",
"O$	c #F2EBB6",
"P$	c #EFE5C4",
"Q$	c #B1B004",
"R$	c #AAA904",
"S$	c #A4A204",
"T$	c #939104",
"U$	c #868304",
"V$	c #777504",
"W$	c #4C4B04",
"X$	c #9B7E7F",
"Y$	c #FABDBC",
"Z$	c #EDCEBB",
"`$	c #DDDFBD",
" %	c #D0ECBC",
".%	c #C2F7BA",
"+%	c #9ECF9D",
"@%	c #283328",
"#%	c #AAA898",
"$%	c #FEF9C1",
"%%	c #FEF8BC",
"&%	c #FEFAB9",
"*%	c #FEF7B9",
"=%	c #FEF9B2",
"-%	c #ABAB04",
";%	c #9F9D04",
">%	c #949304",
",%	c #918E04",
"'%	c #827E04",
")%	c #777404",
"!%	c #726E04",
"~%	c #484604",
"{%	c #A07E7F",
"]%	c #F3C5BC",
"^%	c #DEDEBD",
"/%	c #CEEEBC",
"(%	c #C2F9BB",
"_%	c #BCF7BC",
":%	c #B8E5B8",
"<%	c #B0D1B0",
"[%	c #000000",
"}%	c #AAA88F",
"|%	c #FEFAC1",
"1%	c #FEF9BC",
"2%	c #FEF8B7",
"3%	c #FEF7B4",
"4%	c #FEF6AB",
"5%	c #FEF7AD",
"6%	c #FEF7A4",
"7%	c #ACAC04",
"8%	c #A6A504",
"9%	c #9D9B04",
"0%	c #989604",
"a%	c #8F8D04",
"b%	c #898704",
"c%	c #827F04",
"d%	c #7C7904",
"e%	c #726F04",
"f%	c #6C6904",
"g%	c #454204",
"h%	c #927473",
"i%	c #E2CEB8",
"j%	c #CFEDBC",
"k%	c #C2F8BC",
"l%	c #BDF4BC",
"m%	c #BEE8BE",
"n%	c #BFDFBF",
"o%	c #B3CAB3",
"p%	c #AAA789",
"q%	c #FEFAC9",
"r%	c #FEF9C9",
"s%	c #FEF9BF",
"t%	c #FEF8B4",
"u%	c #FEF9B4",
"v%	c #FEF7A9",
"w%	c #FEF6A0",
"x%	c #FEF69C",
"y%	c #A7A604",
"z%	c #837F04",
"A%	c #7A7804",
"B%	c #757204",
"C%	c #6D6904",
"D%	c #666204",
"E%	c #3F3D05",
"F%	c #413B3A",
"G%	c #AAB99B",
"H%	c #BFF9BC",
"I%	c #BDEEBD",
"J%	c #BEE2BE",
"K%	c #BFD8BF",
"L%	c #C0D0C0",
"M%	c #BDC7BD",
"N%	c #6A6B6A",
"O%	c #FEFAC4",
"P%	c #FEF9B0",
"Q%	c #FEF6A7",
"R%	c #FEF6A4",
"S%	c #FEF690",
"T%	c #A3A104",
"U%	c #9A9904",
"V%	c #6F6D04",
"W%	c #686404",
"X%	c #605D05",
"Y%	c #3C3906",
"Z%	c #010103",
"`%	c #374538",
" &	c #B8D7B8",
".&	c #C0D3C0",
"+&	c #C1CCC1",
"@&	c #C2C5C2",
"#&	c #C3C3C3",
"$&	c #C4C4C4",
"%&	c #868686",
"&&	c #AAA779",
"*&	c #FEFAB4",
"=&	c #FEF6B0",
"-&	c #FEF69A",
";&	c #FEF594",
">&	c #FEF598",
",&	c #FEF285",
"'&	c #949204",
")&	c #8B8904",
"!&	c #858304",
"~&	c #7C7A04",
"{&	c #6F6B04",
"]&	c #6A6604",
"^&	c #605C05",
"/&	c #5B5706",
"(&	c #383606",
"_&	c #999A99",
":&	c #C6C6C6",
"<&	c #C7C7C7",
"[&	c #C8C8C8",
"}&	c #888888",
"|&	c #AAA679",
"1&	c #FEF8AB",
"2&	c #FEF7A7",
"3&	c #FEF6A2",
"4&	c #FEF79C",
"5&	c #FEF692",
"6&	c #FEF58C",
"7&	c #8F8C04",
"8&	c #878604",
"9&	c #817F04",
"0&	c #777604",
"a&	c #716E04",
"b&	c #656104",
"c&	c #5C5906",
"d&	c #575206",
"e&	c #353205",
"f&	c #9E9E9F",
"g&	c #CCCCCC",
"h&	c #8B8B8B",
"i&	c #726E52",
"j&	c #FEF6AD",
"k&	c #FEF59A",
"l&	c #FEF593",
"m&	c #FEF488",
"n&	c #FEF282",
"o&	c #FEF380",
"p&	c #807E04",
"q&	c #635F04",
"r&	c #5C5806",
"s&	c #555108",
"t&	c #4F4A09",
"u&	c #201E08",
"v&	c #101012",
"w&	c #29292A",
"x&	c #BEBEBE",
"y&	c #D5D5D5",
"z&	c #D3D3D3",
"A&	c #D2D2D2",
"B&	c #D1D1D1",
"C&	c #8E8E8E",
"D&	c #565338",
"E&	c #C6C07D",
"F&	c #FEF698",
"G&	c #FEF592",
"H&	c #FEF389",
"I&	c #FEF58E",
"J&	c #FEF485",
"K&	c #FEF587",
"L&	c #FEF277",
"M&	c #FEF37D",
"N&	c #848104",
"O&	c #6D6A04",
"P&	c #5D5A06",
"Q&	c #575307",
"R&	c #403C06",
"S&	c #1B1A07",
"T&	c #4C4C4C",
"U&	c #9F9F9F",
"V&	c #DFDFDF",
"W&	c #DBDBDB",
"X&	c #D9D9D9",
"Y&	c #D7D7D7",
"Z&	c #D6D6D6",
"`&	c #909090",
" *	c #4A482B",
".*	c #AAA35C",
"+*	c #FEF384",
"@*	c #FEF381",
"#*	c #FEF274",
"$*	c #FEF272",
"%*	c #757304",
"&*	c #6E6B04",
"**	c #676304",
"=*	c #2D2C19",
"-*	c #0E0E0F",
";*	c #070707",
">*	c #4A4A4A",
",*	c #A0A0A0",
"'*	c #E0E0E0",
")*	c #EDEDED",
"!*	c #E4E4E4",
"~*	c #DCDCDC",
"{*	c #DADADA",
"]*	c #CDCDCD",
"^*	c #2D2D2D",
"/*	c #565230",
"(*	c #C6BF6A",
"_*	c #FEF37A",
":*	c #FEF268",
"<*	c #767504",
"[*	c #4E4A04",
"}*	c #212004",
"|*	c #94957F",
"1*	c #D0A7A2",
"2*	c #C2A3A3",
"3*	c #ABA6A6",
"4*	c #BABABA",
"5*	c #ECECEC",
"6*	c #FBFBFB",
"7*	c #F3F3F3",
"8*	c #EAEAEA",
"9*	c #E2E2E2",
"0*	c #4A4724",
"a*	c #AAA24F",
"b*	c #FEF25F",
"c*	c #787604",
"d*	c #424F2C",
"e*	c #71876A",
"f*	c #DAE2BC",
"g*	c #EDCEBC",
"h*	c #F7BDBC",
"i*	c #DDBFBF",
"j*	c #C8C3C3",
"k*	c #CECECE",
"l*	c #D8D8D8",
"m*	c #FAFAFA",
"n*	c #F5F5F5",
"o*	c #7F7F7F",
"p*	c #565222",
"q*	c #C6BD4B",
"r*	c #5A5704",
"s*	c #262504",
"t*	c #80A77E",
"u*	c #B3D9A7",
"v*	c #D9E4BD",
"w*	c #E7D4BC",
"x*	c #F8C2BB",
"y*	c #EFBDBD",
"z*	c #D8C0C0",
"A*	c #C7C3C3",
"B*	c #E9E9E9",
"C*	c #F4F4F4",
"D*	c #FCFCFC",
"E*	c #F1F1F1",
"F*	c #8A8A8A",
"G*	c #010102",
"H*	c #727A70",
"I*	c #B9D8AD",
"J*	c #D5E4BB",
"K*	c #E4D6BD",
"L*	c #F3C8BC",
"M*	c #F9BEBC",
"N*	c #E6BEBE",
"O*	c #D4C0C0",
"P*	c #C6C3C3",
"Q*	c #CBCBCB",
"R*	c #E1E1E1",
"S*	c #EBEBEB",
"T*	c #F0F0F0",
"U*	c #B2B2B2",
"V*	c #373737",
"W*	c #1A1A1A",
"X*	c #51544B",
"Y*	c #BAB79D",
"Z*	c #E5C6B6",
"`*	c #F9C0BB",
" =	c #F4BDBD",
".=	c #E2BEBE",
"+=	c #D1BFBF",
"@=	c #C5C3C3",
"#=	c #898989",
"$=	c #302D28",
"%=	c #DFB7AE",
"&=	c #E8B2B1",
"*=	c #EBBBBB",
"==	c #DEBFBF",
"-=	c #CEC0C0",
";=	c #CACACA",
">=	c #CFCFCF",
",=	c #7E7E7E",
"'=	c #7E6969",
")=	c #958383",
"!=	c #8C8484",
"~=	c #868585",
"{=	c #8D8D8D",
"]=	c #2C2C2C",
"                                                                                                ",
"                                                                                                ",
"                    . + @ #                                                                     ",
"              $ % & * = - ; > , '                                                               ",
"            ) ! ~ { ] ^ / ( _ : < [ }                                                           ",
"          | 1 2 3 4 5 6 7 8 9 0 a b c d                                                         ",
"        e f g h 5 i j k l m n o p q r s t                                                       ",
"      u v w x y z A B z 5 C D E F G H I J K                                                     ",
"      L M N O P Q R S T U l V W X Y Z `  ...                                                    ",
"    +.@.#.$.%.&.*.=.-.;.>.,.'.).!.~.{.].^./.                                                    ",
"    (._.:.<.$.[.}.|.1.2.3.4.5.6.7.8.9.0.a.a.        b.b.c.                                      ",
"    d.e.f.g.h.i.j.k.l.m.n.o.p.q.r.s.t.u.v.v.w.    x.y.z.A.B.C.                                  ",
"    D.E.F.G.H.I.J.K.L.M.N.O.P.Q.R.S.T.U.U.U.V.W.X.Y.Z.`. +.+++@+#+                              ",
"    $+%+&+*+=+-+;+>+,+'+)+!+~+{+]+^+/+(+_+:+<+[+}+|+1+2+3+4+5+6+7+8+C.                          ",
"      9+0+a+b+c+d+e+f+g+h+i+j+i+k+l+m+n+o+p+q+r+s+t+u+v+w+x+y+z+A+B+C+D+E+                      ",
"      F+G+H+I+J+K+L+M+N+O+O+O+O+P+Q+R+S+T+U+V+W+X+Y+Z+`+ @.@+@@@#@$@%@&@*@C.                    ",
"        =@-@;@>@,@'@)@!@~@{@]@^@/@(@_@:@<@[@}@|@1@2@3@4@5@6@7@8@9@|+0@a@                        ",
"        b@c@d@e@f@g@h@i@j@k@l@m@n@o@p@q@r@s@t@u@v@w@x@y@z@A@B@C@D@E@F@G@C.C.                    ",
"            H@I@J@K@L@i@M@N@O@P@Q@R@S@T@U@V@W@X@Y@Z@`@ #.#+#@###$#%#A.B.C.                      ",
"              &#*#=#-#;#>#,#'#)#!#~#{#]#^#/#(#_#:#<#[#}#|#1#2#3#4#z.5#C.                        ",
"                  6#7#8#9#0#a#b#c#d#e#f#g#h#i#j#k#l#m#n#o#p#q#r#s#t#u#v#                        ",
"                          B.w#x#y#z#A#B#C#D#E#F#G#H#I#J#K#L#M#N#O#P#Q#R#S#T#U#                  ",
"                          B.z.y.V#W#X#Y#Z#z.`# $.$+$@$#$$$%$&$*$=$-$;$>$,$'$)$!$~$              ",
"                          {$]$^$/$($_$:$<$[$}$|$1$2$3$4$5$6$7$8$9$0$a$b$c$d$e$f$g$h$            ",
"                          i$j$k$l$m$n$o$p$q$r$s$t$u$v$w$x$y$z$=$A$B$C$D$E$F$G$H$I$J$            ",
"                          i$l$m$K$K$o$L$M$N$O$P$u$Q$R$S$y$T$=$U$u@V$W$X$Y$Z$`$ %.%+%@%          ",
"                          #%n$n$L$L$$%%%&%*%=%=%Q$-%S$;%>%,%}@'%)%!%~%{%]%^%/%(%_%:%<%[%        ",
"                          }%L$L$L$|%1%2%3%4%5%6%7%8%9%0%a%b%c%d%e%f%g%h%i%j%k%l%m%n%o%[%        ",
"                          p%q%r%&%s%t%u%=%v%w%x%y%;%V+U+b%z%A%B%C%D%E%F%G%H%I%J%K%L%M%N%        ",
"                          p%O%*%&%3%P%Q%R%R%x%S%T%U%T$*$A$u@B%V%W%X%Y%Z%`% &.&+&@&#&$&%&[%      ",
"                          &&3%*&3%=&5%w%-&;&>&,&U%'&)&!&~&)%{&]&^&/&(&C.C.C._&:&<&[&[&}&[%      ",
"                          |&u%1&2&3&4&w%5&6&5&6&'&7&8&9&0&a&]&b&c&d&e&C.C.C.f&g&g&g&g&h&[%      ",
"                          i&j&R%w%k&S%S%l&m&n&o&=$8&p&A%e%f%q&r&s&t&u&v&w&x&y&z&A&A&B&C&[%      ",
"                            D&E&F&G&H&I&J&K&L&M&9$N&A%s@O&W%P&Q&R&S&~$T&U&V&W&X&Y&Z&Z&`&[%      ",
"                                 *.*6&+*@*#*$*$*z%B$%*&***^&Y%=*-*;*>*,*'*)*!*V&~*{*]*^*        ",
"                                    /*(*_*#*:*:*B$<*r@q@[*}*|*1*2*3*4*~*5*6*7*8*9*~*g&[%        ",
"                                        0*a*b*b*c*!%~%d*e*f*g*h*i*j*k*l*9*7*m*n*5*W&o*          ",
"                                            p*q*r*s*t*u*v*w*x*y*z*A*]*y&~*B*C*D*E*F*            ",
"                                                G*H*I*J*K*L*M*N*O*P*Q*z&X&R*S*T*U*V*            ",
"                                                  W*X*Y*Z*`* =.=+=@=Q*B&Y&{*{*#=V*              ",
"                                                      $=%=&=*===-=@=;=>=;=;=,=                  ",
"                                                        [%[%'=)=!=~=#={=]=[%                    ",
"                                                              [%[%[%[%[%                        ",
"                                                                                                ",
"                                                                                                ",
"                                                                                                ",
"                                                                                                ",
"                                                                                                "};
