/* XPM */
static const char * synaptic_mini_xpm[] = {
"16 16 154 2",
"  	c None",
". 	c #BBBBBB",
"+ 	c #808080",
"@ 	c #C3C3C3",
"# 	c #6E6E6E",
"$ 	c #1A1A1A",
"% 	c #101010",
"& 	c #616161",
"* 	c #BFBFBF",
"= 	c #747474",
"- 	c #303030",
"; 	c #1B1B1B",
"> 	c #0E0E0E",
", 	c #282828",
"' 	c #414141",
") 	c #584C4C",
"! 	c #9C6C6C",
"~ 	c #BEBBBB",
"{ 	c #737373",
"] 	c #3F3F3F",
"^ 	c #363636",
"/ 	c #2C2C2C",
"( 	c #39393B",
"_ 	c #383A4C",
": 	c #4F485A",
"< 	c #9A5959",
"[ 	c #A53939",
"} 	c #732323",
"| 	c #D0A09C",
"1 	c #958F8F",
"2 	c #4B4B4B",
"3 	c #3C3C3C",
"4 	c #38408C",
"5 	c #1B2CC4",
"6 	c #1F30CA",
"7 	c #2730C0",
"8 	c #202AC2",
"9 	c #443DB3",
"0 	c #1D239C",
"a 	c #BD5D58",
"b 	c #C5665F",
"c 	c #BD9997",
"d 	c #686BA2",
"e 	c #182ACC",
"f 	c #303FC5",
"g 	c #9E9FA7",
"h 	c #A45D5D",
"i 	c #954660",
"j 	c #2C2AB2",
"k 	c #232BAA",
"l 	c #E0DEDE",
"m 	c #CEA09E",
"n 	c #B03732",
"o 	c #6F63B8",
"p 	c #2233C9",
"q 	c #6F77B8",
"r 	c #975C72",
"s 	c #934A4B",
"t 	c #946E8E",
"u 	c #7F75C0",
"v 	c #DDA08A",
"w 	c #B78175",
"x 	c #E1E1E1",
"y 	c #DFDFDF",
"z 	c #D7D0CF",
"A 	c #A5A0C4",
"B 	c #1A2BCB",
"C 	c #272EBF",
"D 	c #755EA7",
"E 	c #E5BBAE",
"F 	c #DFA087",
"G 	c #EEC6B3",
"H 	c #D9BAAF",
"I 	c #C1C1C2",
"J 	c #DBDBDB",
"K 	c #DDDDDD",
"L 	c #C2C3C9",
"M 	c #8184A6",
"N 	c #424DB1",
"O 	c #3040CA",
"P 	c #6E6CCF",
"Q 	c #E7C3CD",
"R 	c #EBC1BA",
"S 	c #EEC5BA",
"T 	c #9A666F",
"U 	c #A1AEBB",
"V 	c #CFD2D5",
"W 	c #B7BBDD",
"X 	c #2130BA",
"Y 	c #818183",
"Z 	c #818488",
"` 	c #576471",
" .	c #776070",
"..	c #2C36B4",
"+.	c #1A29B6",
"@.	c #D9CAD9",
"#.	c #D4889D",
"$.	c #D28090",
"%.	c #9F5769",
"&.	c #9DABB9",
"*.	c #8D9BA9",
"=.	c #B3BBCA",
"-.	c #2D40AD",
";.	c #949FAD",
">.	c #D7D7D7",
",.	c #D4D4D6",
"'.	c #4653CB",
").	c #37438F",
"!.	c #E39FB2",
"~.	c #CE82A5",
"{.	c #D08AB0",
"].	c #95A3B1",
"^.	c #78838F",
"/.	c #768595",
"(.	c #2C3DCC",
"_.	c #1D32B6",
":.	c #2437CC",
"<.	c #4B59D7",
"[.	c #3242D2",
"}.	c #2032CE",
"|.	c #8089DB",
"1.	c #636F7C",
"2.	c #E17886",
"3.	c #D47AA8",
"4.	c #AD6F9B",
"5.	c #707B87",
"6.	c #707F8E",
"7.	c #8090AD",
"8.	c #3C5773",
"9.	c #7B87A2",
"0.	c #C3C7EB",
"a.	c #BABEE0",
"b.	c #DADBE1",
"c.	c #E4E4E4",
"d.	c #64707B",
"e.	c #D67E94",
"f.	c #9D4771",
"g.	c #5E6975",
"h.	c #6E7984",
"i.	c #1B2228",
"j.	c #8996A3",
"k.	c #BEC9D4",
"l.	c #C5CBD2",
"m.	c #C0C7CE",
"n.	c #A2AEBB",
"o.	c #7F8B96",
"p.	c #B9C0C7",
"q.	c #8B939B",
"r.	c #C4C4C4",
"s.	c #6D7A87",
"t.	c #787A7D",
"u.	c #666666",
"v.	c #5C5C5C",
"w.	c #44484C",
"              . +               ",
"          @ # $ % &             ",
"      * = - ; > , ' ) !         ",
"  ~ { ] ^ / ( _ : < [ }         ",
"  | 1 2 3 4 5 6 7 8 9 0         ",
"  a b c d e f g h i j k         ",
"  l m n o e p q r s t u v w     ",
"  x y z A B e e e C D E F G H   ",
"  I J K L M N O e e e P Q R S T ",
"  U V W X Y Z `  ...e +.@.#.$.%.",
"  &.*.=.e -.;.>.,.'.e ).!.~.{.  ",
"  ].^./.(._.:.<.[.}.|.1.2.3.4.  ",
"    5.6.7.8.9.0.a.b.c.d.e.f.    ",
"      g.h.i.j.k.l.m.n.d.        ",
"            o.p.q.r.s.d.        ",
"              t.u.v.  w.        "};
