/* XPM */
static char * synaptic_mini_xpm[] = {
"16 16 155 2",
"  	c None",
". 	c #BBBBBB",
"+ 	c #808080",
"@ 	c #C3C3C3",
"# 	c #6E6E6E",
"$ 	c #1A1A1A",
"% 	c #101010",
"& 	c #616161",
"* 	c #BFBFBF",
"= 	c #747474",
"- 	c #303030",
"; 	c #1B1B1B",
"> 	c #0E0E0E",
", 	c #282828",
"' 	c #414141",
") 	c #584C4C",
"! 	c #9C6C6C",
"~ 	c #BEBBBB",
"{ 	c #737373",
"] 	c #3F3F3F",
"^ 	c #363636",
"/ 	c #2C2C2C",
"( 	c #3A3A3A",
"_ 	c #393939",
": 	c #615555",
"< 	c #9A5959",
"[ 	c #A53939",
"} 	c #732323",
"| 	c #D0A09C",
"1 	c #958F8F",
"2 	c #4B4B4B",
"3 	c #3C3C3C",
"4 	c #595959",
"5 	c #868686",
"6 	c #B2B2B2",
"7 	c #AA6060",
"8 	c #AC4D4D",
"9 	c #B76262",
"0 	c #742626",
"a 	c #BD5D58",
"b 	c #C5665F",
"c 	c #BD9997",
"d 	c #A6A3A3",
"e 	c #C1C1C1",
"f 	c #A8A8A8",
"g 	c #A5A5A5",
"h 	c #A45D5D",
"i 	c #B15555",
"j 	c #962C2D",
"k 	c #773338",
"l 	c #E0DEDE",
"m 	c #CEA09E",
"n 	c #B03732",
"o 	c #C2ACA9",
"p 	c #9F9F9F",
"q 	c #AFAFAF",
"r 	c #AD6A6A",
"s 	c #934A4B",
"t 	c #C58B7D",
"u 	c #EDC5B2",
"v 	c #DDA08A",
"w 	c #B78175",
"x 	c #E1E1E1",
"y 	c #DFDFDF",
"z 	c #D7D0CF",
"A 	c #C6BDBB",
"B 	c #A6A6A6",
"C 	c #B1B1B1",
"D 	c #BFB0AC",
"E 	c #9C6568",
"F 	c #AD413F",
"G 	c #D4846C",
"H 	c #EDC0AD",
"I 	c #DFA087",
"J 	c #EEC6B3",
"K 	c #D9BAAF",
"L 	c #C1C1C2",
"M 	c #DBDBDB",
"N 	c #DDDDDD",
"O 	c #C9C9C9",
"P 	c #9C9C9C",
"Q 	c #C4ABA6",
"R 	c #B27876",
"S 	c #E47D67",
"T 	c #D2645C",
"U 	c #E9CAD4",
"V 	c #E7C3CD",
"W 	c #EBC1BA",
"X 	c #EEC5BA",
"Y 	c #9A666F",
"Z 	c #A1AEBB",
"` 	c #CFD2D5",
" .	c #AEAEAE",
"..	c #838383",
"+.	c #818488",
"@.	c #576471",
"#.	c #8B6D6A",
"$.	c #B38B7B",
"%.	c #B08D8A",
"&.	c #7F676F",
"*.	c #D9CAD9",
"=.	c #D4889D",
"-.	c #D28090",
";.	c #9F5769",
">.	c #9DABB9",
",.	c #8D9BA9",
"'.	c #BDC4CB",
").	c #B6BCC3",
"!.	c #4A627A",
"~.	c #959FA9",
"{.	c #D7D7D7",
"].	c #778491",
"^.	c #E39FB2",
"/.	c #CE82A5",
"(.	c #D08AB0",
"_.	c #95A3B1",
":.	c #78838F",
"<.	c #768595",
"[.	c #8395A7",
"}.	c #314E6C",
"|.	c #8996A3",
"1.	c #F6F6F6",
"2.	c #F2F2F2",
"3.	c #F1F1F1",
"4.	c #ECECEC",
"5.	c #65717C",
"6.	c #E17886",
"7.	c #D47AA8",
"8.	c #AD6F9B",
"9.	c #707B87",
"0.	c #707F8E",
"a.	c #8898A9",
"b.	c #3C5773",
"c.	c #EBEBEB",
"d.	c #E3E3E3",
"e.	c #E4E4E4",
"f.	c #64707B",
"g.	c #D67E94",
"h.	c #9D4771",
"i.	c #5E6975",
"j.	c #6E7984",
"k.	c #1B2228",
"l.	c #BEC9D4",
"m.	c #C5CBD2",
"n.	c #C0C7CE",
"o.	c #A2AEBB",
"p.	c #7F8B96",
"q.	c #B9C0C7",
"r.	c #8B939B",
"s.	c #C4C4C4",
"t.	c #6D7A87",
"u.	c #787A7D",
"v.	c #666666",
"w.	c #5C5C5C",
"x.	c #44484C",
"              . +               ",
"          @ # $ % &             ",
"      * = - ; > , ' ) !         ",
"  ~ { ] ^ / ( _ : < [ }         ",
"  | 1 2 3 4 5 6 7 8 9 0         ",
"  a b c d e f g h i j k         ",
"  l m n o p f q r s t u v w     ",
"  x y z A B C D E F G H I J K   ",
"  L M N O p P Q R S T U V W X Y ",
"  Z ` x  ...+.@.#.$.%.&.*.=.-.;.",
"  >.,.'.).!.~.{.{.{.{.].^./.(.  ",
"  _.:.<.[.}.|.1.2.3.4.5.6.7.8.  ",
"    9.0.a.b.|.1.c.d.e.f.g.h.    ",
"      i.j.k.|.l.m.n.o.f.        ",
"            p.q.r.s.t.f.        ",
"              u.v.w.  x.        "};
