/* XPM */
static char * synaptic_xpm[] = {
"48 48 809 2",
"  	c None",
". 	c #F3F3F3",
"+ 	c #EBEBEB",
"@ 	c #AEAEAE",
"# 	c #BEBEBE",
"$ 	c #DBDBDB",
"% 	c #F4F4F4",
"& 	c #E3E3E3",
"* 	c #B3B3B3",
"= 	c #BDBDBD",
"- 	c #6E6E6E",
"; 	c #010101",
"> 	c #434343",
", 	c #C9C9C9",
"' 	c #C1C1C1",
") 	c #EEEEEE",
"! 	c #E5E5E5",
"~ 	c #B8B8B8",
"{ 	c #B5B5B5",
"] 	c #939393",
"^ 	c #0A0A0A",
"/ 	c #060606",
"( 	c #020202",
"_ 	c #000000",
": 	c #9C9C9C",
"< 	c #D7D7D7",
"[ 	c #EFEFEF",
"} 	c #E1E1E1",
"| 	c #C6C6C6",
"1 	c #ADADAD",
"2 	c #868686",
"3 	c #131313",
"4 	c #0F0F0F",
"5 	c #0B0B0B",
"6 	c #070707",
"7 	c #030303",
"8 	c #262626",
"9 	c #515151",
"0 	c #232323",
"a 	c #BABABA",
"b 	c #CDCDCD",
"c 	c #EDEDED",
"d 	c #DFDFDF",
"e 	c #C2C2C2",
"f 	c #AAAAAA",
"g 	c #818181",
"h 	c #1C1C1C",
"i 	c #181818",
"j 	c #141414",
"k 	c #101010",
"l 	c #0C0C0C",
"m 	c #080808",
"n 	c #040404",
"o 	c #5D5D5D",
"p 	c #454545",
"q 	c #747474",
"r 	c #CACACA",
"s 	c #EAEAEA",
"t 	c #D5D5D5",
"u 	c #BCBCBC",
"v 	c #7E7E7E",
"w 	c #252525",
"x 	c #212121",
"y 	c #1D1D1D",
"z 	c #191919",
"A 	c #151515",
"B 	c #111111",
"C 	c #0D0D0D",
"D 	c #090909",
"E 	c #050505",
"F 	c #545454",
"G 	c #737373",
"H 	c #A5A5A5",
"I 	c #ECECEC",
"J 	c #2F2F2F",
"K 	c #2B2B2B",
"L 	c #272727",
"M 	c #1F1F1F",
"N 	c #1B1B1B",
"O 	c #171717",
"P 	c #121212",
"Q 	c #0E0E0E",
"R 	c #5F5F5F",
"S 	c #828282",
"T 	c #343434",
"U 	c #313131",
"V 	c #CBBFBF",
"W 	c #BE7C7C",
"X 	c #CFCFCF",
"Y 	c #595959",
"Z 	c #383838",
"` 	c #303030",
" .	c #2C2C2C",
"..	c #282828",
"+.	c #242424",
"@.	c #202020",
"#.	c #4F4F4F",
"$.	c #777777",
"%.	c #808080",
"&.	c #636363",
"*.	c #C9B3B3",
"=.	c #BC6464",
"-.	c #AF3E3E",
";.	c #7D2222",
">.	c #E6D3D3",
",.	c #E5E1E1",
"'.	c #C0C0C0",
").	c #B4B4B4",
"!.	c #AFAFAF",
"~.	c #4C4C4C",
"{.	c #3D3D3D",
"].	c #393939",
"^.	c #353535",
"/.	c #2D2D2D",
"(.	c #292929",
"_.	c #424242",
":.	c #4E4E4E",
"<.	c #626262",
"[.	c #656565",
"}.	c #C5AEAE",
"|.	c #BD6464",
"1.	c #AE3D3D",
"2.	c #9D2B2B",
"3.	c #952929",
"4.	c #792121",
"5.	c #E3DFDF",
"6.	c #A6A6A6",
"7.	c #3A3A3A",
"8.	c #363636",
"9.	c #323232",
"0.	c #2E2E2E",
"a.	c #2A2A2A",
"b.	c #222222",
"c.	c #1E1E1E",
"d.	c #707070",
"e.	c #404040",
"f.	c #7F7F7F",
"g.	c #E1C8C8",
"h.	c #AD3C3C",
"i.	c #9C2B2B",
"j.	c #9D2C2C",
"k.	c #943030",
"l.	c #949494",
"m.	c #D4D4D4",
"n.	c #3B3B3B",
"o.	c #373737",
"p.	c #333333",
"q.	c #5E5E5E",
"r.	c #797979",
"s.	c #585858",
"t.	c #3F3F3F",
"u.	c #9D9D9D",
"v.	c #E3C9C9",
"w.	c #AA3838",
"x.	c #9C2A2A",
"y.	c #B55F5F",
"z.	c #973838",
"A.	c #7A2121",
"B.	c #FBF5F3",
"C.	c #F3D4CE",
"D.	c #A4A2A2",
"E.	c #989898",
"F.	c #575757",
"G.	c #6C6C6C",
"H.	c #464646",
"I.	c #F2F2F2",
"J.	c #A93838",
"K.	c #BC7070",
"L.	c #C98B8B",
"M.	c #B25858",
"N.	c #983838",
"O.	c #7A2222",
"P.	c #EED3D1",
"Q.	c #DD9E95",
"R.	c #EEC3BC",
"S.	c #DAC8C8",
"T.	c #9C9999",
"U.	c #B2B2B2",
"V.	c #7B7B7B",
"W.	c #4A4A4A",
"X.	c #565656",
"Y.	c #D1D1D1",
"Z.	c #A1A1A1",
"`.	c #A3A3A3",
" +	c #C48080",
".+	c #9E2D2D",
"++	c #C27A7A",
"@+	c #983939",
"#+	c #EED4D2",
"$+	c #B43832",
"%+	c #C35C53",
"&+	c #EBC1BD",
"*+	c #BFB3B3",
"=+	c #ACACAC",
"-+	c #A2A2A2",
";+	c #DDDDDD",
">+	c #9F9F9F",
",+	c #A94848",
"'+	c #AA4848",
")+	c #9E2C2C",
"!+	c #C17A7A",
"~+	c #C07575",
"{+	c #9F2E2E",
"]+	c #993939",
"^+	c #7A2323",
"/+	c #EED6D5",
"(+	c #B53831",
"_+	c #B43C37",
":+	c #B43730",
"<+	c #CD857B",
"[+	c #ECC0B9",
"}+	c #EAC9C7",
"|+	c #AEA6A6",
"1+	c #A8A8A8",
"2+	c #919191",
"3+	c #3C3C3C",
"4+	c #4D4D4D",
"5+	c #F6F6F6",
"6+	c #BA6A6A",
"7+	c #CC9090",
"8+	c #CB8F8F",
"9+	c #A02E2E",
"0+	c #A02F2F",
"a+	c #9B3B3B",
"b+	c #F4EDED",
"c+	c #B65352",
"d+	c #B53A33",
"e+	c #B3342E",
"f+	c #B13530",
"g+	c #D58983",
"h+	c #E8B7B2",
"i+	c #DBC7C7",
"j+	c #969595",
"k+	c #F1F1F1",
"l+	c #E9E9E9",
"m+	c #9B9B9B",
"n+	c #9F2D2D",
"o+	c #A12F2F",
"p+	c #9F2F2F",
"q+	c #903737",
"r+	c #6D2020",
"s+	c #F8F8F8",
"t+	c #DDD4D4",
"u+	c #D6BDBD",
"v+	c #B4403B",
"w+	c #B3342D",
"x+	c #B2322C",
"y+	c #B02C25",
"z+	c #AD3733",
"A+	c #D58C87",
"B+	c #E2AEAA",
"C+	c #EDCFCA",
"D+	c #F0F0F0",
"E+	c #DEDEDE",
"F+	c #999999",
"G+	c #A7A7A7",
"H+	c #962B2C",
"I+	c #7F2629",
"J+	c #6E262C",
"K+	c #813F4B",
"L+	c #884956",
"M+	c #8A5567",
"N+	c #824857",
"O+	c #713541",
"P+	c #4B1F28",
"Q+	c #E2E2E2",
"R+	c #D7C7C7",
"S+	c #CA9795",
"T+	c #B2332D",
"U+	c #B02D27",
"V+	c #AE2B25",
"W+	c #AC2A24",
"X+	c #AD2924",
"Y+	c #D8A8A2",
"Z+	c #A4A4A4",
"`+	c #A9A9A9",
" @	c #ABABAB",
".@	c #A13030",
"+@	c #984343",
"@@	c #633D45",
"#@	c #8C535C",
"$@	c #BF8485",
"%@	c #E3B4AA",
"&@	c #ECC2B1",
"*@	c #EDC3B0",
"=@	c #E5AEA0",
"-@	c #D99888",
";@	c #C57C6B",
">@	c #975453",
",@	c #4D1E29",
"'@	c #E0E0E0",
")@	c #D1B7B7",
"!@	c #CD837A",
"~@	c #AE2822",
"{@	c #AD2620",
"]@	c #AB2621",
"^@	c #DD9288",
"/@	c #CBCBCB",
"(@	c #B0B0B0",
"_@	c #A43737",
":@	c #A63C3C",
"<@	c #C08384",
"[@	c #8A656A",
"}@	c #5F2E35",
"|@	c #CF8974",
"1@	c #E3AB93",
"2@	c #E9B8A5",
"3@	c #EEC7B2",
"4@	c #F1CDB8",
"5@	c #EFC7B3",
"6@	c #E7B4A4",
"7@	c #E0A38B",
"8@	c #DD9A79",
"9@	c #E0A185",
"0@	c #DDA28E",
"a@	c #996065",
"b@	c #351324",
"c@	c #DADADA",
"d@	c #CCAEAE",
"e@	c #AD2A24",
"f@	c #AB241F",
"g@	c #DA8E82",
"h@	c #CCCCCC",
"i@	c #A0A0A0",
"j@	c #B6B6B6",
"k@	c #A84040",
"l@	c #CA8F8F",
"m@	c #7D555B",
"n@	c #722C34",
"o@	c #BC6550",
"p@	c #DA8F6A",
"q@	c #E1A288",
"r@	c #E6B29F",
"s@	c #EEC4AF",
"t@	c #F1CCB7",
"u@	c #E6B2A1",
"v@	c #DFA085",
"w@	c #DD9C7A",
"x@	c #E2A48B",
"y@	c #E6B39F",
"z@	c #E9BDAB",
"A@	c #B78589",
"B@	c #4E2937",
"C@	c #D8D8D8",
"D@	c #C68580",
"E@	c #D6938B",
"F@	c #AC4747",
"G@	c #853739",
"H@	c #541825",
"I@	c #9C3D3F",
"J@	c #BE5E4D",
"K@	c #D5825E",
"L@	c #DE997C",
"M@	c #E5AD98",
"N@	c #ECC0AB",
"O@	c #F0C9B5",
"P@	c #EFC7B2",
"Q@	c #E5B09E",
"R@	c #DE9E81",
"S@	c #DF9E7F",
"T@	c #E4AC95",
"U@	c #EBBDAA",
"V@	c #F0CBB7",
"W@	c #F3D4C0",
"X@	c #BC8F92",
"Y@	c #381729",
"Z@	c #E6E6E6",
"`@	c #E7D1CF",
" #	c #CECECE",
".#	c #BBBBBB",
"+#	c #C3B7B5",
"@#	c #C5C5C5",
"##	c #954041",
"$#	c #541B26",
"%#	c #B93F41",
"&#	c #A9363C",
"*#	c #A93E41",
"=#	c #C76651",
"-#	c #D88769",
";#	c #E1A38E",
">#	c #EBBBA8",
",#	c #F0C6B2",
"'#	c #EFC3AF",
")#	c #E3A793",
"!#	c #DD9A7A",
"~#	c #E0A186",
"{#	c #E9B8A7",
"]#	c #F5D7C2",
"^#	c #F9E0CB",
"/#	c #F9DFCD",
"(#	c #A97C84",
"_#	c #C8C8C8",
":#	c #C7A59C",
"<#	c #D77B66",
"[#	c #C4C4C4",
"}#	c #753137",
"|#	c #A03D40",
"1#	c #D65A49",
"2#	c #CA4A44",
"3#	c #B83D3E",
"4#	c #B64744",
"5#	c #CD6D57",
"6#	c #DD9478",
"7#	c #E9B5A3",
"8#	c #EDBFAE",
"9#	c #EBB9A9",
"0#	c #DD9987",
"a#	c #DB9376",
"b#	c #E0A38D",
"c#	c #EABEAD",
"d#	c #F2D0BC",
"e#	c #F8DCC8",
"f#	c #FBE4D0",
"g#	c #FCE4D0",
"h#	c #F5D9C8",
"i#	c #572C3D",
"j#	c #8C8C8C",
"k#	c #E8E8E8",
"l#	c #D0D0D0",
"m#	c #D28472",
"n#	c #D87761",
"o#	c #BAB9BA",
"p#	c #782F3A",
"q#	c #D2665A",
"r#	c #E06E56",
"s#	c #DD624E",
"t#	c #D55548",
"u#	c #C34141",
"v#	c #BF4B46",
"w#	c #D3775E",
"x#	c #D99991",
"y#	c #DCA6B1",
"z#	c #E8BCC9",
"A#	c #D89CA7",
"B#	c #CE8480",
"C#	c #DCA095",
"D#	c #EBC1B5",
"E#	c #F3D2C2",
"F#	c #F7DACA",
"G#	c #F8DCCA",
"H#	c #F8DCC9",
"I#	c #A9767F",
"J#	c #F9F9F9",
"K#	c #969696",
"L#	c #CC9A8E",
"M#	c #C7C7C7",
"N#	c #A0999D",
"O#	c #9E4C57",
"P#	c #E98F78",
"Q#	c #E7876F",
"R#	c #E57E66",
"S#	c #E3745D",
"T#	c #DF6450",
"U#	c #D25146",
"V#	c #BC4951",
"W#	c #E7BFD2",
"X#	c #FDF3FD",
"Y#	c #FFF8FF",
"Z#	c #F6E1F2",
"`#	c #DBA7BF",
" $	c #E8BCB8",
".$	c #F0CABE",
"+$	c #F0CBBF",
"@$	c #F0C9BD",
"#$	c #EFC7BB",
"$$	c #EEC4B9",
"%$	c #D39C9F",
"&$	c #512838",
"*$	c #E5E8EC",
"=$	c #C9CED4",
"-$	c #898989",
";$	c #888888",
">$	c #C3C3C3",
",$	c #B1B5BB",
"'$	c #695F72",
")$	c #C27271",
"!$	c #EFA38B",
"~$	c #ED9F87",
"{$	c #EC9981",
"]$	c #EA927B",
"^$	c #E7846E",
"/$	c #DD7063",
"($	c #DB8FA1",
"_$	c #FDF3FC",
":$	c #E7CCD9",
"<$	c #BFAABF",
"[$	c #DEC9DE",
"}$	c #FBF1FB",
"|$	c #F7E2F3",
"1$	c #D9A1B2",
"2$	c #E7B4B3",
"3$	c #E7B3B1",
"4$	c #E6AFAE",
"5$	c #E4ACAA",
"6$	c #E3ABA8",
"7$	c #D99A9C",
"8$	c #75384C",
"9$	c #91A0B0",
"0$	c #ADB7C2",
"a$	c #BFBFBF",
"b$	c #D3D3D3",
"c$	c #D2D2D2",
"d$	c #474747",
"e$	c #B9B9B9",
"f$	c #B1B4B6",
"g$	c #83909E",
"h$	c #5B728A",
"i$	c #5D4E67",
"j$	c #D28E84",
"k$	c #F3B39B",
"l$	c #F3B299",
"m$	c #F2B098",
"n$	c #F1AE96",
"o$	c #F0A991",
"p$	c #E39792",
"q$	c #F2D0E0",
"r$	c #F9EBF5",
"s$	c #A05E6E",
"t$	c #E8D2E8",
"u$	c #D99EB9",
"v$	c #D98F99",
"w$	c #DB9298",
"x$	c #DA9296",
"y$	c #D99195",
"z$	c #D99193",
"A$	c #D58C8C",
"B$	c #7F3C52",
"C$	c #93A2B2",
"D$	c #9CA9B7",
"E$	c #D6D9DC",
"F$	c #AAACAF",
"G$	c #738192",
"H$	c #435E79",
"I$	c #4C657F",
"J$	c #5A7189",
"K$	c #5D4E68",
"L$	c #D79D91",
"M$	c #F6BFA5",
"N$	c #F5BFA6",
"O$	c #F5BFA5",
"P$	c #F5C0A5",
"Q$	c #F4BFA5",
"R$	c #E8ACA8",
"S$	c #F7E1EE",
"T$	c #F5E4EF",
"U$	c #8D454E",
"V$	c #DBC3DB",
"W$	c #DCA1BB",
"X$	c #CF7587",
"Y$	c #D1798A",
"Z$	c #CF798A",
"`$	c #CF7888",
" %	c #CF7984",
".%	c #803954",
"+%	c #E5E9EC",
"@%	c #9BA9B8",
"#%	c #95A4B4",
"$%	c #91A1B0",
"%%	c #B7BFC7",
"&%	c #B1B1B1",
"*%	c #67717A",
"=%	c #483F48",
"-%	c #9E829E",
";%	c #F5E5F5",
">%	c #CA84A7",
",%	c #CF7E96",
"'%	c #D07D96",
")%	c #CE7A94",
"!%	c #CD7793",
"~%	c #CC748F",
"{%	c #C87087",
"]%	c #78324F",
"^%	c #E6E9ED",
"/%	c #98A6B5",
"(%	c #B3BEC9",
"_%	c #99A7B7",
":%	c #91A1B1",
"<%	c #8D9CAD",
"[%	c #9FABB8",
"}%	c #798693",
"|%	c #405974",
"1%	c #F9FAFD",
"2%	c #CCDEF0",
"3%	c #C1D7EC",
"4%	c #FAEFFA",
"5%	c #FEF5FE",
"6%	c #E4BCD9",
"7%	c #C47B9B",
"8%	c #D08AA7",
"9%	c #D087A7",
"0%	c #CE83A4",
"a%	c #CD80A2",
"b%	c #CD7C9D",
"c%	c #C26F8D",
"d%	c #672A43",
"e%	c #95A4B3",
"f%	c #9AA9B7",
"g%	c #92A2B2",
"h%	c #8D9DAD",
"i%	c #8999AA",
"j%	c #8F9EAD",
"k%	c #D3D6D9",
"l%	c #D6D6D6",
"m%	c #86909A",
"n%	c #3F5974",
"o%	c #314E6C",
"p%	c #DCE8F4",
"q%	c #98AEC4",
"r%	c #72808E",
"s%	c #F1CCE0",
"t%	c #DB8FAB",
"u%	c #C96380",
"v%	c #CD7896",
"w%	c #CF85A9",
"x%	c #D18EB3",
"y%	c #D18DB5",
"z%	c #D08CB2",
"A%	c #D08AAF",
"B%	c #AA6287",
"C%	c #E6E9EC",
"D%	c #97A6B5",
"E%	c #B0BBC6",
"F%	c #94A3B2",
"G%	c #838E99",
"H%	c #88939E",
"I%	c #818E9D",
"J%	c #8190A2",
"K%	c #8697A9",
"L%	c #B1BAC3",
"M%	c #C7CED4",
"N%	c #A9B4BF",
"O%	c #35516E",
"P%	c #D1E1F1",
"Q%	c #FFFFFF",
"R%	c #738291",
"S%	c #DE828F",
"T%	c #D75A6A",
"U%	c #D66176",
"V%	c #D27596",
"W%	c #CE7EA7",
"X%	c #CF87B3",
"Y%	c #D290BD",
"Z%	c #D493BE",
"`%	c #D392BC",
" &	c #793F5E",
".&	c #E7EAED",
"+&	c #94A3B3",
"@&	c #99A7B6",
"#&	c #6F7A85",
"$&	c #7C8894",
"%&	c #747D88",
"&&	c #727D86",
"*&	c #7E90A2",
"=&	c #6F8398",
"-&	c #B8C3CD",
";&	c #35526F",
">&	c #91A7BC",
",&	c #6F7D8A",
"'&	c #E99394",
")&	c #DF666E",
"!&	c #D85D74",
"~&	c #D67195",
"{&	c #D27FA8",
"]&	c #CF85B5",
"^&	c #D18DC0",
"/&	c #D594C4",
"(&	c #C785AD",
"_&	c #290C1D",
":&	c #DCDFE3",
"<&	c #92A1B0",
"[&	c #6F7C89",
"}&	c #74808D",
"|&	c #8B99A8",
"1&	c #6D7681",
"2&	c #8795A4",
"3&	c #718499",
"4&	c #B8C2CC",
"5&	c #9BAAB8",
"6&	c #365270",
"7&	c #8EA2B6",
"8&	c #6C7A87",
"9&	c #EA9BA2",
"0&	c #E2747C",
"a&	c #D85972",
"b&	c #D66B94",
"c&	c #D67EAC",
"d&	c #D489BC",
"e&	c #D38EC2",
"f&	c #C57FB2",
"g&	c #542846",
"h&	c #35393D",
"i&	c #7B8693",
"j&	c #92A0AF",
"k&	c #757E87",
"l&	c #7B8895",
"m&	c #778390",
"n&	c #5D6A76",
"o&	c #8F9EAE",
"p&	c #74879B",
"q&	c #B8C1CC",
"r&	c #9CAAB9",
"s&	c #FAFAFA",
"t&	c #EB9FAB",
"u&	c #E47E8B",
"v&	c #D95D76",
"w&	c #D46691",
"x&	c #D479AD",
"y&	c #D486BF",
"z&	c #C881B6",
"A&	c #7A3F66",
"B&	c #616973",
"C&	c #8896A4",
"D&	c #7D8A98",
"E&	c #6E7783",
"F&	c #707C88",
"G&	c #656F7B",
"H&	c #778797",
"I&	c #77899D",
"J&	c #B9C3CC",
"K&	c #9DABB9",
"L&	c #33506D",
"M&	c #47617B",
"N&	c #FDFDFD",
"O&	c #F5F5F5",
"P&	c #ECA2B3",
"Q&	c #E5879B",
"R&	c #DB6680",
"S&	c #D16091",
"T&	c #D171AC",
"U&	c #CE74AD",
"V&	c #6C3355",
"W&	c #4E545B",
"X&	c #7D8997",
"Y&	c #58636D",
"Z&	c #6E7D8B",
"`&	c #778A9D",
" *	c #556D85",
".*	c #3F5A75",
"+*	c #ECA6B8",
"@*	c #E68EA6",
"#*	c #DD758C",
"$*	c #C2517E",
"%*	c #9A3F6B",
"&*	c #401227",
"**	c #2C3033",
"=*	c #707B86",
"-*	c #707985",
";*	c #7E8B98",
">*	c #6A7784",
",*	c #76899D",
"'*	c #B9C3CD",
")*	c #A0AEBA",
"!*	c #596F87",
"~*	c #2B4560",
"{*	c #CF879B",
"]*	c #BE6B80",
"^*	c #97425D",
"/*	c #621D34",
"(*	c #666E76",
"_*	c #707B85",
":*	c #687582",
"<*	c #738498",
"[*	c #29435D",
"}*	c #374049",
"|*	c #252628",
"1*	c #F1F4F7",
"2*	c #F7F7F7",
"3*	c #CED5DA",
"4*	c #51565C",
"5*	c #707B88",
"6*	c #596878",
"7*	c #B0B9C2",
"8*	c #8C98A4",
"9*	c #2D3744",
"0*	c #1D1E1F",
"a*	c #95ACC2",
"b*	c #8DA2B6",
"c*	c #8DA2B5",
"d*	c #8CA0B3",
"e*	c #6D7A87",
"f*	c #84898F",
"g*	c #383A3D",
"h*	c #97AEC3",
"i*	c #AEB7C2",
"j*	c #919395",
"k*	c #606B76",
"l*	c #758493",
"m*	c #58616B",
"n*	c #626D78",
"o*	c #576068",
"p*	c #7C8D9D",
"q*	c #748291",
"r*	c #93AABF",
"s*	c #606A74",
"t*	c #565E65",
"u*	c #7A8A99",
"v*	c #808992",
"w*	c #90A5B9",
"x*	c #5B646E",
"y*	c #788998",
"z*	c #565F67",
"A*	c #7B8C9C",
"B*	c #757C83",
"C*	c #9A9A9A",
"D*	c #4C5258",
"E*	c #44494D",
"F*	c #464B50",
"G*	c #687480",
"H*	c #59626A",
"                                                                                                ",
"                                          . + @ # $                                             ",
"                                      % & * = - ; > , '                                         ",
"                                  ) ! ~ { ] ^ / ( _ _ : <                                       ",
"                              [ } | 1 2 3 4 5 6 7 8 9 0 8 a b                                   ",
"                        ! c d e f g h i j k l m n _ j o p _ q r #                               ",
"                    s [ t u @ v w x y z A B C D E ; _ _ F G _ 8 H |                             ",
"                I + t u ~ 9 J K L 0 M N O P Q ^ / ( j R R S T _ U V W                           ",
"            c c X a * Y Z T `  ...+.@.h i j k l #.$.%.p _ _ &.*.=.-.;.                          ",
"        >.,.'.).!.~.{.{.].^.U /.(.w x y z A _.:.<.L ; z [.}.|.1.2.3.4.                          ",
"    I 5.).~ 6.~.{.{.{.{.7.8.9.0.a.8 b.c._.d.> e.^ M f.g.|.h.i.2.j.k.4.                          ",
"    ) l.m.d.{.{.{.{.{.{.n.o.p.J K o.q.r.s.O 3 t.u.v.|.w.x.i.2.j.y.z.A.                          ",
"    B.C.D.!.E.~.{.{.{.{.{.Z T F F.G.9 @.h H.f I.[ J.x.x.i.2.K.L.M.N.O.                          ",
"    P.Q.R.S.T.U.V.{.{.{.{.7.9 :.W.X.w V.Y.I.[ Z.`.x.x.i. +L.y..+++@+O.                          ",
"    #+$+%+R.&+*+=+-+Y {.{.n.o.p.[.S ;+I.) >+Z.`.H x.,+L.'+)+!+~+{+]+^+                          ",
"    /+(+_+:+<+[+}+|+1+2+~.3+4+u.5+I.I u.>+Z.`.H H i.2.6+7+8+{+9+0+a+^+                          ",
"    b+c+d+$+e+f+g+h+i+j+Z.{ 5+k+l+m+u.>+Z.`.H H 1+j.K.8+n+{+0+o+p+q+r+                          ",
"    s+t+u+v+w+x+y+z+A+B+C+D+E+F+m+u.>+Z.`.6.G+1+f j..+{+{+0+H+I+J+K+L+M+N+O+P+                  ",
"    s+Q+d R+S+T+U+V+W+X+Y+;+F+m+u.>+Z.Z+6.G+`+ @@ .+{+9+.@+@@@#@$@%@&@*@=@-@;@>@,@              ",
"    s+& '@d ;+)@!@~@{@]@^@/@m+u.>+Z.Z+G+G+f 1 (@)._@:@<@[@}@|@1@2@3@4@5@6@7@8@9@0@a@b@          ",
"    s+& Q+'@d $ c@d@e@f@g@h@u.i@-+H  @=+(@* j@~ a k@l@m@n@o@p@q@r@s@t@5@u@v@w@x@y@z@A@B@        ",
"    s+! & Q+'@;+$ c@C@D@E@b i@-+H 1+ @!.* { a u '.F@G@H@I@J@K@L@M@N@O@P@Q@R@S@T@U@V@W@X@Y@      ",
"    c Z@! & '@d ;+$ C@< `@ #Z.Z+6.1+1 U.).~ .#+#@###$#%#&#*#=#-#;#>#,#'#)#!#~#{#V@]#^#/#(#      ",
"    ! _#Z@! Q+'@d ;+c@C@[ X `.H 6.`+!.* j@a :#<#[#}#|#1#2#3#4#5#6#7#8#9#0#a#b#c#d#e#f#g#h#i#    ",
"    I j#k#{ & Q+'@;+$ c@[ l#H H G+ @(@).~ u m#n#o#p#q#r#s#t#u#v#w#x#y#z#A#B#C#D#E#F#G#G#H#I#    ",
"    J#r 1 @ ! & Q+d ;+$ [ Y.H G+`+=+U.K#l.u L#M#N#O#P#Q#R#S#T#U#V#W#X#Y#Y#Z#`# $.$+$@$#$$$%$&$  ",
"    *$=$l+_#m+! Q+'@d ;+D+Y.-$m+R 1 ;$~.=+.#>$,$'$)$!$~${$]$^$/$($_$:$<$[$}$|$1$2$3$4$5$6$7$8$  ",
"    *$9$0$l+a$b$& Q+'@;+D+c$q.E.d$<.g j@e$f$g$h$i$j$k$l$m$n$o$p$q$r$s$    t$Y#u$v$w$x$y$z$A$B$  ",
"    *$9$C$D$E$Z@! & Q+d D+b$n.8.&. @* F$G$H$I$J$K$L$M$N$O$P$Q$R$S$T$U$    V$Y#W$X$Y$Z$Z$`$ %.%  ",
"    +%@%#%#%$%%%Z@! Q+'@D+m.t.!.&%* *%p.p.p.p.p.p.p.p.p.p.p.p.p.p.p.p.=%-%;%X#>%,%'%)%!%~%{%]%  ",
"    ^%/%(%_%:%<%[%Z@& Q+k+t !.&%}%|%p.1%2%< < < < < < < < < < < < 3%3%p.4%5%6%7%8%9%0%a%b%c%d%  ",
"    ^%e%f%#%g%h%i%j%k%& k+l%m%n%o%o%p.p%q%@ @ @ @ @ @ @ @ @ @ @ @ q%r%p.s%t%u%v%w%x%y%z%A%B%    ",
"    C%D%E%F%G%H%I%J%K%L%M%N%O%o%o%o%p.P%q%Q%Q%Q%Q%Q%Q%Q%Q%Q%Q%Q%Q%q%R%p.S%T%U%V%W%X%Y%Z%`% &    ",
"    .&+&@&F%#&$&%&&&*&=&-&f%;&o%o%o%p.P%q%Q%Q%Q%Q%Q%Q%Q%Q%Q%Q%Q%J#>&,&p.'&)&!&~&{&]&^&/&(&_&    ",
"    :&F%(%<&[&}&|&1&2&3&4&5&6&o%o%o%p.P%q%Q%< < < < < < < < l%/@I 7&8&p.9&0&a&b&c&d&e&f&g&      ",
"    h&i&j&F%k&l&m&n&o&p&q&r&;&o%o%o%p.P%q%Q%Q%Q%Q%Q%Q%Q%Q%s&D+I I 7&8&p.t&u&v&w&x&y&z&A&        ",
"        B&C&D&E&F&G&H&I&J&K&L&o%o%M&p.P%q%Q%Q%Q%Q%Q%Q%N&O&I I I I 7&8&p.P&Q&R&S&T&U&V&          ",
"          W&m&X&l&Y&Z&`&J&K&L&M& *.*p.P%q%Q%< < < m. #M#M#M#M#M#I 7&8&p.+*@*#*$*%*&*            ",
"            **=*-*;*>*,*'*)*!*.*o%~*p.P%q%Q%Q%Q%. I I I I I I I I 7&8&p.{*]*^*/*                ",
"                (*_*:*<*'*5&;&[*}*|*p.P%q%1*Q%2*I I I I I I I I 3*7&8&p.                        ",
"                  4*5*6*7*8*9*0*_   p.P%q%q%a*b*7&7&7&7&7&c*d*7&7&7&8&p.                        ",
"                      e*f*g*_       p.P%q%h*i*M#M#X Z@I < j*k*l*7&7&8&p.                        ",
"                                    p.P%q%>&M#M#m*n*I l%M#u o*p*q*7&8&p.                        ",
"                                    p.P%r*7&M# #s*l* #M#M#>$t*u*l*7&8&p.                        ",
"                                    p.v*w*7& #Z@x*y*M#M#[#* z*A*l*7&8&p.                        ",
"                                      p.B*[&1+e C*C*E.] S r.D*E*F*G*H*p.                        ",
"                                        p.    p.p.p.p.p.p.p.      p.p.                          ",
"                                                                                                "};
