/* XPM */
static char * up_xpm[] = {
"22 22 79 1",
" 	g None",
".	g #161616",
"+	g #0F0F0F",
"@	g #282828",
"#	g #6E6E6E",
"$	g #373737",
"%	g #1D1D1D",
"&	g #242424",
"*	g #737373",
"=	g #C6C6C6",
"-	g #7F7F7F",
";	g #3A3A3A",
">	g #2A2A2A",
",	g #CACACA",
"'	g #B3B3B3",
")	g #979797",
"!	g #707070",
"~	g #1F1F1F",
"{	g #232323",
"]	g #6F6F6F",
"^	g #C5C5C5",
"/	g #ACACAC",
"(	g #8F8F8F",
"_	g #959595",
":	g #989898",
"<	g #656565",
"[	g #363636",
"}	g #1C1C1C",
"|	g #292929",
"1	g #777777",
"2	g #AAAAAA",
"3	g #898989",
"4	g #858585",
"5	g #888888",
"6	g #939393",
"7	g #A2A2A2",
"8	g #252525",
"9	g #BCBCBC",
"0	g #949494",
"a	g #868686",
"b	g #848484",
"c	g #8D8D8D",
"d	g #999999",
"e	g #A5A5A5",
"f	g #676767",
"g	g #727272",
"h	g #D1D1D1",
"i	g #D4D4D4",
"j	g #C9C9C9",
"k	g #B7B7B7",
"l	g #9C9C9C",
"m	g #8B8B8B",
"n	g #929292",
"o	g #969696",
"p	g #5D5D5D",
"q	g #383838",
"r	g #151515",
"s	g #616161",
"t	g #D0D0D0",
"u	g #C7C7C7",
"v	g #9F9F9F",
"w	g #808080",
"x	g #717171",
"y	g #606060",
"z	g #595959",
"A	g #474747",
"B	g #0C0C0C",
"C	g #040404",
"D	g #2D2D2D",
"E	g #2C2C2C",
"F	g #181818",
"G	g #171717",
"H	g #131313",
"I	g #121212",
"J	g #1A1A1A",
"K	g #313131",
"L	g #1E1E1E",
"M	g #0A0A0A",
"N	g #020202",
"                      ",
"                      ",
"                      ",
"                      ",
"                      ",
"                      ",
"          .+          ",
"         @#$%         ",
"        &*=-;%        ",
"       >*,')!;~       ",
"      {]^/(_:<[}      ",
"     |1,234567!;~     ",
"    8!=90abbcdef$}    ",
"   ~ghijkl6mc(nopqr   ",
"  .s/itu9/vcwxfyzA>B  ",
"  C.{>DEFGrHIJKLGIMN  ",
"                      ",
"                      ",
"                      ",
"                      ",
"                      ",
"                      "};
