/* XPM */
static char * update_xpm[] = {
"48 48 146 2",
"  	c None",
". 	c #174C00",
"+ 	c #154400",
"@ 	c #123800",
"# 	c #0E3300",
"$ 	c #0F2E00",
"% 	c #0B2D00",
"& 	c #679951",
"* 	c #B0E099",
"= 	c #D1EAC4",
"- 	c #E5F1DE",
"; 	c #A9DD90",
"> 	c #6FCE45",
", 	c #38B600",
"' 	c #395E29",
") 	c #000000",
"! 	c #38B800",
"~ 	c #298800",
"{ 	c #257801",
"] 	c #206A00",
"^ 	c #0D2C00",
"/ 	c #62954B",
"( 	c #ADD098",
"_ 	c #B3EB9A",
": 	c #87E65D",
"< 	c #66BB40",
"[ 	c #0C2A00",
"} 	c #5D9046",
"| 	c #A6CC8F",
"1 	c #44B114",
"2 	c #0C2800",
"3 	c #4DB61F",
"4 	c #0B2400",
"5 	c #60934A",
"6 	c #49B819",
"7 	c #349708",
"8 	c #ABD09C",
"9 	c #38BA00",
"0 	c #588146",
"a 	c #CDE8BF",
"b 	c #63934E",
"c 	c #40BB0A",
"d 	c #3ABB02",
"e 	c #266F06",
"f 	c #40BA0B",
"g 	c #246D04",
"h 	c #0C3200",
"i 	c #0F3600",
"j 	c #114000",
"k 	c #154600",
"l 	c #164A00",
"m 	c #35B000",
"n 	c #247800",
"o 	c #333333",
"p 	c #0F3400",
"q 	c #9ECD8A",
"r 	c #CEE9C2",
"s 	c #9BD27D",
"t 	c #44C70A",
"u 	c #39BC00",
"v 	c #86B374",
"w 	c #494949",
"x 	c #010101",
"y 	c #33A800",
"z 	c #3ABE00",
"A 	c #3AC000",
"B 	c #7BD254",
"C 	c #91E86A",
"D 	c #484848",
"E 	c #A9A9A9",
"F 	c #4A4A4A",
"G 	c #35AE00",
"H 	c #52E11A",
"I 	c #66CE2C",
"J 	c #7DE232",
"K 	c #444444",
"L 	c #C6C6C6",
"M 	c #959595",
"N 	c #777777",
"O 	c #8FE54A",
"P 	c #D5D5D5",
"Q 	c #919191",
"R 	c #5C5C5C",
"S 	c #5E5E5E",
"T 	c #8B8B8B",
"U 	c #464646",
"V 	c #D2D2D2",
"W 	c #585858",
"X 	c #3D3D3D",
"Y 	c #4C4C4C",
"Z 	c #D0D0D0",
"` 	c #222222",
" .	c #262626",
"..	c #4B4B4B",
"+.	c #5B5B5B",
"@.	c #3C3C3C",
"#.	c #282828",
"$.	c #828282",
"%.	c #353535",
"&.	c #373737",
"*.	c #2E2E2E",
"=.	c #616161",
"-.	c #797979",
";.	c #6D6D6D",
">.	c #555555",
",.	c #1E1E1E",
"'.	c #030303",
").	c #090909",
"!.	c #909090",
"~.	c #767676",
"{.	c #A5A5A5",
"].	c #848484",
"^.	c #5D5D5D",
"/.	c #ACACAC",
"(.	c #7F7F7F",
"_.	c #3A3A3A",
":.	c #626262",
"<.	c #6B6B6B",
"[.	c #B6B6B6",
"}.	c #666666",
"|.	c #BFBFBF",
"1.	c #3E3E3E",
"2.	c #6F6F6F",
"3.	c #1F1F1F",
"4.	c #B8B8B8",
"5.	c #9B9B9B",
"6.	c #676767",
"7.	c #646464",
"8.	c #2D2D2D",
"9.	c #BDBDBD",
"0.	c #A3A3A3",
"a.	c #242424",
"b.	c #5A5A5A",
"c.	c #272727",
"d.	c #AEAEAE",
"e.	c #9C9C9C",
"f.	c #313131",
"g.	c #727272",
"h.	c #636363",
"i.	c #9F9F9F",
"j.	c #292929",
"k.	c #404040",
"l.	c #535353",
"m.	c #707070",
"n.	c #686868",
"o.	c #757575",
"                                                                                                ",
"                                                                                                ",
"                                                                                                ",
"                                                                                                ",
"                                                                                                ",
"                                                                                                ",
"                                                                                                ",
"                                                                                                ",
"                                          . . . + @ # $ %                                       ",
"                                      . . & * = - ; > , ' ) )                                   ",
"                                  . . & = - ; > ! ~ { ] . . ^ ) )                               ",
"                                . / ( - _ : < ~ ] . ) ) ) ) ) ^ [ )                             ",
"                              . } | - _ > 1 { . ) )           ) ) 2 )                           ",
"                              . ( - _ ! 3 { . )                   ) 4 )                         ",
"                            . 5 - _ > 6 7 . )                       ) )                         ",
"                            . 8 - : 9 7 { )                             )                       ",
"                          . 0 a _ > 6 { . )                                                     ",
"                          . b - : c d e )                                                       ",
"                          . b - > f d g )                                                       ",
"                h i j k l . b a > d m n ) j . . j h         o )                                 ",
"                ) p q r - - a s t u m v q r - q . )       o w o x                               ",
"                  ) . y > : : > z A 9 B C : y . )       o D E F o x                             ",
"                    ) . { G H t A A I J y { . )       o K L M N F o x                           ",
"                      ) . { y H A I O y { . )       o D P Q R S T F o x                         ",
"                        ) . { y I J y { . )       o U V Q W X Y S M w o x                       ",
"                          ) . { y y { . )       o w Z Q W X `  ...S M w o )                     ",
"                            ) . { { . )       o w L Q +.@.` ` ` #.Y S $.w o )                   ",
"                              ) . . )       o w E Q W w w %.#. .&.*.F =.N w o )                 ",
"                                ) )         ) ) ) ) ) ) -.;.&. .>.,.'.) ) ) ) )                 ",
"                                                      ).!.~.K ` R ,.'.                          ",
"                                                      o {.].K ` ^.,.'.                          ",
"                                                      o /.(.@._.:.,.)                           ",
"                      )                             o <.[.;.` :.K )                             ",
"                        ) )                       o }.|.M Y 1.2.3.)                             ",
"                        ) '.)                   o D 4.5.6.` 7.8.)                               ",
"                          ) '.) )           o o <.9.0.;.a.7.b.c.)                               ",
"                            ) %.%.) ) o o o 6.d.|.e.;.f.g.b.c.)                                 ",
"                              ) ) %.h.$.Q i.d.5.>.j.7.g.c.) )                                   ",
"                                  ) ) o k.l.S m.n.o.b.) )                                       ",
"                                      ) ) ) ) ) ) ) )                                           ",
"                                                                                                ",
"                                                                                                ",
"                                                                                                ",
"                                                                                                ",
"                                                                                                ",
"                                                                                                ",
"                                                                                                ",
"                                                                                                "};
