/* XPM */
static char * update_small_xpm[] = {
"32 32 154 2",
"  	c None",
". 	c #174C00",
"+ 	c #144000",
"@ 	c #0F3500",
"# 	c #0E2E00",
"$ 	c #275B10",
"% 	c #497835",
"& 	c #9BC487",
"* 	c #AFE098",
"= 	c #9CD483",
"- 	c #64B63F",
"; 	c #2F8609",
"> 	c #142E09",
", 	c #040D00",
"' 	c #3C7025",
") 	c #90B47E",
"! 	c #BCE3AA",
"~ 	c #98DE79",
"{ 	c #54AC2E",
"] 	c #247800",
"^ 	c #123B00",
"/ 	c #0A2000",
"( 	c #081900",
"_ 	c #061400",
": 	c #081C00",
"< 	c #376A20",
"[ 	c #A5C791",
"} 	c #BCE8A7",
"| 	c #70CD48",
"1 	c #318C09",
"2 	c #154500",
"3 	c #000000",
"4 	c #071600",
"5 	c #020700",
"6 	c #769F63",
"7 	c #C9EBB8",
"8 	c #70CD46",
"9 	c #3FA910",
"0 	c #050F00",
"a 	c #010400",
"b 	c #2A5B14",
"c 	c #C0E0B2",
"d 	c #9BE47B",
"e 	c #39AA07",
"f 	c #257502",
"g 	c #477732",
"h 	c #C5ECB3",
"i 	c #67CE3A",
"j 	c #37A208",
"k 	c #123701",
"l 	c #174B00",
"m 	c #4A7B34",
"n 	c #B8E3A4",
"o 	c #4EC11C",
"p 	c #32A002",
"q 	c #0C2601",
"r 	c #041100",
"s 	c #2F581F",
"t 	c #85AC75",
"u 	c #A0BA94",
"v 	c #A7C698",
"w 	c #8ED46C",
"x 	c #42C00A",
"y 	c #45AA1A",
"z 	c #689057",
"A 	c #95B488",
"B 	c #81AA6F",
"C 	c #0F3600",
"D 	c #373737",
"E 	c #0F0F0F",
"F 	c #216C00",
"G 	c #5DBD34",
"H 	c #72DF44",
"I 	c #54C721",
"J 	c #3AC000",
"K 	c #59C822",
"L 	c #75D447",
"M 	c #52AF2A",
"N 	c #185000",
"O 	c #363636",
"P 	c #5F5F5F",
"Q 	c #8A8A8A",
"R 	c #454545",
"S 	c #216A00",
"T 	c #37AB06",
"U 	c #47D00E",
"V 	c #4EC614",
"W 	c #6FD230",
"X 	c #359906",
"Y 	c #626262",
"Z 	c #A3A3A3",
"` 	c #6C6C6C",
" .	c #707070",
"..	c #383838",
"+.	c #1B5700",
"@.	c #3BA60A",
"#.	c #5FCA20",
"$.	c #2A8800",
"%.	c #616161",
"&.	c #A8A8A8",
"*.	c #505050",
"=.	c #787878",
"-.	c #484848",
";.	c #206A00",
">.	c #2A8801",
",.	c #606060",
"'.	c #343434",
").	c #222222",
"!.	c #2E2E2E",
"~.	c #5C5C5C",
"{.	c #6F6F6F",
"].	c #0F3300",
"^.	c #2C2C2C",
"/.	c #6B6B6B",
"(.	c #474747",
"_.	c #3E3E3E",
":.	c #4D4D4D",
"<.	c #2B2B2B",
"[.	c #3C3C3C",
"}.	c #272727",
"|.	c #313131",
"1.	c #7A7A7A",
"2.	c #151515",
"3.	c #020202",
"4.	c #5A5A5A",
"5.	c #8F8F8F",
"6.	c #3A3A3A",
"7.	c #767676",
"8.	c #888888",
"9.	c #393939",
"0.	c #090909",
"a.	c #010101",
"b.	c #6A6A6A",
"c.	c #A4A4A4",
"d.	c #565656",
"e.	c #4F4F4F",
"f.	c #333333",
"g.	c #6D6D6D",
"h.	c #666666",
"i.	c #4C4C4C",
"j.	c #0E0E0E",
"k.	c #232323",
"l.	c #181818",
"m.	c #303030",
"n.	c #515151",
"o.	c #646464",
"p.	c #9A9A9A",
"q.	c #6E6E6E",
"r.	c #464646",
"s.	c #141414",
"t.	c #7C7C7C",
"u.	c #5D5D5D",
"v.	c #1E1E1E",
"w.	c #080808",
"                                                                ",
"                                                                ",
"                                                                ",
"                                                                ",
"                                                                ",
"                            . . + @ #                           ",
"                        $ % & * = - ; > ,                       ",
"                      ' ) ! ~ { ] ^ / ( _ :                     ",
"                    < [ } | 1 2 3         3 4 5                 ",
"                    6 7 8 9 2 0             5 a                 ",
"                  b c d e f 3                                   ",
"                  g h i j k                                     ",
"                l m n o p q                                     ",
"          r s t u v w x y z A B C       D E                     ",
"            4 F G H I J K L M N     O P Q R E                   ",
"              4 S T U V W X 2 0     Y Z `  ...E                 ",
"                4 +.@.#.$.2     D %.&.P ..*.=.-.E               ",
"                  4 ;.>.2 0     ,.Z ,.'.).!.~.{.D E             ",
"                    4 ].      ^./.(._.:.<...^.[.R }.3           ",
"                                    |.1.O -.2.3.                ",
"                                    4.5.6.:.2.                  ",
"                                    7.8.9.*.0.                  ",
"                3 a.            D b.c.d.e.<.                    ",
"                a.3.3         f.g.Z h.(.i.j.                    ",
"                    k.l.m.n.o.p.5.q.:.r.s.                      ",
"                      E m.d. .t.,.u.v.w.                        ",
"                          3 3 3 3 3                             ",
"                                                                ",
"                                                                ",
"                                                                ",
"                                                                ",
"                                                                "};
