/* XPM */
static char * upgrade_small_xpm[] = {
"32 32 487 2",
"  	c None",
". 	c #4A4836",
"+ 	c #8E8A66",
"@ 	c #8E8E8D",
"# 	c #4A4A4B",
"$ 	c #020204",
"% 	c #AAA579",
"& 	c #E2DBA0",
"* 	c #FEF6B4",
"= 	c #807C5C",
"- 	c #807E72",
"; 	c #FEFCF7",
"> 	c #FEFEFB",
", 	c #E2E2E0",
"' 	c #AAAAA9",
") 	c #45422D",
"! 	c #868158",
"~ 	c #F4EA9B",
"{ 	c #F4EAA2",
"] 	c #F5EA9E",
"^ 	c #E9DE8F",
"/ 	c #777332",
"( 	c #888361",
"_ 	c #FAF7DD",
": 	c #F8F2C8",
"< 	c #FAF6D2",
"[ 	c #FCF8DE",
"} 	c #FDF9EA",
"| 	c #FDFCF1",
"1 	c #8E8D84",
"2 	c #4A4948",
"3 	c #989056",
"4 	c #CEC479",
"5 	c #E7DB86",
"6 	c #E9DD86",
"7 	c #E9DD85",
"8 	c #E9DD89",
"9 	c #E5D87F",
"0 	c #DECF72",
"a 	c #C0BA25",
"b 	c #BCBA0F",
"c 	c #EFE290",
"d 	c #F3EBAC",
"e 	c #FCF9E5",
"f 	c #F6F0BF",
"g 	c #F5EEB6",
"h 	c #F8F2CA",
"i 	c #F9F4CF",
"j 	c #FBF6D9",
"k 	c #DFDCC9",
"l 	c #A9A696",
"m 	c #3F3A20",
"n 	c #7A713E",
"o 	c #DBCB6F",
"p 	c #DDCD72",
"q 	c #DCCD72",
"r 	c #D8CB6F",
"s 	c #CFC36C",
"t 	c #B9AE4E",
"u 	c #A9A22B",
"v 	c #A09C04",
"w 	c #A8A704",
"x 	c #AAAA04",
"y 	c #EBDF81",
"z 	c #EADE81",
"A 	c #EADD82",
"B 	c #F1EAB6",
"C 	c #F3EFCA",
"D 	c #F6F1C1",
"E 	c #F2E99F",
"F 	c #F5EBAA",
"G 	c #F5EEB3",
"H 	c #F7F0BF",
"I 	c #F8F2C5",
"J 	c #8A876E",
"K 	c #48473C",
"L 	c #8C7F3D",
"M 	c #D1BE5A",
"N 	c #C5B458",
"O 	c #AE9F53",
"P 	c #938D21",
"Q 	c #8D890E",
"R 	c #8C8C04",
"S 	c #929004",
"T 	c #989704",
"U 	c #9E9D04",
"V 	c #DED277",
"W 	c #DCD077",
"X 	c #D9CD74",
"Y 	c #D4C871",
"Z 	c #D5CB7E",
"` 	c #DCD49C",
" .	c #F9F5D6",
"..	c #F3EAA5",
"+.	c #F0E693",
"@.	c #F3E89F",
"#.	c #F3EAA3",
"$.	c #F5EDB0",
"%.	c #A39E77",
"&.	c #998A38",
"*.	c #C5B247",
"=.	c #AA973F",
"-.	c #867931",
";.	c #72650C",
">.	c #6B6704",
",.	c #706D04",
"'.	c #737204",
").	c #7B7904",
"!.	c #817E04",
"~.	c #878404",
"{.	c #8D8B04",
"].	c #CABF69",
"^.	c #C8BD69",
"/.	c #C5B967",
"(.	c #C3B763",
"_.	c #BDB261",
":.	c #BAAF61",
"<.	c #B6AB5E",
"[.	c #D2CCA1",
"}.	c #E7E2BC",
"|.	c #EEE285",
"1.	c #BBB270",
"2.	c #17150E",
"3.	c #605920",
"4.	c #544C1A",
"5.	c #534E0D",
"6.	c #595314",
"7.	c #5D5906",
"8.	c #635F05",
"9.	c #686504",
"0.	c #6D6B04",
"a.	c #747104",
"b.	c #797604",
"c.	c #7F7C04",
"d.	c #B7AD5F",
"e.	c #B8AD5F",
"f.	c #B2A85A",
"g.	c #B1A657",
"h.	c #ACA257",
"i.	c #A9A057",
"j.	c #A39A50",
"k.	c #A29850",
"l.	c #A89F61",
"m.	c #B9B384",
"n.	c #888048",
"o.	c #1C1B12",
"p.	c #AA9F64",
"q.	c #E2D484",
"r.	c #847E3F",
"s.	c #5A551D",
"t.	c #47430C",
"u.	c #4A450A",
"v.	c #534D07",
"w.	c #555106",
"x.	c #5B5A0B",
"y.	c #605D07",
"z.	c #686607",
"A.	c #6C6905",
"B.	c #A69C51",
"C.	c #A29851",
"D.	c #9E964E",
"E.	c #9A9249",
"F.	c #978E49",
"G.	c #938A47",
"H.	c #908743",
"I.	c #8C8240",
"J.	c #948B55",
"K.	c #ADA47D",
"L.	c #6F6C4B",
"M.	c #FCF1AD",
"N.	c #D5CB8C",
"O.	c #979260",
"P.	c #48430D",
"Q.	c #433E0C",
"R.	c #48440A",
"S.	c #4F4B0A",
"T.	c #544F08",
"U.	c #585509",
"V.	c #5E5B06",
"W.	c #948B47",
"X.	c #908646",
"Y.	c #8E8543",
"Z.	c #8B823F",
"`.	c #877E3F",
" +	c #847A3F",
".+	c #726A33",
"++	c #B1AC8C",
"@+	c #E0DECF",
"#+	c #55533D",
"$+	c #88867B",
"%+	c #A29E7F",
"&+	c #C0BB97",
"*+	c #E0DBB2",
"=+	c #FDF9D9",
"-+	c #7F7B57",
";+	c #544E25",
">+	c #3E3A0A",
",+	c #423E0B",
"'+	c #49430B",
")+	c #4D4909",
"!+	c #81783A",
"~+	c #7C733A",
"{+	c #787037",
"]+	c #706730",
"^+	c #7D743F",
"/+	c #958E5D",
"(+	c #FDFAE4",
"_+	c #D3D2C0",
":+	c #9A9676",
"<+	c #504A0A",
"[+	c #4D440B",
"}+	c #EFEDE2",
"|+	c #D1CCB4",
"1+	c #A7A485",
"2+	c #ABA989",
"3+	c #FEFBF3",
"4+	c #D3D2C4",
"5+	c #908D76",
"6+	c #37300B",
"7+	c #3C360C",
"8+	c #403B0B",
"9+	c #6F662F",
"0+	c #6B622F",
"a+	c #5F5728",
"b+	c #A39757",
"c+	c #D9D08E",
"d+	c #FDF6C3",
"e+	c #838053",
"f+	c #706527",
"g+	c #726C07",
"h+	c #878306",
"i+	c #595704",
"j+	c #F8F4E2",
"k+	c #D6D1B8",
"l+	c #A39E80",
"m+	c #C1BFAD",
"n+	c #E1E1D8",
"o+	c #76715C",
"p+	c #696247",
"q+	c #807634",
"r+	c #8D8345",
"s+	c #FEEE94",
"t+	c #DACC74",
"u+	c #A49A55",
"v+	c #5B550B",
"w+	c #8C800B",
"x+	c #6D6B03",
"y+	c #898604",
"z+	c #585604",
"A+	c #AAAA9E",
"B+	c #FEFCF1",
"C+	c #FEFEEC",
"D+	c #FEFCE4",
"E+	c #FEFDE5",
"F+	c #F0EBD0",
"G+	c #D2CCAF",
"H+	c #A7A48A",
"I+	c #ABAA95",
"J+	c #B8B49D",
"K+	c #BAB39E",
"L+	c #BDB22F",
"M+	c #BFAD57",
"N+	c #9E934B",
"O+	c #83771C",
"P+	c #807B06",
"Q+	c #908D06",
"R+	c #787503",
"S+	c #1B3200",
"T+	c #193000",
"U+	c #666303",
"V+	c #545304",
"W+	c #AAAA99",
"X+	c #FEFCEC",
"Y+	c #FEFCE2",
"Z+	c #FDFBE1",
"`+	c #FEFBD8",
" @	c #FEFAD5",
".@	c #FEFAD0",
"+@	c #F7F3CF",
"@@	c #DDD6B0",
"#@	c #B7AF94",
"$@	c #CCC5B4",
"%@	c #BBBA04",
"&@	c #B9B604",
"*@	c #9E9C04",
"=@	c #9A9704",
"-@	c #A19D04",
";@	c #7A7903",
">@	c #0E2F00",
",@	c #257901",
"'@	c #353503",
")@	c #FEFBD4",
"!@	c #FEFACC",
"~@	c #FEF7C4",
"{@	c #FEF9B9",
"]@	c #F2EBB6",
"^@	c #EFE5C4",
"/@	c #B1B004",
"(@	c #AAA904",
"_@	c #A4A204",
":@	c #52BC16",
"<@	c #48B414",
"[@	c #0A2200",
"}@	c #AAA898",
"|@	c #FEF9C1",
"1@	c #FEF8BC",
"2@	c #FEFAB9",
"3@	c #FEF7B9",
"4@	c #FEF9B2",
"5@	c #ABAB04",
"6@	c #7C7A03",
"7@	c #5EC720",
"8@	c #65D029",
"9@	c #40C807",
"0@	c #43C50D",
"a@	c #257A01",
"b@	c #AAA88F",
"c@	c #FEFAC1",
"d@	c #FEF9BC",
"e@	c #FEF8B7",
"f@	c #FEF7B4",
"g@	c #FEF6AB",
"h@	c #FEF7AD",
"i@	c #FEF7A4",
"j@	c #ACAC04",
"k@	c #A6A504",
"l@	c #1C3300",
"m@	c #3E9C15",
"n@	c #6ECD44",
"o@	c #6AD035",
"p@	c #3EC005",
"q@	c #47C310",
"r@	c #6EDC40",
"s@	c #65C839",
"t@	c #39970F",
"u@	c #0C2600",
"v@	c #AAA789",
"w@	c #FEFAC9",
"x@	c #FEF9C9",
"y@	c #FEF9BF",
"z@	c #FEF8B4",
"A@	c #FEF9B4",
"B@	c #FEF7A9",
"C@	c #FEF6A0",
"D@	c #FEF69C",
"E@	c #A7A604",
"F@	c #9F9D04",
"G@	c #0A2300",
"H@	c #52843D",
"I@	c #9BB78E",
"J@	c #769668",
"K@	c #55A534",
"L@	c #38B800",
"M@	c #70CF45",
"N@	c #AAD097",
"O@	c #A0BA94",
"P@	c #96B588",
"Q@	c #4F7B3D",
"R@	c #081D00",
"S@	c #FEFAC4",
"T@	c #FEF9B0",
"U@	c #FEF6A7",
"V@	c #FEF6A4",
"W@	c #FEF690",
"X@	c #A3A104",
"Y@	c #9A9904",
"Z@	c #667203",
"`@	c #657503",
" #	c #5E6D03",
".#	c #1E2201",
"+#	c #2B8802",
"@#	c #3CB906",
"##	c #94D975",
"$#	c #8CB17B",
"%#	c #123B01",
"&#	c #081903",
"*#	c #081B02",
"=#	c #AAA779",
"-#	c #FEFAB4",
";#	c #FEF6B0",
">#	c #FEF69A",
",#	c #FEF594",
"'#	c #FEF598",
")#	c #FEF285",
"!#	c #949204",
"~#	c #8B8904",
"{#	c #858304",
"]#	c #6F6D04",
"^#	c #212C01",
"/#	c #2E8A06",
"(#	c #4ABF17",
"_#	c #ADEA92",
":#	c #89AD79",
"<#	c #103301",
"[#	c #AAA679",
"}#	c #FEF8AB",
"|#	c #FEF7A7",
"1#	c #FEF6A2",
"2#	c #C6C079",
"3#	c #C6BF7C",
"4#	c #FEF692",
"5#	c #FEF58C",
"6#	c #8F8C04",
"7#	c #878604",
"8#	c #817F04",
"9#	c #505003",
"0#	c #164600",
"a#	c #349C07",
"b#	c #69D23B",
"c#	c #CAE7BD",
"d#	c #5B8647",
"e#	c #293204",
"f#	c #726E52",
"g#	c #FEF6AD",
"h#	c #FEF59A",
"i#	c #555231",
"j#	c #3B3F20",
"k#	c #E2D97A",
"l#	c #FEF282",
"m#	c #FEF380",
"n#	c #8C8A04",
"o#	c #807E04",
"p#	c #605F03",
"q#	c #318A0B",
"r#	c #59C32C",
"s#	c #AFE696",
"t#	c #A4C295",
"u#	c #335A13",
"v#	c #201E08",
"w#	c #565338",
"x#	c #C6C07D",
"y#	c #FEF698",
"z#	c #FEF592",
"A#	c #FEF389",
"B#	c #C6BE6E",
"C#	c #051100",
"D#	c #3B4020",
"E#	c #8D8743",
"F#	c #FEF37D",
"G#	c #8A8804",
"H#	c #848104",
"I#	c #292801",
"J#	c #172F00",
"K#	c #297B05",
"L#	c #56B92A",
"M#	c #A3E187",
"N#	c #C3E0B3",
"O#	c #578841",
"P#	c #192A05",
"Q#	c #4A482B",
"R#	c #AAA35C",
"S#	c #FEF384",
"T#	c #C6BD67",
"U#	c #222E0D",
"V#	c #071800",
"W#	c #071600",
"X#	c #091D00",
"Y#	c #216C00",
"Z#	c #38960F",
"`#	c #8AD26A",
" $	c #B5EA9D",
".$	c #A6C496",
"+$	c #5A8A43",
"@$	c #565230",
"#$	c #C6BF6A",
"$$	c #FEF37A",
"%$	c #C6BC5A",
"&$	c #72702A",
"*$	c #2E6F12",
"=$	c #4AAA1F",
"-$	c #8DCA71",
";$	c #AFE098",
">$	c #A4D18F",
",$	c #699356",
"'$	c #2E6217",
")$	c #4A4724",
"!$	c #AAA24F",
"~$	c #FEF25F",
"{$	c #2F4401",
"]$	c #2E4501",
"^$	c #0D2901",
"/$	c #133F01",
"($	c #174C00",
"_$	c #565222",
":$	c #C6BD4B",
"<$	c #5A5704",
"[$	c #262504",
"                                                                ",
"                                                                ",
"                      . + +         @ @ #                       ",
"                  $ % & * * =     - ; > , ' $                   ",
"              ) ! ~ { ] ] ] ^ / ( _ : < [ } | 1 2               ",
"          $ 3 4 5 6 7 8 9 0 a b c d e f g h i j k l $           ",
"      m n o p o q r s t u v w x y z A B C D E F G H I J K       ",
"    $ L M M M M N O P Q R S T U V W X Y Z `  ...+.@.#.$.%.$     ",
"        &.*.=.-.;.>.,.'.).!.~.{.].^./.(._.:.<.[.}.d |.1.        ",
"    $ $ 2.3.4.5.6.7.8.9.0.a.b.c.d.e.f.g.h.i.j.k.l.m.n.o.$ $     ",
"      $ p.q.r.s.t.u.v.w.x.y.z.A.B.C.D.E.F.G.H.I.J.K., ' $       ",
"        $ L.M.N.O.P.Q.R.S.T.U.V.W.X.Y.Z.`. +.+++@+> #+$         ",
"          $+%+&+*+=+-+;+>+,+'+)+!+~+{+]+^+/+(+_+:+<+[+          ",
"          ' }+|+1+2+3+4+5+6+7+8+9+0+a+b+c+d+e+f+g+h+i+          ",
"          ' > ; j+k+l+m+n+> o+p+q+r+s+t+u+v+w+x+x+y+z+          ",
"          A+B+C+D+E+F+G+H+I+J+K+L+M+N+O+P+Q+R+S+T+U+V+          ",
"          W+X+Y+Z+`+ @.@+@@@#@$@%@&@*@=@-@;@>@,@,@>@'@          ",
"          W+Z+`+)@)@.@!@~@{@]@^@&@/@(@_@;@S+,@:@<@,@[@          ",
"          }@ @ @!@!@|@1@2@3@4@4@/@5@_@6@>@,@7@8@9@0@a@>@        ",
"          b@!@!@!@c@d@e@f@g@h@i@j@k@6@l@m@n@o@p@q@r@s@t@u@      ",
"          v@w@x@2@y@z@A@4@B@C@D@E@F@G@H@I@J@K@L@M@N@O@P@Q@R@    ",
"          v@S@3@2@f@T@U@V@V@D@W@X@Y@Z@`@ #.#+#@###$#%#&#*#      ",
"          =#f@-#f@;#h@C@>#,#'#)#Y@!#~#{#]#^#/#(#_#:#<#$ $ $     ",
"          [#A@}#|#1#2#3#4#5#4#5#!#6#7#8#9#0#a#b#c#d#e#$ $ $     ",
"          f#g#V@C@h#W@i#j#k#l#m#n#7#o#p#>@q#r#s#t#u#v#$         ",
"            w#x#y#z#A#B#C#D#E#F#G#H#I#J#K#L#M#N#O#P#            ",
"                Q#R#5#S#T#U#V#W#X#u@Y#Z#`# $.$+$                ",
"                    @$#$$$%$&$W#*$=$-$;$>$,$'$                  ",
"                        )$!$~$~${$]$^$/$($                      ",
"                            _$:$<$[$                            ",
"                                                                ",
"                                                                "};
