/* XPM */
static const char * upgradeM_xpm[] = {
"9 9 2 1",
" 	c None",
".	c #A1F14C",
"         ",
" ....... ",
"  ...... ",
"   ..... ",
"    .... ",
"     ... ",
"      .. ",
"       . ",
"         "};
